<?xml version="1.0" encoding="UTF-8" standalone="no"?>
<svg width="654px" height="125px" viewBox="0 0 654 125" version="1.1" xmlns="http://www.w3.org/2000/svg" xmlns:xlink="http://www.w3.org/1999/xlink" xmlns:sketch="http://www.bohemiancoding.com/sketch/ns">
    <!-- Generator: Sketch 3.2.2 (9983) - http://www.bohemiancoding.com/sketch -->
    <title>Group 3</title>
    <desc>Created with Sketch.</desc>
    <defs>
        <rect id="path-1" x="0" y="0" width="71" height="93"></rect>
        <rect id="path-3" x="0" y="0" width="71" height="93"></rect>
    </defs>
    <g id="Teaser" stroke="none" stroke-width="1" fill="none" fill-rule="evenodd" sketch:type="MSPage">
        <g id="Artboard-17" sketch:type="MSArtboardGroup" transform="translate(-959.000000, -256.000000)">
            <g id="Group-3" sketch:type="MSLayerGroup" transform="translate(959.000000, 256.000000)">
                <g id="Group" transform="translate(22.000000, 0.000000)" sketch:type="MSShapeGroup">
                    <path d="M253.251721,49.0033322 C270.222819,27.5434483 288.930236,3.45335424 351.611996,3.45335424 C414.293756,3.45335424 443.982812,33.2780843 457.948197,53.6808957 C471.913582,74.0837072 476.975513,103.908436 476.975513,103.908436 L226.248476,103.908436 C226.248476,103.908436 236.280623,70.4632161 253.251721,49.0033322 Z" id="Rectangle-50" fill="#E6FAF2"></path>
                    <path d="M176.079673,66.5036186 C198.707258,44.2904378 224.292007,31.0855006 245.655795,31.0855006 C266.589361,31.0855006 290.831499,46.6909711 311.013767,66.5036186 C331.196035,86.316266 330.585725,114.460015 330.585725,114.460015 L160.725864,114.460015 C160.725864,114.460015 153.452089,88.7167994 176.079673,66.5036186 Z" id="Rectangle-49" fill="#E6FAF2"></path>
                    <path d="M107.979179,63.3556202 C119.552105,45.5446011 132.309062,25.5505914 175.052991,25.5505914 C217.796921,25.5505914 238.042474,50.3041661 247.565746,67.2378488 C257.089018,84.1715315 260.540848,108.925105 260.540848,108.925105 L89.5651325,108.925105 C89.5651325,108.925105 96.4062517,81.1666394 107.979179,63.3556202 Z" id="Rectangle-50" fill="#E6FAF2"></path>
                    <path d="M31.1653882,70.9341429 C47.0404486,55.3498201 64.9901958,46.0855006 79.9786015,46.0855006 C94.6651725,46.0855006 111.672971,57.0339862 125.832446,70.9341429 C139.991921,84.8342996 139.56374,104.57939 139.56374,104.57939 L20.3934631,104.57939 C20.3934631,104.57939 15.2903277,86.5184658 31.1653882,70.9341429 Z" id="Rectangle-49" fill="#FFFFFF"></path>
                    <path d="M28.5309201,67.6087518 C36.6502538,55.1128974 45.6002791,41.0855006 75.588564,41.0855006 C105.576849,41.0855006 119.780724,58.4521129 126.462061,70.3324456 C133.143398,82.2127783 135.565132,99.5793901 135.565132,99.5793901 L15.6119941,99.5793901 C15.6119941,99.5793901 20.4115864,80.1046061 28.5309201,67.6087518 Z" id="Rectangle-50" fill="#E6FAF2"></path>
                    <path d="M359.611994,84.7752041 C359.611994,62.6848424 374.731457,35.1979291 394.162005,24.6957537 C394.162005,24.6957537 422.29376,0.12430788 484.975518,0.12430788 C547.657275,0.12430788 575.789024,24.6957537 575.789024,24.6957537 C594.870466,35.7863563 610.339031,62.6827448 610.339031,84.7752041 L610.339031,100.57939 L359.611994,100.57939 L359.611994,84.7752041 Z" id="Rectangle-51" fill="#E6FAF2"></path>
                    <path d="M375.760993,57.7595719 C408.943176,30.9956749 446.461885,15.0855006 477.790774,15.0855006 C508.488765,15.0855006 544.038606,33.8879949 573.634857,57.7595719 C603.231108,81.6311488 602.33612,115.540583 602.33612,115.540583 L353.245427,115.540583 C353.245427,115.540583 342.578811,84.5234688 375.760993,57.7595719 Z" id="Rectangle-49" fill="#FFFFFF"></path>
                    <g id="Rectangle-51-+-Rectangle-49-+-Rectangle-75" transform="translate(389.565132, 35.493344)" fill="#FFFFFF">
                        <path d="M0.436045435,87.2596912 C0.436045435,78.7670825 6.28186263,68.2563709 13.8371947,64.4102519 C13.8371947,64.4102519 19.6699323,58.2174663 38.9038169,58.2174663 C58.1377015,58.2174663 63.9704378,64.4102519 63.9704378,64.4102519 C71.3716873,68.53704 77.3715854,78.7545462 77.3715854,87.2596912 L77.3715854,88.9595392 L0.436045435,88.9595392 L0.436045435,87.2596912 Z" id="Rectangle-51"></path>
                        <path d="M56.4030306,38.1352247 C74.5498589,14.5936374 95.0682677,0.599010263 112.201558,0.599010263 C128.989821,0.599010263 148.431486,17.1377289 164.617223,38.1352247 C180.80296,59.1327205 180.313505,88.9595392 180.313505,88.9595392 L44.0896114,88.9595392 C44.0896114,88.9595392 38.2562023,61.6768121 56.4030306,38.1352247 Z" id="Rectangle-49"></path>
                        <path d="M151.80724,56.5467709 C158.408395,43.8781083 165.684917,29.6567231 190.065898,29.6567231 C214.446879,29.6567231 225.994869,47.2635026 231.426909,59.3081314 C236.858948,71.3527602 238.82786,88.9595392 238.82786,88.9595392 L141.303936,88.9595392 C141.303936,88.9595392 145.206085,69.2154336 151.80724,56.5467709 Z" id="Rectangle-50"></path>
                    </g>
                    <g id="Rectangle-51-+-Rectangle-49-+-Rectangle-74" transform="translate(267.611994, 35.085501)" fill="#FFFFFF">
                        <path d="M0,87.2596912 C0,78.7670825 6.73261414,70.4555335 15.0684279,68.8327792 C15.0684279,68.8327792 59.8587228,58.2174663 119.717438,58.2174663 C179.576154,58.2174663 224.377793,68.8349031 224.377793,68.8349031 C232.693585,70.5180239 239.434868,78.7545462 239.434868,87.2596912 L239.434868,88.9595392 L0,88.9595392 L0,87.2596912 Z" id="Rectangle-51"></path>
                        <path d="M23.0613839,38.1352247 C54.7491167,14.5936374 90.5780695,0.599010263 120.495977,0.599010263 C149.811402,0.599010263 183.76016,17.1377289 212.023464,38.1352247 C240.286768,59.1327205 239.432088,88.9595392 239.432088,88.9595392 L1.55986686,88.9595392 C1.55986686,88.9595392 -8.62634887,61.6768121 23.0613839,38.1352247 Z" id="Rectangle-49"></path>
                        <path d="M25.7870813,56.5467709 C41.9938402,43.8781083 59.8587176,29.6567231 119.717435,29.6567231 C179.576153,29.6567231 207.928083,47.2635026 221.264499,59.3081314 C234.600915,71.3527602 239.434868,88.9595392 239.434868,88.9595392 L-2.15748842e-15,88.9595392 C-2.15748842e-15,88.9595392 9.58032234,69.2154336 25.7870813,56.5467709 Z" id="Rectangle-50"></path>
                    </g>
                    <g id="Rectangle-51-+-Rectangle-49-+-Rectangle-76" transform="translate(0.611994, 72.085501)" fill="#FFFFFF">
                        <path d="M11.0330557,22.2057219 C26.1931399,8.49771452 43.3344717,0.348797088 57.6478341,0.348797088 C71.6729557,0.348797088 87.9147623,9.97911105 101.436527,22.2057219 C114.958292,34.4323328 114.549395,51.8001612 114.549395,51.8001612 L0.746273429,51.8001612 C0.746273429,51.8001612 -4.12702846,35.9137293 11.0330557,22.2057219 Z" id="Rectangle-49"></path>
                        <path d="M12.3370872,32.9265628 C20.0907448,25.5497399 28.6376815,17.2687837 57.275363,17.2687837 C85.9130445,17.2687837 99.4772097,27.5210177 105.857634,34.5344726 C112.238059,41.5479274 114.550725,51.8001612 114.550725,51.8001612 L-1.03218827e-15,51.8001612 C-1.03218827e-15,51.8001612 4.58342963,40.3033857 12.3370872,32.9265628 Z" id="Rectangle-50"></path>
                    </g>
                    <g id="Rectangle-51-+-Rectangle-49-+-Rectangle-79" transform="translate(109.611994, 50.085501)" fill="#FFFFFF">
                        <path d="M15.7260129,31.4860603 C37.3345034,11.7389481 61.7669735,1.14162771e-15 82.1685853,0 C102.159352,-1.11863775e-15 125.30968,13.8729784 144.582985,31.4860603 C163.85629,49.0991423 163.273467,74.1184211 163.273467,74.1184211 L1.063704,74.1184211 C1.063704,74.1184211 -5.88247756,51.2331726 15.7260129,31.4860603 Z" id="Rectangle-49"></path>
                        <path d="M17.5847197,33.6079805 C28.6364286,17.7743096 40.8188411,2.2692222e-15 81.6376821,0 C122.456523,-2.2692222e-15 141.790264,22.005476 150.884629,37.0592108 C159.978995,52.1129456 163.275362,74.1184211 163.275362,74.1184211 L-1.47123394e-15,74.1184211 C-1.47123394e-15,74.1184211 6.53301091,49.4416514 17.5847197,33.6079805 Z" id="Rectangle-50"></path>
                    </g>
                    <g id="Rectangle-51-+-Rectangle-49-+-Rectangle-87" transform="translate(217.611994, 46.085501)" fill="#FFFFFF">
                        <path d="M11.5533941,24.8486423 C27.4284545,9.2643195 45.3782017,9.00966916e-16 60.3666073,0 C75.0531784,-8.82823355e-16 92.0609772,10.9484856 106.220452,24.8486423 C120.379927,38.748799 119.951746,58.4938895 119.951746,58.4938895 L0.781468996,58.4938895 C0.781468996,58.4938895 -4.32166639,40.4329651 11.5533941,24.8486423 Z" id="Rectangle-49"></path>
                        <path d="M12.918926,26.5232512 C21.0382597,14.0273968 29.9882849,1.79085889e-15 59.9765699,0 C89.9648548,-1.79085889e-15 104.16873,17.3666123 110.850067,29.246945 C117.531403,41.1272776 119.953138,58.4938895 119.953138,58.4938895 L-1.08086808e-15,58.4938895 C-1.08086808e-15,58.4938895 4.79959223,39.0191055 12.918926,26.5232512 Z" id="Rectangle-50"></path>
                    </g>
                </g>
                <g id="Rectangle-51-+-Rectangle-49-+-Rectangle-90" transform="translate(0.000000, 41.000000)">
                    <mask id="mask-2" sketch:name="Mask" fill="white">
                        <use xlink:href="#path-1"></use>
                    </mask>
                    <use id="Mask" sketch:type="MSShapeGroup" xlink:href="#path-1"></use>
                    <g id="Rectangle-51-+-Rectangle-49-+-Rectangle-82" mask="url(#mask-2)" fill="#FFFFFF" sketch:type="MSShapeGroup">
                        <g transform="translate(-65.000000, 12.124308)" id="Rectangle-49">
                            <path d="M64.7753601,0.404605492 C120.05072,0.404605492 129.549221,70.5832036 129.549221,70.5832036 L0.843995215,70.5832036 C0.843995215,70.5832036 9.50000012,0.404605492 64.7753601,0.404605492 Z"></path>
                        </g>
                    </g>
                </g>
                <g id="Rectangle-51-+-Rectangle-49-+-Rectangle-105" transform="translate(583.000000, 41.000000)">
                    <mask id="mask-4" sketch:name="Mask" fill="white">
                        <use xlink:href="#path-3"></use>
                    </mask>
                    <use id="Mask" sketch:type="MSShapeGroup" xlink:href="#path-3"></use>
                    <g id="Rectangle-51-+-Rectangle-49-+-Rectangle-82" mask="url(#mask-4)" fill="#FFFFFF" sketch:type="MSShapeGroup">
                        <g transform="translate(4.000000, 12.124308)" id="Rectangle-49">
                            <path d="M64.7753601,0.404605492 C120.05072,0.404605492 129.549221,70.5832036 129.549221,70.5832036 L0.843995215,70.5832036 C0.843995215,70.5832036 9.50000012,0.404605492 64.7753601,0.404605492 Z"></path>
                        </g>
                    </g>
                </g>
            </g>
        </g>
    </g>
</svg>