<svg width="654" height="125" viewBox="0 0 654 125" xmlns="http://www.w3.org/2000/svg" xmlns:xlink="http://www.w3.org/1999/xlink"><title>Group 3</title><desc>Created with Sketch.</desc><defs><path id="a" d="M0 0h71v93H0z"/><path id="c" d="M0 0h71v93H0z"/></defs><g fill="none"><g><path d="M275.252 49.003c16.97-21.46 35.678-45.55 98.36-45.55s92.37 29.825 106.336 50.228c13.966 20.404 19.028 50.228 19.028 50.228H248.248s10.033-33.445 27.004-54.905z" id="Rectangle-50" fill="#E6FAF2"/><path d="M198.08 66.504c22.627-22.214 48.212-35.418 69.576-35.418 20.933 0 45.175 15.605 65.358 35.418 20.182 19.812 19.572 47.956 19.572 47.956h-169.86s-7.274-25.743 15.354-47.956z" id="Rectangle-49" fill="#E6FAF2"/><path d="M129.98 63.356c11.572-17.81 24.33-37.805 67.073-37.805 42.744 0 62.99 24.754 72.513 41.688 9.523 16.934 12.975 41.687 12.975 41.687H111.566s6.84-27.758 18.414-45.57z" id="Rectangle-50" fill="#E6FAF2"/><path d="M53.165 70.934C69.04 55.35 86.99 46.086 101.98 46.086c14.685 0 31.693 10.948 45.852 24.848 14.16 13.9 13.732 33.645 13.732 33.645H42.394s-5.104-18.062 10.77-33.646z" id="Rectangle-49" fill="#fff"/><path d="M50.53 67.61c8.12-12.497 17.07-26.524 47.06-26.524 29.987 0 44.19 17.366 50.872 29.246 6.68 11.88 9.103 29.247 9.103 29.247H37.612s4.8-19.475 12.92-31.97z" id="Rectangle-50" fill="#E6FAF2"/><path d="M381.612 84.775c0-22.09 15.12-49.577 34.55-60.08 0 0 28.132-24.57 90.814-24.57 62.68 0 90.813 24.57 90.813 24.57 19.08 11.09 34.55 37.988 34.55 60.08v15.804H381.61V84.774z" id="Rectangle-51" fill="#E6FAF2"/><path d="M397.76 57.76c33.183-26.764 70.702-42.674 102.03-42.674 30.7 0 66.25 18.802 95.845 42.674 29.596 23.87 28.7 57.78 28.7 57.78h-249.09S364.58 84.524 397.76 57.76z" id="Rectangle-49" fill="#fff"/><g fill="#fff"><path d="M412 122.753c0-8.493 5.847-19.004 13.402-22.85 0 0 5.833-6.193 25.067-6.193 19.233 0 25.065 6.193 25.065 6.193 7.402 4.127 13.402 14.345 13.402 22.85v1.7H412v-1.7z" id="Rectangle-51"/><path d="M467.968 73.628c18.147-23.54 38.665-37.536 55.8-37.536 16.787 0 36.228 16.54 52.414 37.536 16.186 20.998 15.697 50.825 15.697 50.825H455.654s-5.834-27.283 12.313-50.825z" id="Rectangle-49"/><path d="M563.372 92.04c6.6-12.67 13.878-26.89 38.26-26.89 24.38 0 35.928 17.607 41.36 29.65 5.432 12.046 7.4 29.653 7.4 29.653H552.87s3.9-19.745 10.502-32.413z" id="Rectangle-50"/></g><g fill="#fff"><path d="M289.612 122.346c0-8.493 6.733-16.804 15.068-18.427 0 0 44.79-10.617 104.65-10.617 59.858 0 104.66 10.618 104.66 10.618 8.316 1.684 15.057 9.92 15.057 18.426v1.7H289.612v-1.7z"/><path d="M312.673 73.22c31.688-23.54 67.517-37.535 97.435-37.535 29.315 0 63.264 16.54 91.527 37.536 28.264 21 27.41 50.826 27.41 50.826H291.17s-10.186-27.283 21.5-50.825z" id="Rectangle-49"/><path d="M315.4 91.633c16.206-12.67 34.07-26.89 93.93-26.89 59.858 0 88.21 17.607 101.546 29.65 13.337 12.046 18.17 29.653 18.17 29.653H289.613s9.58-19.745 25.787-32.413z" id="Rectangle-50"/></g><g fill="#fff"><path d="M33.645 94.292c15.16-13.708 32.3-21.857 46.615-21.857 14.025 0 30.267 9.63 43.79 21.857 13.52 12.226 13.11 29.594 13.11 29.594H23.36S18.485 108 33.645 94.292z" id="Rectangle-49"/><path d="M34.95 105.013c7.753-7.377 16.3-15.658 44.937-15.658 28.638 0 42.202 10.252 48.583 17.265 6.38 7.014 8.693 17.266 8.693 17.266H22.613s4.582-11.497 12.336-18.873z" id="Rectangle-50"/></g><g fill="#fff"><path d="M147.338 81.572c21.61-19.747 46.04-31.486 66.443-31.486 19.99 0 43.142 13.873 62.415 31.486 19.273 17.613 18.69 42.632 18.69 42.632h-162.21s-6.945-22.885 14.663-42.632z" id="Rectangle-49"/><path d="M149.197 83.694c11.05-15.834 23.234-33.608 64.053-33.608 40.82 0 60.152 22.005 69.247 37.06 9.094 15.053 12.39 37.058 12.39 37.058H131.612s6.533-24.676 17.585-40.51z" id="Rectangle-50"/></g><g fill="#fff"><path d="M251.165 70.935c15.875-15.585 33.825-24.85 48.814-24.85 14.685 0 31.693 10.95 45.852 24.85 14.16 13.9 13.732 33.645 13.732 33.645h-119.17s-5.104-18.06 10.77-33.645z" id="Rectangle-49"/><path d="M252.53 72.61c8.12-12.497 17.07-26.524 47.06-26.524 29.987 0 44.19 17.367 50.872 29.247 6.68 11.88 9.103 29.247 9.103 29.247H239.612s4.8-19.475 12.92-31.97z"/></g></g><g transform="translate(0 41)"><mask id="b"><use xlink:href="#a"/></mask><use id="Mask" xlink:href="#a"/><path d="M-.225 12.53c55.276 0 64.774 70.178 64.774 70.178H-64.157s8.656-70.18 63.93-70.18z" id="Rectangle-49" mask="url(#b)" fill="#fff"/></g><g transform="translate(583 41)"><mask id="d"><use xlink:href="#c"/></mask><use xlink:href="#c"/><path d="M68.775 12.53c55.276 0 64.774 70.178 64.774 70.178H4.843s8.656-70.18 63.93-70.18z" mask="url(#d)" fill="#fff"/></g></g></svg>