<svg width="800" height="600" viewBox="0 0 800 600" xmlns="http://www.w3.org/2000/svg"><title>Artboard 17</title><desc>Created with Sketch.</desc><g fill="none"><g><path d="M443.033 29.52c11.12 0 11.12 14.424 11.12 14.424h-22.238s0-14.424 11.118-14.424z" id="Rectangle-49" fill="#C4E6D7"/><path d="M449.498 38.653c1.078-2.068 2.266-4.39 6.246-4.39 3.98 0 5.865 2.875 6.75 4.84.888 1.967 1.21 4.84 1.21 4.84h-15.92s.637-3.222 1.714-5.29z" id="Rectangle-50" fill="#C4E6D7"/><g id="Rectangle-51-+-Rectangle-49-+-Rectangle-57" fill="#fff"><path d="M443.033 29.098c11.12 0 11.12 14.423 11.12 14.423h-22.238s0-14.422 11.118-14.422z" id="Rectangle-49"/><path d="M449.498 38.23c1.078-2.067 2.266-4.39 6.246-4.39 3.98 0 5.865 2.875 6.75 4.84.888 1.967 1.21 4.84 1.21 4.84h-15.92s.637-3.222 1.714-5.29z" id="Rectangle-50"/></g></g><g id="Rectangle-51-+-Rectangle-49-+-Rectangle-104" fill="#fff"><path d="M157.98 443.482c0-1.55 1.063-3.47 2.438-4.17 0 0 1.06-1.132 4.56-1.132 3.5 0 4.563 1.13 4.563 1.13 1.348.754 2.44 2.615 2.44 4.172v.31h-14v-.31z" id="Rectangle-51"/><path d="M168.164 434.514c3.302-4.297 7.036-6.852 10.153-6.852 3.055 0 6.593 3.02 9.538 6.852 2.946 3.833 2.857 9.278 2.857 9.278h-24.79s-1.06-4.98 2.242-9.278z" id="Rectangle-49"/><path d="M185.524 437.875c1.202-2.312 2.526-4.908 6.962-4.908 4.437 0 6.538 3.214 7.527 5.412.988 2.198 1.347 5.412 1.347 5.412h-17.747s.71-3.604 1.91-5.917z" id="Rectangle-50"/></g><g fill="#fff"><path d="M727.47 583.077c0-1.55 1.063-3.47 2.438-4.17 0 0 1.06-1.132 4.56-1.132 3.5 0 4.563 1.13 4.563 1.13 1.348.754 2.44 2.615 2.44 4.172v.31h-14v-.31z"/><path d="M737.654 574.11c3.302-4.298 7.036-6.853 10.153-6.853 3.055 0 6.593 3.02 9.538 6.852 2.946 3.832 2.857 9.277 2.857 9.277h-24.79s-1.06-4.98 2.242-9.278z" id="Rectangle-49"/><path d="M755.014 577.47c1.202-2.312 2.526-4.908 6.962-4.908 4.437 0 6.538 3.214 7.527 5.412.988 2.2 1.347 5.413 1.347 5.413h-17.747s.71-3.604 1.91-5.917z" id="Rectangle-50"/></g><g id="Rectangle-51-+-Rectangle-49-+-Rectangle-57" fill="#fff"><path d="M411.132 477.098c11.12 0 11.12 14.423 11.12 14.423h-22.238s0-14.422 11.118-14.422z" id="Rectangle-49"/><path d="M417.597 486.23c1.078-2.067 2.266-4.39 6.246-4.39 3.98 0 5.865 2.875 6.75 4.84.888 1.967 1.21 4.84 1.21 4.84h-15.92s.637-3.222 1.714-5.29z" id="Rectangle-50"/></g><g fill="#fff"><path d="M49.18 227.598c11.12 0 11.12 14.423 11.12 14.423H38.063s0-14.422 11.118-14.422z"/><path d="M55.646 236.73c1.078-2.067 2.266-4.39 6.246-4.39 3.98 0 5.865 2.875 6.75 4.84.888 1.967 1.21 4.84 1.21 4.84H53.93s.637-3.222 1.714-5.29z"/></g></g></svg>