<?xml version="1.0" encoding="UTF-8" standalone="no"?>
<svg width="800px" height="600px" viewBox="0 0 800 600" version="1.1" xmlns="http://www.w3.org/2000/svg" xmlns:xlink="http://www.w3.org/1999/xlink" xmlns:sketch="http://www.bohemiancoding.com/sketch/ns">
    <!-- Generator: Sketch 3.2.2 (9983) - http://www.bohemiancoding.com/sketch -->
    <title>Artboard 17</title>
    <desc>Created with Sketch.</desc>
    <defs></defs>
    <g id="Teaser" stroke="none" stroke-width="1" fill="none" fill-rule="evenodd" sketch:type="MSPage">
        <g id="Artboard-17" sketch:type="MSArtboardGroup" fill="#FFFFFF">
            <g id="clouds-1" sketch:type="MSLayerGroup" transform="translate(10.000000, 14.000000)">
                <g id="Group" transform="translate(317.000000, 180.000000)" sketch:type="MSShapeGroup">
                    <g id="Rectangle-51-+-Rectangle-49-+-Rectangle-104" transform="translate(0.131227, 0.821878)">
                        <path d="M0.267708207,53.7417253 C0.267708207,48.5112753 3.85672236,42.037911 8.52229548,39.6568747 C8.52229548,39.6568747 12.0762698,35.8551244 23.8848299,35.8551244 C35.6933901,35.8551244 39.2608723,39.6630136 39.2608723,39.6630136 C43.8122937,42.2080214 47.5019498,48.518701 47.5019498,53.7417253 L47.5019498,54.7886321 L0.267708207,54.7886321 L0.267708207,53.7417253 Z" id="Rectangle-51"></path>
                        <path d="M34.6283964,23.4868212 C45.769563,8.98796729 58.3667512,0.368919997 68.8856608,0.368919997 C79.1927419,0.368919997 91.1288678,10.554829 101.066031,23.4868212 C111.003195,36.4188135 110.702696,54.7886321 110.702696,54.7886321 L27.068626,54.7886321 C27.068626,54.7886321 23.4872297,37.9856752 34.6283964,23.4868212 Z" id="Rectangle-49"></path>
                        <path d="M93.2013977,34.8261722 C97.2541484,27.0237633 101.721537,18.2650597 116.690135,18.2650597 C131.658733,18.2650597 138.748571,29.1087687 142.083548,36.526846 C145.418525,43.9449233 146.62733,54.7886321 146.62733,54.7886321 L86.7529393,54.7886321 C86.7529393,54.7886321 89.148647,42.628581 93.2013977,34.8261722 Z" id="Rectangle-50"></path>
                    </g>
                </g>
                <g id="Group-2" transform="translate(76.000000, 282.000000)" sketch:type="MSShapeGroup">
                    <g id="Rectangle-51-+-Rectangle-49-+-Rectangle-104" transform="translate(0.626761, 0.187225)">
                        <path d="M0.148324817,29.650607 C0.148324817,26.7648416 2.13683266,23.1933302 4.70684753,21.8864294 C4.70684753,21.8864294 6.69090622,19.7821376 13.2334868,19.7821376 C19.7760675,19.7821376 21.7601257,21.8864294 21.7601257,21.8864294 C24.277728,23.2887008 26.3186479,26.7689385 26.3186479,29.650607 L26.3186479,30.2282108 L0.148324817,30.2282108 L0.148324817,29.650607 Z" id="Rectangle-51"></path>
                        <path d="M19.1860034,12.9582462 C25.3588119,4.9588785 32.3383351,0.203542067 38.1663796,0.203542067 C43.8770597,0.203542067 50.4903186,5.82335393 55.9960443,12.9582462 C61.50177,20.0931385 61.3352773,30.2282108 61.3352773,30.2282108 L14.997482,30.2282108 C14.997482,30.2282108 13.0131949,20.9576139 19.1860034,12.9582462 Z" id="Rectangle-49"></path>
                        <path d="M51.6386122,19.2144398 C53.8840552,14.9096625 56.3592301,10.0772743 64.6526424,10.0772743 C72.9460547,10.0772743 76.8742084,16.0600103 78.721966,20.1527426 C80.5697236,24.2454749 81.2394667,30.2282108 81.2394667,30.2282108 L48.0658177,30.2282108 C48.0658177,30.2282108 49.3931693,23.5192171 51.6386122,19.2144398 Z" id="Rectangle-50"></path>
                    </g>
                </g>
                <g id="Rectangle-49-+-Rectangle-50-+-Rectangle-51-+-Rectangle-49-+-Rectangle-57" transform="translate(582.000000, 423.500000)" sketch:type="MSShapeGroup">
                    <g id="Rectangle-51-+-Rectangle-49-+-Rectangle-57">
                        <path d="M52.6928384,0.462826905 C105.319719,0.462826905 105.319719,68.7348293 105.319719,68.7348293 L0.0659578632,68.7348293 C0.0659578632,68.7348293 0.0659578632,0.462826905 52.6928384,0.462826905 Z" id="Rectangle-49"></path>
                        <path d="M83.294276,43.691016 C88.3946765,33.9025394 94.0169005,22.9143476 112.854932,22.9143476 C131.692963,22.9143476 140.615549,36.5182735 144.812629,45.8245886 C149.009709,55.1309037 150.530994,68.7348293 150.530994,68.7348293 L75.1788692,68.7348293 C75.1788692,68.7348293 78.1938755,53.4794925 83.294276,43.691016 Z" id="Rectangle-50"></path>
                    </g>
                </g>
                <g id="Rectangle-49-+-Rectangle-50-+-Rectangle-51-+-Rectangle-49-+-Rectangle-58" transform="translate(676.750000, 124.250000)" sketch:type="MSShapeGroup">
                    <g id="Rectangle-51-+-Rectangle-49-+-Rectangle-57">
                        <path d="M26.3464192,0.231413452 C52.6598595,0.231413452 52.6598595,34.3674147 52.6598595,34.3674147 L0.0329789316,34.3674147 C0.0329789316,34.3674147 0.0329789316,0.231413452 26.3464192,0.231413452 Z" id="Rectangle-49"></path>
                        <path d="M41.647138,21.845508 C44.1973383,16.9512697 47.0084503,11.4571738 56.4274659,11.4571738 C65.8464816,11.4571738 70.3077745,18.2591368 72.4063145,22.9122943 C74.5048545,27.5654519 75.2654968,34.3674147 75.2654968,34.3674147 L37.5894346,34.3674147 C37.5894346,34.3674147 39.0969378,26.7397463 41.647138,21.845508 Z" id="Rectangle-50"></path>
                    </g>
                </g>
                <g id="Rectangle-49-+-Rectangle-50-+-Rectangle-51-+-Rectangle-49-+-Rectangle-59" transform="translate(0.500000, 0.250000)" sketch:type="MSShapeGroup">
                    <g id="Rectangle-51-+-Rectangle-49-+-Rectangle-57">
                        <path d="M26.3464192,0.231413452 C52.6598595,0.231413452 52.6598595,34.3674147 52.6598595,34.3674147 L0.0329789316,34.3674147 C0.0329789316,34.3674147 0.0329789316,0.231413452 26.3464192,0.231413452 Z" id="Rectangle-49"></path>
                        <path d="M41.647138,21.845508 C44.1973383,16.9512697 47.0084503,11.4571738 56.4274659,11.4571738 C65.8464816,11.4571738 70.3077745,18.2591368 72.4063145,22.9122943 C74.5048545,27.5654519 75.2654968,34.3674147 75.2654968,34.3674147 L37.5894346,34.3674147 C37.5894346,34.3674147 39.0969378,26.7397463 41.647138,21.845508 Z" id="Rectangle-50"></path>
                    </g>
                </g>
                <g id="Rectangle-49-+-Rectangle-50-+-Rectangle-51-+-Rectangle-49-+-Rectangle-64" transform="translate(264.051724, 373.000000)" sketch:type="MSShapeGroup">
                    <g id="Rectangle-51-+-Rectangle-49-+-Rectangle-57" transform="translate(0.015793, 0.241973)">
                        <path d="M12.6165951,0.11081771 C25.2173975,0.11081771 25.2173975,16.4576352 25.2173975,16.4576352 L0.0157927278,16.4576352 C0.0157927278,16.4576352 0.0157927278,0.11081771 12.6165951,0.11081771 Z" id="Rectangle-49"></path>
                        <path d="M19.9436999,10.4612292 C21.1649225,8.11750944 22.5110889,5.48653392 27.0216034,5.48653392 C31.532118,5.48653392 33.6685117,8.74381197 34.6734464,10.9720846 C35.678381,13.2003572 36.0426323,16.4576352 36.0426323,16.4576352 L18.0005743,16.4576352 C18.0005743,16.4576352 18.7224772,12.8049489 19.9436999,10.4612292 Z" id="Rectangle-50"></path>
                    </g>
                </g>
            </g>
        </g>
    </g>
</svg>