<svg width="800" height="600" viewBox="0 0 800 600" xmlns="http://www.w3.org/2000/svg"><title>Artboard 17</title><desc>Created with Sketch.</desc><g fill="#fff"><g id="Rectangle-51-+-Rectangle-49-+-Rectangle-104"><path d="M611.706 107.91c0-2.256 1.547-5.046 3.558-6.073 0 0 1.532-1.638 6.622-1.638s6.634 1.643 6.634 1.643c1.958 1.095 3.546 3.8 3.546 6.066v.45h-20.36v-.45z" id="Rectangle-51"/><path d="M626.517 94.868c4.802-6.25 10.232-9.965 14.766-9.965 4.443 0 9.588 4.39 13.87 9.965 4.284 5.574 4.155 13.492 4.155 13.492h-36.05s-1.543-7.243 3.26-13.492z" id="Rectangle-49"/><path d="M651.764 99.755c1.747-3.363 3.672-7.138 10.124-7.138s9.508 4.674 10.946 7.87c1.437 3.2 1.958 7.873 1.958 7.873h-25.807s1.032-5.242 2.78-8.605z" id="Rectangle-50"/></g><g><path d="M479.724 421.99c0-3.105 2.13-6.95 4.902-8.364 0 0 2.11-2.258 9.124-2.258 7.013 0 9.124 2.258 9.124 2.258 2.707 1.514 4.902 5.263 4.902 8.365v.623h-28.052v-.622z"/><path d="M500.13 404.023c6.617-8.61 14.1-13.73 20.346-13.73 6.12 0 13.21 6.05 19.112 13.73 5.9 7.68 5.723 18.59 5.723 18.59h-49.67s-2.126-9.98 4.49-18.59z" id="Rectangle-49"/><path d="M534.917 410.757c2.407-4.634 5.06-9.835 13.95-9.835s13.1 6.44 15.08 10.845c1.98 4.406 2.7 10.846 2.7 10.846h-35.56s1.423-7.222 3.83-11.856z" id="Rectangle-50"/></g><g id="Rectangle-51-+-Rectangle-49-+-Rectangle-57"><path d="M72.987 533.923c19.642 0 19.642 25.482 19.642 25.482H53.344s0-25.482 19.642-25.482z" id="Rectangle-49"/><path d="M84.41 550.057c1.902-3.653 4-7.754 11.032-7.754 7.03 0 10.36 5.077 11.928 8.55 1.566 3.474 2.134 8.552 2.134 8.552H81.38s1.125-5.694 3.03-9.348z" id="Rectangle-50"/></g><g id="Rectangle-51-+-Rectangle-49-+-Rectangle-57"><path d="M195.407 137.122c33.355 0 33.355 43.27 33.355 43.27h-66.71s0-43.27 33.355-43.27z" id="Rectangle-49"/><path d="M214.802 164.52c3.233-6.203 6.796-13.168 18.736-13.168 11.94 0 17.595 8.622 20.255 14.52 2.66 5.9 3.624 14.52 3.624 14.52H209.66s1.91-9.668 5.142-15.872z" id="Rectangle-50"/></g><g><path d="M746.687 314.11c12.6 0 12.6 16.348 12.6 16.348h-25.2s0-16.347 12.6-16.347z"/><path d="M754.014 324.46c1.22-2.342 2.567-4.973 7.078-4.973 4.51 0 6.647 3.257 7.65 5.485 1.006 2.228 1.37 5.486 1.37 5.486h-18.04s.72-3.653 1.942-5.997z"/></g></g></svg>