<svg width="800" height="600" viewBox="0 0 800 600" xmlns="http://www.w3.org/2000/svg"><title>Artboard 17</title><desc>Created with Sketch.</desc><g fill="#fff"><g id="Rectangle-51-+-Rectangle-49-+-Rectangle-104"><path d="M327.4 248.564c0-5.23 3.588-11.704 8.253-14.085 0 0 3.554-3.803 15.363-3.803 11.808 0 15.376 3.808 15.376 3.808 4.55 2.545 8.24 8.856 8.24 14.08v1.046H327.4v-1.046z" id="Rectangle-51"/><path d="M361.76 218.31c11.14-14.5 23.738-23.12 34.257-23.12 10.307 0 22.243 10.187 32.18 23.12 9.937 12.93 9.637 31.3 9.637 31.3H354.2s-3.582-16.802 7.56-31.3z" id="Rectangle-49"/><path d="M420.332 229.648c4.053-7.802 8.52-16.56 23.49-16.56 14.968 0 22.058 10.843 25.393 18.26 3.335 7.42 4.543 18.263 4.543 18.263h-59.874s2.396-12.16 6.448-19.962z" id="Rectangle-50"/></g><g><path d="M86.775 325.838c0-2.886 1.99-6.458 4.56-7.765 0 0 1.983-2.104 8.525-2.104 6.543 0 8.527 2.103 8.527 2.103 2.518 1.403 4.56 4.883 4.56 7.765v.577H86.774v-.577z"/><path d="M105.813 309.145c6.173-8 13.152-12.754 18.98-12.754 5.71 0 12.324 5.62 17.83 12.755 5.506 7.135 5.34 17.27 5.34 17.27h-46.34s-1.983-9.27 4.19-17.27z" id="Rectangle-49"/><path d="M138.266 315.4c2.245-4.303 4.72-9.136 13.014-9.136 8.293 0 12.22 5.983 14.07 10.076 1.847 4.092 2.516 10.075 2.516 10.075h-33.173s1.327-6.71 3.573-11.014z" id="Rectangle-50"/></g><g id="Rectangle-51-+-Rectangle-49-+-Rectangle-57"><path d="M644.693 437.963c52.627 0 52.627 68.272 52.627 68.272H592.066s0-68.272 52.627-68.272z" id="Rectangle-49"/><path d="M675.294 481.19c5.1-9.787 10.723-20.776 29.56-20.776 18.84 0 27.762 13.604 31.96 22.91 4.196 9.307 5.717 22.91 5.717 22.91h-75.35s3.014-15.255 8.114-25.043z" id="Rectangle-50"/></g><g id="Rectangle-51-+-Rectangle-49-+-Rectangle-57"><path d="M713.096 138.48c26.314 0 26.314 34.137 26.314 34.137h-52.627s0-34.136 26.313-34.136z" id="Rectangle-49"/><path d="M728.397 160.096c2.55-4.895 5.36-10.39 14.78-10.39 9.42 0 13.88 6.803 15.98 11.456 2.098 4.653 2.858 11.455 2.858 11.455H724.34s1.507-7.627 4.057-12.52z" id="Rectangle-50"/></g><g id="Rectangle-51-+-Rectangle-49-+-Rectangle-57"><path d="M36.846 14.48c26.314 0 26.314 34.137 26.314 34.137H10.533s0-34.136 26.313-34.136z" id="Rectangle-49"/><path d="M52.147 36.096c2.55-4.895 5.36-10.39 14.78-10.39 9.42 0 13.88 6.803 15.98 11.456 2.098 4.653 2.858 11.455 2.858 11.455H48.09s1.507-7.627 4.057-12.52z" id="Rectangle-50"/></g><g><path d="M286.685 387.353c12.6 0 12.6 16.347 12.6 16.347h-25.2s0-16.347 12.6-16.347z"/><path d="M294.012 397.703c1.22-2.343 2.567-4.974 7.078-4.974 4.51 0 6.647 3.256 7.65 5.484 1.006 2.228 1.37 5.486 1.37 5.486h-18.04s.72-3.653 1.942-5.997z"/></g></g></svg>