<svg width="757" height="130" viewBox="0 0 757 130" xmlns="http://www.w3.org/2000/svg"><title>Group</title><desc>Created with Sketch.</desc><g fill="none"><path d="M338.252 46.408c16.97-21.46 35.678-45.55 98.36-45.55s92.37 29.825 106.336 50.228c13.966 20.402 19.028 50.227 19.028 50.227H311.248s10.033-33.445 27.004-54.905z" id="Rectangle-50" fill="#EEFAF5"/><path d="M623.682 86.89c19.488-19.13 41.522-30.502 59.922-30.502 18.028 0 38.906 13.44 56.288 30.503 17.38 17.065 16.856 41.303 16.856 41.303h-146.29s-6.263-22.17 13.224-41.302z" id="Rectangle-49" fill="#fff"/><path d="M699.612 29.086c74 11 55 99.107 55 99.107H609.5s16.112-110.107 90.112-99.107z" id="Rectangle-50" fill="#EEFAF5"/><path d="M253.08 71.504c22.627-22.214 48.212-35.418 69.576-35.418 20.933 0 45.175 15.605 65.358 35.418 20.182 19.812 19.572 47.956 19.572 47.956h-169.86s-7.274-25.743 15.354-47.956z" id="Rectangle-49" fill="#EEFAF5"/><path d="M184.98 68.356c11.572-17.81 24.33-37.805 67.073-37.805 42.744 0 62.99 24.754 72.513 41.688 9.523 16.934 12.975 41.687 12.975 41.687H166.566s6.84-27.758 18.414-45.57z" id="Rectangle-50" fill="#EEFAF5"/><path d="M108.165 75.934C124.04 60.35 141.99 51.086 156.98 51.086c14.685 0 31.693 10.948 45.852 24.848 14.16 13.9 13.732 33.645 13.732 33.645H97.394s-5.104-18.062 10.77-33.646z" id="Rectangle-49" fill="#fff"/><path d="M109.53 77.61c8.12-12.497 17.07-26.524 47.06-26.524 29.987 0 44.19 17.366 50.872 29.246 6.68 11.88 9.103 29.247 9.103 29.247H96.612s4.8-19.475 12.92-31.97z" id="Rectangle-50" fill="#EEFAF5"/><path d="M436.612 96.736c0-22.09 15.12-49.577 34.55-60.08 0 0 28.132-24.57 90.814-24.57 62.68 0 90.813 24.57 90.813 24.57 19.08 11.092 34.55 37.988 34.55 60.08v15.805H436.61V96.737z" id="Rectangle-51" fill="#EEFAF5"/><path d="M452.76 62.76c33.183-26.764 70.702-42.674 102.03-42.674 30.7 0 66.25 18.802 95.845 42.674 29.596 23.87 28.7 57.78 28.7 57.78h-249.09S419.58 89.524 452.76 62.76z" id="Rectangle-49" fill="#fff"/><g fill="#fff"><path d="M475 127.753c0-8.493 5.847-19.004 13.402-22.85 0 0 5.833-6.193 25.067-6.193 19.233 0 25.065 6.193 25.065 6.193 7.402 4.127 13.402 14.345 13.402 22.85v1.7H475v-1.7z" id="Rectangle-51"/><path d="M530.968 78.628c18.147-23.54 38.665-37.536 55.8-37.536 16.787 0 36.228 16.54 52.414 37.536 16.186 20.998 15.697 50.825 15.697 50.825H518.654s-5.834-27.283 12.313-50.825z" id="Rectangle-49"/><path d="M626.372 97.04c6.6-12.67 13.878-26.89 38.26-26.89 24.38 0 35.928 17.607 41.36 29.65 5.432 12.046 7.4 29.653 7.4 29.653H615.87s3.9-19.745 10.502-32.413z" id="Rectangle-50"/></g><g fill="#fff"><path d="M603.643 127.253c0-5.355 4.247-10.593 9.5-11.613 0 0 28.348-6.698 66.196-6.698 37.847 0 66.196 6.698 66.196 6.698 5.246 1.06 9.5 6.266 9.5 11.613v1.07H603.642v-1.07z" id="Rectangle-51"/><path d="M618.224 96.28c20.036-14.84 42.69-23.664 61.607-23.664 18.537 0 40.002 10.427 57.873 23.665 17.87 13.24 17.33 32.044 17.33 32.044H604.63s-6.44-17.2 13.594-32.043z" id="Rectangle-49"/><path d="M619.948 107.89c10.247-7.988 21.543-16.954 59.39-16.954 37.85 0 55.775 11.1 64.208 18.694 8.432 7.594 11.49 18.694 11.49 18.694H603.642s6.058-12.448 16.305-20.435z" id="Rectangle-50"/></g><g fill="#fff"><path d="M344.612 126.346c0-8.493 6.733-16.804 15.068-18.427 0 0 44.79-10.617 104.65-10.617 59.858 0 104.66 10.618 104.66 10.618 8.316 1.684 15.057 9.92 15.057 18.426v1.7H344.612v-1.7z"/><path d="M367.673 77.22c31.688-23.54 67.517-37.535 97.435-37.535 29.315 0 63.264 16.54 91.527 37.536 28.264 21 27.41 50.826 27.41 50.826H346.17s-10.186-27.283 21.5-50.825z" id="Rectangle-49"/><path d="M370.4 95.633c16.206-12.67 34.07-26.89 93.93-26.89 59.858 0 88.21 17.607 101.546 29.65 13.337 12.046 18.17 29.653 18.17 29.653H344.613s9.58-19.745 25.787-32.413z" id="Rectangle-50"/></g><g fill="#fff"><path d="M88.645 99.292c15.16-13.708 32.3-21.857 46.615-21.857 14.025 0 30.267 9.63 43.79 21.857 13.52 12.226 13.11 29.594 13.11 29.594H78.36S73.485 113 88.645 99.292z" id="Rectangle-49"/><path d="M89.95 110.013c7.753-7.377 16.3-15.658 44.937-15.658 28.638 0 42.202 10.252 48.583 17.265 6.38 7.014 8.693 17.266 8.693 17.266H77.613s4.582-11.497 12.336-18.873z" id="Rectangle-50"/></g><path d="M64.887 59.086c55.276 0 64.774 70.178 64.774 70.178H.957s8.656-70.178 63.93-70.178z" id="Rectangle-49" fill="#fff"/><g fill="#fff"><path d="M202.338 86.572c21.61-19.747 46.04-31.486 66.443-31.486 19.99 0 43.142 13.873 62.415 31.486 19.273 17.613 18.69 42.632 18.69 42.632h-162.21s-6.945-22.885 14.663-42.632z" id="Rectangle-49"/><path d="M204.197 88.694c11.05-15.834 23.234-33.608 64.053-33.608 40.82 0 60.152 22.005 69.247 37.06 9.094 15.053 12.39 37.058 12.39 37.058H186.612s6.533-24.676 17.585-40.51z" id="Rectangle-50"/></g><g fill="#fff"><path d="M306.165 75.935c15.875-15.585 33.825-24.85 48.814-24.85 14.685 0 31.693 10.95 45.852 24.85 14.16 13.9 13.732 33.645 13.732 33.645h-119.17s-5.104-18.06 10.77-33.645z"/><path d="M307.53 77.61c8.12-12.497 17.07-26.524 47.06-26.524 29.987 0 44.19 17.367 50.872 29.247 6.68 11.88 9.103 29.247 9.103 29.247H294.612s4.8-19.475 12.92-31.97z"/></g></g></svg>