<?xml version="1.0" encoding="UTF-8" standalone="no"?>
<svg width="1439px" height="446px" viewBox="0 0 1439 446" version="1.1" xmlns="http://www.w3.org/2000/svg" xmlns:xlink="http://www.w3.org/1999/xlink" xmlns:sketch="http://www.bohemiancoding.com/sketch/ns">
    <!-- Generator: Sketch 3.2.2 (9983) - http://www.bohemiancoding.com/sketch -->
    <title>City</title>
    <desc>Created with Sketch.</desc>
    <defs></defs>
    <g id="Page-1" stroke="none" stroke-width="1" fill="none" fill-rule="evenodd" sketch:type="MSPage">
        <g id="Artboard-4" sketch:type="MSArtboardGroup" transform="translate(-1.000000, -454.000000)">
            <g id="City" sketch:type="MSLayerGroup" transform="translate(1.000000, 454.000000)">
                <path d="M732.957542,495.585725 C1484.21926,495.585732 1465.45754,401.825296 1465.45754,286.165946 C1465.45754,197.245131 1308.62551,69.227337 1125.35598,12.590793 C942.086448,-44.045751 844.982504,114.691727 751.457542,114.691727 C680.344997,114.691727 590.102366,56.9992454 493.242698,75.450168 C419.297386,89.5361055 357.043479,165.340793 245.617698,114.69173 C134.191917,64.0426668 0.457541916,200.936107 0.457541916,286.165946 C0.457541916,401.825296 -18.3041768,495.585719 732.957542,495.585725 Z" id="Oval-1644" fill="#97D6AA" sketch:type="MSShapeGroup"></path>
                <path d="M1278.71875,242.007812 C1273.96529,368.554683 1436.99999,451.000014 1436.99999,451.000014 C1436.99999,451.000014 1462.5,312.365114 1462.5,291.817341 C1462.5,202.896525 1305.66797,74.8787315 1122.39844,18.2421875 C1040.12079,-7.18441665 1283.47221,115.460941 1278.71875,242.007812 Z" id="Oval-1648" fill="#92D1A6" sketch:type="MSShapeGroup"></path>
                <path d="M492.279297,215.020042 C535.310547,215.020042 705.836109,274.15352 765.851562,271.78125 C900.035156,266.477287 955.513672,221.039573 1015.61719,215.020042 C1075.7207,209.00051 1203.54297,274.532528 1203.54297,271.781253 C1203.54297,267.896685 1125.96094,217.227073 1030.80859,200.332542 C935.65625,183.43801 844.695312,265.923326 758.664062,251.574219 C672.632812,237.225112 537.791877,201.176778 474.642578,200.332542 C378.442582,199.046455 237.054688,242.854463 237.054688,246.855469 C237.054688,250.282566 355.273438,204.527344 492.279297,215.020042 Z" id="Oval-1645" fill="#8CCFA1" sketch:type="MSShapeGroup"></path>
                <path d="M638.714845,377.445312 C627.870104,335.47279 616.507812,333.894531 604.644531,310.429688 C592.78125,286.964844 623.272453,255.117188 643.578125,245.589844 C655.759259,239.874502 656.763773,224.347839 667.972656,211.695312 C675.448725,203.256367 686.62853,197.377988 696.367187,192.273438 C720.707031,179.515625 777.215701,161.113065 777.842255,159.246424 C784.160455,140.423132 767,113 767,113 L782,112 C782,112 817.730468,143.058594 812.025297,159.315316 C806.320125,175.572038 736.417968,200.832031 729.691406,219.644531 C722.964843,238.457031 734.366295,245.089844 719,270.070312 C703.633705,295.050781 703.633705,305.792969 719,319.515625 C734.366295,333.238281 769.108392,340.814191 776,367.300781 C782.891608,393.787371 759.464843,446 759.464843,446 L594.625,446 C594.625,446 649.559585,419.417835 638.714845,377.445312 Z" id="Rectangle-904" fill="#7AE0F1" sketch:type="MSShapeGroup"></path>
                <path d="M732.996095,374.8125 C742.367189,351.160156 698.554687,327.800781 688.066407,312.9375 C677.578126,298.074219 688.152343,264.492188 699.117187,249.4375 C710.082031,234.382812 702.763773,224.347839 713.972656,211.695312 C721.448725,203.256367 732.62853,197.377988 742.367187,192.273438 C766.707031,179.515625 803.215701,161.113065 803.842255,159.246424 C810.160455,140.423132 775,113 775,113 L780,112 C780,112 815.730468,143.058594 810.025297,159.315316 C804.320125,175.572038 734.417968,200.832031 727.691406,219.644531 C720.964843,238.457031 732.366295,245.089844 717,270.070312 C701.633705,295.050781 701.633705,305.792969 717,319.515625 C732.366295,333.238281 767.108392,340.814191 774,367.300781 C780.891608,393.787371 757.464843,446 757.464843,446 L680.625,446 C680.625,446 723.625001,398.464844 732.996095,374.8125 Z" id="Rectangle-905" fill="#78D9E8" sketch:type="MSShapeGroup"></path>
                <g id="Group" transform="translate(604.000000, 176.000000)" sketch:type="MSShapeGroup">
                    <path d="M14.2677221,58.2873174 C14.2677221,58.2873174 28.704538,0.00272407279 89.7970513,0.00272407277 C150.889565,0.00272407274 169.844595,71.1367796 169.844595,71.1367796 L160.486639,71.1367796 C160.486639,71.1367796 141.346419,7.76483958 89.7970513,7.76483958 C38.2476841,7.76483958 14.2677221,68.1243839 14.2677221,68.1243839 L14.2677221,58.2873174 Z" id="Rectangle-954" fill="#B18D72"></path>
                    <g id="Group-2" transform="translate(7.526348, 7.352352)">
                        <g id="Rectangle-918-+-Rectangle-914">
                            <path d="M124.143677,58.8188162 L99.9308943,58.8188157 L94.9662484,66.7109079 L86.6353255,58.8188157 L67.6900955,58.8188163 L67.6900955,58.8188163 L67.2690422,58.8188163 L67.2690422,34.5874307 C67.2690422,34.5874307 67.2690422,20.814168 79.2099166,20.814168 C91.1507911,20.814168 91.1507908,34.5874307 91.1507908,34.5874307 L91.1507908,58.8188163 L67.6900955,58.8188163 L62.3530522,66.7109079 L53.8535705,58.8188163 L34.7701614,58.8188163 L28.8098423,66.7109079 L5.14300471,58.8188158 C5.14300471,58.8188158 15.6798924,0.0108938395 77.6262474,0.0108938394 C139.572602,0.0108938392 156.697985,59.9022583 156.697985,59.9022583 L152.791732,66.7109087 L148.288663,66.7109079 L131.860055,58.8188163 L124.143677,58.8188162 L124.143677,34.5874307 C124.143677,34.5874307 124.143677,20.814168 112.202803,20.814168 C100.261929,20.814168 100.261929,34.5874307 100.261929,34.5874307 L100.261929,58.8188163 L124.143677,58.8188163 Z M34.2761558,34.5874307 C34.2761558,34.5874307 34.2761558,20.814168 46.2170302,20.814168 C58.1579047,20.814168 58.1579044,34.5874307 58.1579044,34.5874307 L58.1579044,58.8188163 L34.2761558,58.8188163 L34.2761558,34.5874307 Z" id="Rectangle-918" fill="#C7AF9A"></path>
                            <path d="M0.125439139,66.4246972 C0.125439139,66.4246972 9.30601615,7.68395575 74.6598077,7.68395575 C140.013599,7.68395575 148.259263,66.424697 148.259263,66.424697 L126.84249,66.4246978 L22.4771258,66.4246978 L0.125439139,66.4246972 Z M29.2585902,42.1933121 C29.2585902,42.1933121 29.2585902,28.4200494 41.1994647,28.4200494 C53.1403391,28.4200494 53.1403388,42.1933121 53.1403388,42.1933121 L53.1403388,66.4246978 L29.2585902,66.4246978 L29.2585902,42.1933121 Z M62.2514766,42.1933121 C62.2514766,42.1933121 62.2514766,28.4200494 74.1923511,28.4200494 C86.1332255,28.4200494 86.1332252,42.1933121 86.1332252,42.1933121 L86.1332252,66.4246978 L62.2514766,66.4246978 L62.2514766,42.1933121 Z M95.244363,42.1933121 C95.244363,42.1933121 95.244363,28.4200494 107.185237,28.4200494 C119.126112,28.4200494 119.126112,42.1933121 119.126112,42.1933121 L119.126112,66.4246978 L95.244363,66.4246978 L95.244363,42.1933121 Z" id="Rectangle-914" fill="#AF9177"></path>
                        </g>
                        <path d="M29.0928004,40.9775421 C29.0928004,40.9775421 29.0928004,26.705737 42.1696008,26.705737 C55.2464012,26.705737 55.2464009,40.9775421 55.2464009,40.9775421 L55.2464009,66.0860164 L29.0928004,66.0860164 L29.0928004,40.9775421 Z" id="Rectangle-920" stroke="#BEA691" stroke-width="6"></path>
                        <path d="M27.838409,41.4846008 C27.838409,41.4846008 27.838409,27.2127957 40.9152094,27.2127957 C53.9920098,27.2127957 53.9920095,41.4846008 53.9920095,41.4846008 L53.9920095,66.5930751 L27.838409,66.5930751 L27.838409,41.4846008 Z" id="Rectangle-919" stroke="#D4B8A1" stroke-width="6"></path>
                        <path d="M61.9578549,40.9775421 C61.9578549,40.9775421 61.9578549,26.705737 75.0346553,26.705737 C88.1114557,26.705737 88.1114554,40.9775421 88.1114554,40.9775421 L88.1114554,66.0860164 L61.9578549,66.0860164 L61.9578549,40.9775421 Z" id="Rectangle-922" stroke="#BEA691" stroke-width="6"></path>
                        <path d="M60.7034635,41.4846008 C60.7034635,41.4846008 60.7034635,27.2127957 73.7802639,27.2127957 C86.8570643,27.2127957 86.857064,41.4846008 86.857064,41.4846008 L86.857064,66.5930751 L60.7034635,66.5930751 L60.7034635,41.4846008 Z" id="Rectangle-921" stroke="#D4B8A1" stroke-width="6"></path>
                        <path d="M94.5720311,40.9775421 C94.5720311,40.9775421 94.5720311,26.705737 107.648832,26.705737 C120.725632,26.705737 120.725632,40.9775421 120.725632,40.9775421 L120.725632,66.0860164 L94.5720311,66.0860164 L94.5720311,40.9775421 Z" id="Rectangle-924" stroke="#BEA691" stroke-width="6"></path>
                        <path d="M93.3176398,41.4846008 C93.3176398,41.4846008 93.3176398,27.2127957 106.39444,27.2127957 C119.471241,27.2127957 119.47124,41.4846008 119.47124,41.4846008 L119.47124,66.5930751 L93.3176398,66.5930751 L93.3176398,41.4846008 Z" id="Rectangle-923" stroke="#D4B8A1" stroke-width="6"></path>
                    </g>
                    <path d="M1.79142771,74.2841118 C1.79142771,74.2841118 22.4701581,7.53358594 83.5424668,7.53358594 C95.0319079,10.5105755 126.81211,9.64699101 79.9253116,17.0518316 C33.0385133,24.4566721 7.6517875,74.2841095 7.6517875,74.2841095 L1.79142771,74.2841118 Z" id="Rectangle-948" opacity="0.485074627" fill="#967863"></path>
                    <path d="M0.0352797579,74.2841118 C0.0352797579,74.2841118 20.7709575,8.60910511 81.7863188,7.53358594 C142.80168,6.45806677 163.713757,74.2841118 163.713757,74.2841118 L155.795411,74.2841086 C155.795411,74.2841086 132.298112,15.1394674 81.7863188,15.1394674 C31.2745254,15.1394674 7.77722664,74.2841086 7.77722664,74.2841086 L0.0352797579,74.2841118 Z" id="Rectangle-949" fill="#9C7B63"></path>
                    <g id="Oval-1647-+-Oval-1658" transform="translate(12.293036, 54.508817)">
                        <ellipse id="Oval-1647" fill="#7B6656" cx="1.25439139" cy="1.2676469" rx="1.00351311" ry="1.01411752"></ellipse>
                        <ellipse id="Oval-1646" fill="#BF997E" cx="1.00351311" cy="1.01411752" rx="1.00351311" ry="1.01411752"></ellipse>
                    </g>
                    <g id="Oval-1647-+-Oval-1659" transform="translate(20.822897, 42.339407)">
                        <ellipse id="Oval-1647" fill="#7B6656" cx="1.25439139" cy="1.2676469" rx="1.00351311" ry="1.01411752"></ellipse>
                        <ellipse id="Oval-1646" fill="#BF997E" cx="1.00351311" cy="1.01411752" rx="1.00351311" ry="1.01411752"></ellipse>
                    </g>
                    <g id="Oval-1647-+-Oval-1660" transform="translate(29.854515, 32.198231)">
                        <ellipse id="Oval-1647" fill="#7B6656" cx="1.25439139" cy="1.2676469" rx="1.00351311" ry="1.01411752"></ellipse>
                        <ellipse id="Oval-1646" fill="#BF997E" cx="1.00351311" cy="1.01411752" rx="1.00351311" ry="1.01411752"></ellipse>
                    </g>
                    <g id="Oval-1647-+-Oval-1661" transform="translate(42.147551, 22.817644)">
                        <ellipse id="Oval-1647" fill="#7B6656" cx="1.25439139" cy="1.2676469" rx="1.00351311" ry="1.01411752"></ellipse>
                        <ellipse id="Oval-1646" fill="#BF997E" cx="1.00351311" cy="1.01411752" rx="1.00351311" ry="1.01411752"></ellipse>
                    </g>
                    <g id="Oval-1647-+-Oval-1662" transform="translate(57.200248, 14.451175)">
                        <ellipse id="Oval-1647" fill="#7B6656" cx="1.25439139" cy="1.2676469" rx="1.00351311" ry="1.01411752"></ellipse>
                        <ellipse id="Oval-1646" fill="#BF997E" cx="1.00351311" cy="1.01411752" rx="1.00351311" ry="1.01411752"></ellipse>
                    </g>
                    <g id="Oval-1647-+-Oval-1663" transform="translate(74.761727, 10.141175)">
                        <ellipse id="Oval-1647" fill="#7B6656" cx="1.25439139" cy="1.2676469" rx="1.00351311" ry="1.01411752"></ellipse>
                        <ellipse id="Oval-1646" fill="#BF997E" cx="1.00351311" cy="1.01411752" rx="1.00351311" ry="1.01411752"></ellipse>
                    </g>
                    <path d="M103.714648,14.4303773 C110.501102,16.5873576 105.019999,11.2087716 105.019999,11.2087716 C147.303769,25.5579403 162.563245,73.269991 162.563245,73.269991 C162.563245,73.269991 162.149687,71.3011769 159.052909,73.0600369 C155.95613,74.818897 154.706148,70.2315998 154.706148,70.2315998 C154.706148,70.2315998 133.758792,17.8540143 83.6189062,14.4303773 C83.6189065,13.9233185 96.9281949,12.273397 103.714648,14.4303773 Z" id="Rectangle-950" opacity="0.941289646" fill="#906F58"></path>
                    <g id="Oval-1647-+-Oval-1664" transform="translate(92.323207, 10.901763)">
                        <ellipse id="Oval-1647" fill="#7B6656" cx="1.25439139" cy="1.2676469" rx="1.00351311" ry="1.01411752"></ellipse>
                        <ellipse id="Oval-1646" fill="#BF997E" cx="1.00351311" cy="1.01411752" rx="1.00351311" ry="1.01411752"></ellipse>
                    </g>
                    <g id="Oval-1647-+-Oval-1665" transform="translate(107.375903, 15.465292)">
                        <ellipse id="Oval-1647" fill="#7B6656" cx="1.25439139" cy="1.2676469" rx="1.00351311" ry="1.01411752"></ellipse>
                        <ellipse id="Oval-1646" fill="#BF997E" cx="1.00351311" cy="1.01411752" rx="1.00351311" ry="1.01411752"></ellipse>
                    </g>
                    <g id="Oval-1647-+-Oval-1666" transform="translate(120.421574, 22.817644)">
                        <ellipse id="Oval-1647" fill="#7B6656" cx="1.25439139" cy="1.2676469" rx="1.00351311" ry="1.01411752"></ellipse>
                        <ellipse id="Oval-1646" fill="#BF997E" cx="1.00351311" cy="1.01411752" rx="1.00351311" ry="1.01411752"></ellipse>
                    </g>
                    <g id="Oval-1647-+-Oval-1667" transform="translate(130.456705, 30.930584)">
                        <ellipse id="Oval-1647" fill="#7B6656" cx="1.25439139" cy="1.2676469" rx="1.00351311" ry="1.01411752"></ellipse>
                        <ellipse id="Oval-1646" fill="#BF997E" cx="1.00351311" cy="1.01411752" rx="1.00351311" ry="1.01411752"></ellipse>
                    </g>
                    <g id="Oval-1647-+-Oval-1668" transform="translate(140.491836, 41.832348)">
                        <ellipse id="Oval-1647" fill="#7B6656" cx="1.25439139" cy="1.2676469" rx="1.00351311" ry="1.01411752"></ellipse>
                        <ellipse id="Oval-1646" fill="#BF997E" cx="1.00351311" cy="1.01411752" rx="1.00351311" ry="1.01411752"></ellipse>
                    </g>
                    <g id="Oval-1647-+-Oval-1669" transform="translate(148.018184, 52.480582)">
                        <ellipse id="Oval-1647" fill="#7B6656" cx="1.25439139" cy="1.2676469" rx="1.00351311" ry="1.01411752"></ellipse>
                        <ellipse id="Oval-1646" fill="#BF997E" cx="1.00351311" cy="1.01411752" rx="1.00351311" ry="1.01411752"></ellipse>
                    </g>
                    <path d="M42.6493074,65.917639 L59.9599086,65.917639 L60.2107869,78.8476374 L32.2437388,78.8476374 L42.6493074,65.917639 Z" id="Rectangle-951" opacity="0.700618004" fill="#7AE0F0"></path>
                    <path d="M75.5143619,65.917639 L92.8249631,65.917639 L93.0758414,78.8476374 L65.1087932,78.8476374 L75.5143619,65.917639 Z" id="Rectangle-952" opacity="0.700618004" fill="#7AE0F0"></path>
                    <path d="M107.87766,65.917639 L125.188261,65.917639 L125.439139,78.8476374 L97.4720912,78.8476374 L107.87766,65.917639 Z" id="Rectangle-953" opacity="0.700618004" fill="#78D9E8"></path>
                </g>
                <path d="M730,300.697264 C797.851562,295.605467 765.855469,256.77015 765.855469,253 C765.855469,252.050267 731.191406,253 731.191406,253 C731.191406,253 757.029297,277.525391 742.574219,279.988282 C728.119141,282.451172 709.263744,253.501036 708.626953,253 C707.990162,252.498965 700.679687,253 700.679687,253 C700.679687,253 728.167892,281.451172 708.361328,281.451172 C695.458984,281.451172 678,253 678,253 L668.078125,253 C668.078125,253 689.568359,277.426551 678.707031,279.988282 C667.845703,282.550012 640.714844,253 640.714844,253 C640.714844,253 610.1875,251.412644 610.1875,253 C610.1875,255.027812 662.148437,305.789061 730,300.697264 Z" id="Oval-2129" fill-opacity="0.05" fill="#000000" sketch:type="MSShapeGroup"></path>
            </g>
        </g>
    </g>
</svg>