<svg width="134px" height="51px" viewBox="0 0 134 51" version="1.1" xmlns="http://www.w3.org/2000/svg" xmlns:xlink="http://www.w3.org/1999/xlink" xmlns:sketch="http://www.bohemiancoding.com/sketch/ns">
    <!-- Generator: Sketch 3.2.2 (9983) - http://www.bohemiancoding.com/sketch -->
    <title>Rectangle 54 + Rectangle 52 + Rectangle 58</title>
    <desc>Created with Sketch.</desc>
    <defs></defs>
    <g id="Page-1" stroke="none" stroke-width="1" fill="none" fill-rule="evenodd" sketch:type="MSPage">
        <g id="Artboard-4" sketch:type="MSArtboardGroup" transform="translate(-666.000000, -110.000000)" fill="#FFFFFF">
            <g id="Rectangle-54-+-Rectangle-52-+-Rectangle-58" sketch:type="MSLayerGroup" transform="translate(666.594891, 109.406689)">
                <path d="M0.355941191,50.5452291 C0.355941191,45.6916815 3.67462624,39.6437188 7.973536,37.4070236 C7.973536,37.4070236 11.0425941,33.9475233 21.7292458,33.9475233 C32.4158975,33.9475233 35.4849549,37.4070236 35.4849549,37.4070236 C39.6920358,39.8095065 43.1025488,45.6985721 43.1025488,50.5452291 L43.1025488,51.5166966 L0.355941191,51.5166966 L0.355941191,50.5452291 Z" id="Rectangle-54" sketch:type="MSShapeGroup"></path>
                <path d="M31.4520868,22.4704709 C41.5347527,9.01639354 52.9351064,1.01842838 62.4546347,1.01842838 C71.78246,1.01842838 82.5845576,10.4703484 91.5776103,22.4704709 C100.570663,34.4705934 100.298714,51.5166966 100.298714,51.5166966 L24.6105556,51.5166966 C24.6105556,51.5166966 21.3694209,35.9245482 31.4520868,22.4704709 Z" id="Rectangle-52" sketch:type="MSShapeGroup"></path>
                <path d="M84.4601805,32.9927166 C88.1278871,25.7525435 92.170838,17.6249855 105.717298,17.6249855 C119.263759,17.6249855 125.680005,27.6873051 128.698133,34.5708412 C131.71626,41.4543773 132.810218,51.5166966 132.810218,51.5166966 L78.6243777,51.5166966 C78.6243777,51.5166966 80.7924738,40.2328897 84.4601805,32.9927166 Z" id="Rectangle-53" sketch:type="MSShapeGroup"></path>
            </g>
        </g>
    </g>
</svg>
