<?xml version="1.0" encoding="UTF-8" standalone="no"?>
<svg width="100px" height="185px" viewBox="0 0 100 185" version="1.1" xmlns="http://www.w3.org/2000/svg" xmlns:xlink="http://www.w3.org/1999/xlink" xmlns:sketch="http://www.bohemiancoding.com/sketch/ns">
    <!-- Generator: Sketch 3.2.2 (9983) - http://www.bohemiancoding.com/sketch -->
    <title>Gandalf</title>
    <desc>Created with Sketch.</desc>
    <defs>
        <radialGradient cx="50%" cy="10.3293679%" fx="50%" fy="10.3293679%" r="63.8227983%" id="radialGradient-1">
            <stop stop-color="#FBCBCB" offset="0%"></stop>
            <stop stop-color="#DD2F2F" offset="100%"></stop>
        </radialGradient>
    </defs>
    <g id="Page-1" stroke="none" stroke-width="1" fill="none" fill-rule="evenodd" sketch:type="MSPage">
        <g id="Artboard-4" sketch:type="MSArtboardGroup" transform="translate(-1334.000000, -342.000000)">
            <g id="Gandalf" sketch:type="MSLayerGroup" transform="translate(1334.000000, 342.000000)">
                <path d="M59.6735606,156.695312 C55.3491462,154.968491 26.4179689,141.789376 26.4179689,141.789376 C26.4179689,141.789376 58.8124334,184.281251 46.7734052,169.488282 C34.734377,154.695313 11.033831,136.230321 8.89062454,134.023437 C-1.1437808,123.6909 49.2489541,149.521927 38.7343764,122.160156 C26.2002694,89.5430253 88.8954642,152.028358 98.273437,177.488281 C105.999997,198.464841 80.6283115,165.062946 59.6735606,156.695312 Z" id="Rectangle-96" fill="#66A57A" sketch:type="MSShapeGroup"></path>
                <g id="Group" sketch:type="MSShapeGroup">
                    <ellipse id="Oval-2167" fill-opacity="0.2" fill="url(#radialGradient-1)" cx="10.86" cy="47.2341772" rx="10" ry="11.5"></ellipse>
                    <path d="M35.5624019,125.919533 C40.6656748,126.039494 46.3614526,128.834132 46.3614526,128.834132 C46.3614526,128.834132 47.2139935,132.284071 43.3645539,133.406086 C39.5151143,134.5281 35.2305321,134.092695 31.9837401,133.024871 C28.736948,131.957047 27.8736387,130.473873 28.1624725,128.406335 C28.4513063,126.338797 30.4591289,125.799572 35.5624019,125.919533 L35.5624019,125.919533 Z" id="Rectangle-1260" fill="#B09978"></path>
                    <path d="M35.5624019,126.666882 C40.6656748,126.78839 46.3614526,129.619089 46.3614526,129.619089 C46.3614526,129.619089 47.2139935,133.113543 43.3645539,134.250035 C39.5151143,135.386527 35.2305321,134.945504 31.9837401,133.863902 C28.736948,132.782299 27.8736387,131.279988 28.1624725,129.185772 C28.4513063,127.091556 30.4591289,126.545373 35.5624019,126.666882 L35.5624019,126.666882 Z" id="Rectangle-1261" fill="#C3A77F"></path>
                    <path d="M48.4624019,123.157204 C53.5656748,123.278713 59.2614526,126.109411 59.2614526,126.109411 C59.2614526,126.109411 60.1139935,129.603866 56.2645539,130.740358 C52.4151143,131.876849 48.1305321,131.435827 44.8837401,130.354224 C41.636948,129.272622 40.7736387,127.77031 41.0624725,125.676094 C41.3513063,123.581878 43.3591289,123.035696 48.4624019,123.157204 L48.4624019,123.157204 Z" id="Rectangle-1262" fill="#B09978"></path>
                    <path d="M48.4624019,122.279785 C53.5656748,122.401294 59.2614526,125.231992 59.2614526,125.231992 C59.2614526,125.231992 60.1139935,128.726447 56.2645539,129.862938 C52.4151143,130.99943 48.1305321,130.558408 44.8837401,129.476805 C41.636948,128.395202 40.7736387,126.892891 41.0624725,124.798675 C41.3513063,122.704459 43.3591289,122.158276 48.4624019,122.279785 L48.4624019,122.279785 Z" id="Rectangle-1263" fill="#C3A77F"></path>
                    <path d="M49.16,92.0868875 L59.48,92.0868875 L59.48,123.074229 C59.48,123.074229 58.0959327,125.240354 55.3933203,125.656508 C52.690708,126.072661 50.88,124.795748 50.88,124.795748 L49.16,92.0868875 Z" id="Rectangle-1264" fill="#D8D8D8"></path>
                    <path d="M56.6187854,113.675024 C56.3946121,106.478978 53.3662656,92.0868875 53.3662656,92.0868875 L59.48,92.0868875 L59.48,123.074229 C59.48,123.074229 58.6600562,125.240354 57.0589851,125.656508 C55.4579139,126.072661 54.3852213,124.795748 54.3852213,124.795748 C54.3852213,124.795748 56.734264,117.381932 56.6187854,113.675024 Z" id="Rectangle-1265" fill="#D1D1D1"></path>
                    <path d="M36.26,97.2514445 L47.44,94.669166 L46.58,126.517267 C46.58,126.517267 44.3359327,129.544152 41.6333203,129.960305 C38.930708,130.376459 37.12,129.099546 37.12,129.099546 L36.26,97.2514445 Z" id="Rectangle-1266" fill="#D8D8D8"></path>
                    <path d="M47.44,94.669166 L46.58,126.517267 C46.58,126.517267 44.3359327,129.544152 41.6333203,129.960305 C38.930708,130.376459 47.44,94.669166 47.44,94.669166 Z" id="Rectangle-1267" fill="#CFCFCF"></path>
                    <g id="Rectangle-1242" transform="translate(10.460000, 51.631191) rotate(-2.000000) translate(-10.460000, -51.631191) translate(4.440000, 43.884356)">
                        <path d="M10.9845801,1.48419719 L11.9279337,7.41124922 L4.27979622,15.2918414 L0.313384919,5.07759425 L3.7254871,0.0256628284 L10.9845801,1.48419719 Z" id="Rectangle-1238" fill="#DD7373"></path>
                        <path d="M10.9845801,1.48419719 L11.9279337,7.41124922 L0.313384919,5.07759425 L3.7254871,0.0256628284 L10.9845801,1.48419719 Z" id="Rectangle-1239" fill="#ED8181"></path>
                        <path d="M10.9845801,1.48419719 L11.9279337,7.41124922 L10.1380777,7.4068435 L6.44412109,1.48419719 L10.9845801,1.48419719 Z" id="Rectangle-1240" fill="#E67A7A"></path>
                    </g>
                    <path d="M5.5634228,122.104553 L5.70106463,107.703611 L8.25640859,94.4981365 L7.6379362,85.5259613 L9.02480181,69.4251041 L6.35061357,62.5241565 L5.93972172,50.8735484 L9.09169614,56.5930337 L11.1598797,51.583326 L11.9261384,56.989079 L15.7267924,51.4023991 L14.7985509,61.3176348 L11.3558252,63.9546657 L10.1451968,85.7090616 L11.0603346,94.1672122 L8.92809659,107.121638 L7.55223228,122.103762 L8.7518019,130.403114 L7.23004291,131.199166 L5.5634228,122.104553 L5.5634228,122.104553 Z" id="Rectangle-1243" fill="#BFA88D"></path>
                    <path d="M9.46099725,76.8319398 C11.1537845,77.7119284 11.6800711,76.6752116 12.7582188,74.5163682 C13.8363666,72.3575247 15.0581028,69.8940647 13.3653155,69.0140761 C11.6725283,68.1340876 9.61750545,67.0657924 7.48809395,71.3296478 C5.35868246,75.5935032 7.76821,75.9519513 9.46099725,76.8319398 L9.46099725,76.8319398 Z" id="Oval-2152" fill="#EFDDB2"></path>
                    <path d="M11.1226367,71.9657937 C12.7981251,69.661749 14.4845313,70.5334362 14.4845313,70.5334362 L21.8944727,76.0132127 L34.8347846,73.4216878 L34.8347846,82.194878 L21.8944727,82.194878 L11.1226367,75.5012961 C11.1226367,75.5012961 9.44714838,74.2698384 11.1226367,71.9657937 Z" id="Rectangle-1244" fill="#D7D7D7"></path>
                    <path d="M11.1226367,74.5480722 L21.8944729,79.8925149 L34.8347846,78.1709962 L34.8347846,82.194878 L21.8944727,82.194878 L11.1226367,75.5012961 L11.1226367,74.5480722 Z" id="Rectangle-1268" fill="#CCCCCC"></path>
                    <path d="M33.68,64.5425837 C37.4797191,64.5425837 40.56,59.3400191 40.56,52.9223305 C40.56,46.5046419 37.4797191,41.3020774 33.68,41.3020774 C31.4717191,41.3020774 28.5821484,47.0617688 28.5821484,47.0617688 C28.5821484,47.0617688 26.3291622,51.2279717 26.0802539,52.5087625 C25.85847,53.6499809 28.5821484,54.3692266 28.5821484,55.6357403 C28.5821484,62.053429 29.8802809,64.5425837 33.68,64.5425837 Z" id="Oval-2153" fill="#EFDDB2"></path>
                    <path d="M29.2997316,54.7031765 C29.2997316,54.7031765 26.2156149,51.8122444 26.0802539,52.5087625 C25.9759515,53.0454643 28.5821484,55.6357403 28.5821484,55.6357403 C28.5821484,55.6357403 29.2997316,54.7031765 29.2997316,54.7031765 Z" id="Oval-2160" fill="#DDCCA1"></path>
                    <path d="M28.4746485,60.7313693 C29.7794074,56.1796093 34.8360609,56.6179457 34.2107814,52.6298068 C33.585502,48.6416679 26.950612,42.351128 28.4746484,42.351128 C33.5439453,42.351128 44,46.4666343 44,46.4666343 C44,46.4666343 52.843459,42.7718001 55.7779697,46.4666343 C58.7124805,50.1614686 57.6088291,64.0550441 57.6088291,64.0550441 L44,66.2641027 C44,66.2641027 36.3852072,78.371815 34.2107818,77.1446407 C32.0363563,75.9174663 27.1698895,65.2831293 28.4746485,60.7313693 Z" id="Rectangle-1269" fill="#FFFFFF"></path>
                    <path d="M38.3554098,52.1463824 C47.185228,56.3471926 56.2781698,54.1528496 57.4678506,49.6831887 C58.6575313,45.2135278 54.8065138,38.6750238 45.1210653,34.0671451 C35.4356169,29.4592664 26.1195038,28.9280995 24.3129443,32.8807506 C22.5063848,36.8334017 28.6699614,47.5385036 38.3554098,52.1463824 L38.3554098,52.1463824 Z" id="Oval-2161" fill="#E6E6E6"></path>
                    <path d="M36.8270718,49.4548876 C46.5125202,54.0627663 56.7204962,52.6425873 58.5270557,48.6899362 C60.3336152,44.737285 53.9465138,37.7976045 44.2610653,33.1897258 C34.5756169,28.5818471 25.2595038,28.0506801 23.4529443,32.0033312 C21.6463848,35.9559824 27.1416234,44.8470089 36.8270718,49.4548876 L36.8270718,49.4548876 Z" id="Oval-2162" fill="#D8D8D8"></path>
                    <path d="M48.4513969,43.8964138 C46.7917108,47.9040428 32.1300095,47.2202473 36.8270718,49.4548876 C46.5125202,54.0627663 56.7204962,52.6425873 58.5270557,48.6899362 C60.3336152,44.737285 53.9465138,37.7976045 44.2610653,33.1897258 C39.2726793,30.8164874 50.214021,39.6402215 48.4513969,43.8964138 L48.4513969,43.8964138 Z" id="Oval-2163" fill="#D3D3D3"></path>
                    <path d="M42.421633,45.5548518 C47.8148133,48.1206722 57.11584,49.3316134 57.11584,49.3316134 C57.11584,49.3316134 54.587559,45.6584368 51.8080277,42.6078738 C49.0284964,39.5573107 48.9583465,38.6516685 46.1807102,37.3302005 C39.7237446,34.2582813 36.9530026,33.90417 35.7486295,36.5392708 C34.5442565,39.1743715 35.9646674,42.4829327 42.421633,45.5548518 L42.421633,45.5548518 Z" id="Oval-2164" fill="#C5C5C5"></path>
                    <path d="M57.7180079,3.93908497 C71.6486007,0.77059497 71.4410542,0.50993946 71.4410542,0.50993946 C71.4410542,0.50993946 67.8294215,5.12636791 57.9699611,14.4570972 C52.2043315,19.9135347 50.3878747,37.0273147 50.3878747,37.0273147 C50.3878747,37.0273147 41.9527892,38.3117146 38.8433589,36.2844629 C35.7339285,34.2572113 31.5941744,29.5060557 33.9504295,26.3106129 C36.3066846,23.11517 43.7874151,7.10757497 57.7180079,3.93908497 L57.7180079,3.93908497 Z" id="Rectangle-1270" fill="#CDCDCD"></path>
                    <path d="M46.1766839,30.450588 C49.6986806,25.6315802 50.0759309,17.2691554 54.4190425,12.8288661 C63.173734,3.87828716 67.1410542,4.28771724 67.1410542,4.28771724 C67.1410542,4.28771724 62.3586081,8.36511396 59.7450241,10.6617005 C57.7875802,12.3817291 58.2464416,11.9148088 56.2812439,14.4849166 C51.6921092,20.4866388 49.5278747,36.0828702 49.5278747,36.0828702 C49.5278747,36.0828702 46.9629059,37.1424256 44.2054071,36.8392436 C42.2241094,36.6214035 40.1434162,35.2431709 38.8433589,34.3955741 C38.1274544,33.9288267 42.9997855,34.7974115 46.1766839,30.450588 L46.1766839,30.450588 Z" id="Rectangle-1271" fill="#C2C2C2"></path>
                    <path d="M33.1408203,94.5795676 C36.0183758,79.5220936 32.8497619,67.0419706 34.2331519,63.1474688 C37.1754637,54.8643105 54.7933668,52.8760983 54.7933668,52.8760983 C54.7933668,52.8760983 54.4778215,50.0814716 60.5202597,67.0920661 C66.5626979,84.1026606 86.7267457,109.012942 86.7267457,109.012942 C86.7267457,109.012942 70.868816,104.551811 63.8561207,109.012942 C56.8434254,113.474072 56.7924602,126.646997 47.8814527,128.178527 C27.9897535,131.597302 22.8599879,122.660177 22.8599879,122.660177 C22.8599879,122.660177 30.2632648,109.637042 33.1408203,94.5795676 Z" id="Rectangle-1272" fill="#C7C7C7"></path>
                    <path d="M33.9050781,93.6249653 C36.3695743,79.4574142 34.5022071,65.2898641 34.5022071,65.2898641 C34.5022071,65.2898641 42.2967969,86.19873 37.4441797,96.7075873 C32.5915625,107.216445 30.3181911,112.150139 30.4332145,120.12723 C30.5013155,124.850159 32.3399999,124.545103 33.9050781,127.090257 C36.1593828,130.756241 23.8084766,123.506041 23.8084766,123.506041 C23.8084766,123.506041 31.440582,107.792516 33.9050781,93.6249653 Z" id="Rectangle-1273" fill="#D0D0D0"></path>
                    <path d="M66.1475543,91.6271814 C62.9918545,86.5019145 56.0755045,82.1299311 50.6875577,76.7354913 C44.3957511,70.4361026 40.0080926,62.5799803 40.8052344,60.3446999 C40.9789397,59.8576094 44.4394197,61.3454671 47.9850586,60.3446999 C51.5306975,59.3439326 53.8824414,54.9910113 53.8824414,54.9910113 C53.8824414,54.9910113 55.61,55.9080901 60.5178455,70.3977993 C65.425691,84.8875085 84.4831946,107.962679 84.4831946,107.962679 C84.4831946,107.962679 73.4614886,103.328208 66.1475535,107.962679 C62.3604942,110.362348 73.4929972,103.557136 66.1475543,91.6271814 Z" id="Rectangle-1274" fill="#C2C2C2"></path>
                </g>
            </g>
        </g>
    </g>
</svg>