<?xml version="1.0" encoding="UTF-8" standalone="no"?>
<svg width="1440px" height="835px" viewBox="0 0 1440 835" version="1.1" xmlns="http://www.w3.org/2000/svg" xmlns:xlink="http://www.w3.org/1999/xlink" xmlns:sketch="http://www.bohemiancoding.com/sketch/ns">
    <!-- Generator: Sketch 3.2.2 (9983) - http://www.bohemiancoding.com/sketch -->
    <title>4th mountain</title>
    <desc>Created with Sketch.</desc>
    <defs></defs>
    <g id="Page-1" stroke="none" stroke-width="1" fill="none" fill-rule="evenodd" sketch:type="MSPage">
        <g id="Artboard-4" sketch:type="MSArtboardGroup" transform="translate(0.000000, -59.000000)">
            <g id="4th-mountain" sketch:type="MSLayerGroup" transform="translate(-138.000000, 59.000000)">
                <path d="M1505.1337,30 C1647.36029,30 1711.7674,670.553776 1711.7674,670.553776 L1298.5,670.553776 C1298.5,670.553776 1362.90711,30 1505.1337,30 Z" id="Rectangle-101" fill="#BFE3D3" sketch:type="MSShapeGroup"></path>
                <path d="M212.777349,176.554687 C324.531256,247.242188 334.687512,261.964844 339.875012,195.878906 C345.062512,129.792969 431.424094,3 472.866299,3 C628.514797,3 699,687.553776 699,687.553776 L0.769536877,687.553772 C0.769536877,687.553772 51.3183831,74.4273341 212.777349,176.554687 Z" id="Rectangle-104" fill="#BFE3D3" sketch:type="MSShapeGroup"></path>
                <path d="M794.647656,301.678972 C886.741635,271.301609 926.17577,476.972658 950.867177,432.613286 C975.558583,388.253914 985.231587,133.716914 1100.83207,216.702728 C1216.43255,299.688542 1389.14286,827.859198 1389.14286,827.859198 L672.857136,835 C672.857136,835 682.67891,338.612062 794.647656,301.678972 Z" id="Rectangle-106" fill="#BFE3D3" sketch:type="MSShapeGroup"></path>
                <path d="M809.845296,295.332134 C863.020893,295.332134 897.776558,376.710216 897.776558,376.710216 C897.776558,376.710216 862.512382,392.656597 840.719406,370.496525 C818.92643,348.336452 793.684164,330.908833 780.965504,349.074566 C749.051439,394.656597 724.660957,413.20841 724.660957,413.20841 C724.660957,413.20841 756.669698,295.332134 809.845296,295.332134 Z" id="Rectangle-105" fill="#F3FFF7" sketch:type="MSShapeGroup"></path>
                <path d="M1057.4609,197.772719 C1110.6365,197.772719 1138.32735,254.51515 1138.32735,254.51515 C1138.32735,254.51515 1119.08516,265.909437 1119.08516,304.460219 C1119.08516,343.011 1067.06664,293.949356 1045.72578,280.585219 C1017.78047,263.085219 980.276565,317.648995 980.276565,317.648995 C980.276565,317.648995 1004.28531,197.772719 1057.4609,197.772719 Z" id="Rectangle-107" fill="#F3FFF7" sketch:type="MSShapeGroup"></path>
                <path d="M467.771929,0 C531.22731,-4.89702741e-09 566.768691,95.8667806 566.768691,95.8667806 C566.768691,95.8667806 530.048371,37.9492188 499.410149,61.0039062 C468.771928,84.0585938 460.864365,71.7460938 422.792969,85.3164062 C384.721574,98.8867188 358.960046,133.797136 358.960046,133.797136 C358.960046,133.797136 404.316548,4.89702741e-09 467.771929,0 Z" id="Rectangle-103" fill="#F3FFF7" sketch:type="MSShapeGroup"></path>
                <path d="M1503.1337,30 C1561.11719,30 1593.11115,120.640625 1593.11115,120.640625 C1593.11115,120.640625 1558.79553,108.513171 1530.9549,104.828125 C1508.9606,101.916911 1510.1177,118.383174 1496.90803,116.207031 C1494.49768,115.809954 1472.75921,91.6568279 1470.28693,92.5986328 C1437.11506,105.235352 1403.7049,155.197266 1403.7049,155.197266 C1403.7049,155.197266 1445.15022,30 1503.1337,30 Z" id="Rectangle-102" fill="#F3FFF7" sketch:type="MSShapeGroup"></path>
                <path d="M174.128143,163.198449 C227.30374,163.198449 298.171877,229.964845 298.171877,229.964845 C298.171877,229.964845 265.096675,220.658051 243.796877,222.136586 C222.49708,223.615121 212.620705,257.103864 202.953127,247.273438 C181.160151,225.113366 157.967011,198.775148 145.248351,216.940881 C113.334286,262.522912 88.9438042,281.074726 88.9438042,281.074726 C88.9438042,281.074726 120.952545,163.198449 174.128143,163.198449 Z" id="Rectangle-108" fill="#F3FFF7" sketch:type="MSShapeGroup"></path>
            </g>
        </g>
    </g>
</svg>