<?xml version="1.0" encoding="UTF-8" standalone="no"?>
<svg width="1219px" height="771px" viewBox="0 0 1219 771" version="1.1" xmlns="http://www.w3.org/2000/svg" xmlns:xlink="http://www.w3.org/1999/xlink" xmlns:sketch="http://www.bohemiancoding.com/sketch/ns">
    <!-- Generator: Sketch 3.2.2 (9983) - http://www.bohemiancoding.com/sketch -->
    <title>5th mountain</title>
    <desc>Created with Sketch.</desc>
    <defs></defs>
    <g id="Page-1" stroke="none" stroke-width="1" fill="none" fill-rule="evenodd" sketch:type="MSPage">
        <g id="Artboard-4" sketch:type="MSArtboardGroup" transform="translate(-221.000000, -57.000000)">
            <g id="5th-mountain" sketch:type="MSLayerGroup" transform="translate(221.000000, 57.000000)">
                <path d="M593.867188,523.609375 L712.796868,252.535156 L779.777337,136.105469 L834.101556,93.59375 L907.289056,1.76953125 L1007.87109,63.4570312 L1069.95702,154.125 L1173.84765,218.878906 L1236.86327,290.039062 L1389.83984,523.609375 L899.277337,612.5 L661.999993,542.519531 L593.867188,523.609375 Z" id="Rectangle-31" opacity="0.0500000007" fill="#584545" sketch:type="MSShapeGroup"></path>
                <path d="M1038.76952,108.226562 L991.441399,99.78125 L961.339837,88.1757812 L929.425774,118.796875 L885.16797,123.953125 L825.085938,146.226562 L780.777337,135.105469 L835.101556,92.59375 L908.289056,0.76953125 L1008.87109,62.4570312 L1038.76952,108.226562 Z" id="Rectangle-33" opacity="0.600979478" fill="#FFFFFF" sketch:type="MSShapeGroup"></path>
                <path d="M0.2050778,509.451953 L214.001953,410.600391 L280.982422,294.170703 L335.30664,251.658984 L408.49414,159.834766 L509.076172,221.522266 L571.162109,312.190234 L675.052734,376.944141 L738.068359,448.104297 L891.044922,681.674609 L400.482422,770.565234 L163.205078,700.584766 L0.2050778,509.451953 Z" id="Rectangle-32" opacity="0.0500000007" fill="#584545" sketch:type="MSShapeGroup"></path>
                <path d="M522.648431,241.658984 L509.076165,260.812503 L468.289062,241.658984 L429.582032,256.398441 L401.445313,236.640628 L377.222656,251.316409 L344.34375,241.658984 L360.317239,220.2796 L408.49414,159.834766 L509.076172,221.522266 L522.648431,241.658984 Z" id="Rectangle-34" opacity="0.600979478" fill="#FFFFFF" sketch:type="MSShapeGroup"></path>
            </g>
        </g>
    </g>
</svg>