<svg width="1290" height="535" viewBox="0 0 1290 535" xmlns="http://www.w3.org/2000/svg"><title>clouds-2</title><desc>Created with Sketch.</desc><g fill="#fff"><g><path d="M465.174 344.512c0-2.257 1.556-5.033 3.573-6.042 0 0 1.657-1.678 6.888-1.678 5.23 0 6.888 1.678 6.888 1.678 1.973 1.08 3.572 3.775 3.572 6.042v.452h-20.92v-.452z" id="Rectangle-54"/><path d="M480.393 331.453c4.935-6.26 10.515-9.98 15.174-9.98 4.565 0 9.852 4.398 14.253 9.98 4.4 5.582 4.268 13.51 4.268 13.51h-37.043s-1.586-7.252 3.348-13.51z" id="Rectangle-52"/><path d="M506.337 336.347c1.795-3.368 3.773-7.148 10.403-7.148 6.63 0 9.77 4.68 11.247 7.882 1.478 3.202 2.013 7.882 2.013 7.882h-26.52s1.06-5.25 2.857-8.617z" id="Rectangle-53"/></g><g><path d="M68.743 512.463c0-2.486 1.677-5.615 3.862-6.793 0 0 1.368-1.708 6.6-1.708 5.23 0 6.598 1.708 6.598 1.708 2.132 1.266 3.86 4.31 3.86 6.793v.498h-20.92v-.497z" id="Rectangle-54"/><path d="M83.962 498.083c4.935-6.89 10.515-10.988 15.174-10.988 4.565 0 9.852 4.842 14.253 10.988 4.4 6.147 4.267 14.878 4.267 14.878H80.614s-1.586-7.986 3.348-14.877z" id="Rectangle-52"/><path d="M109.906 503.473c1.795-3.71 3.773-7.872 10.403-7.872 6.63 0 9.77 5.155 11.246 8.68 1.478 3.527 2.013 8.68 2.013 8.68h-26.52s1.06-5.78 2.856-9.487z" id="Rectangle-53"/></g><g><path d="M225.204 374.43c0-2.633 1.818-5.87 4.177-7.05 0 0 1.94-1.956 8.054-1.956 6.116 0 8.054 1.957 8.054 1.957 2.307 1.26 4.177 4.42 4.177 7.05v.528h-24.46v-.527z" id="Rectangle-54"/><path d="M242.998 359.195c5.77-7.302 12.294-11.642 17.74-11.642 5.34 0 11.52 5.13 16.667 11.642 5.146 6.512 4.99 15.763 4.99 15.763h-43.312s-1.854-8.462 3.915-15.763z" id="Rectangle-52"/><path d="M273.332 364.905c2.1-3.93 4.412-8.34 12.164-8.34s11.424 5.46 13.15 9.197c1.728 3.736 2.354 9.196 2.354 9.196h-31.008s1.24-6.123 3.34-10.053z" id="Rectangle-53"/></g><g><path d="M405.322 534.01c0-4.59 3.095-10.368 7.13-12.543 0 0 2.525-3.153 12.18-3.153 9.657 0 12.184 3.153 12.184 3.153 3.937 2.337 7.13 7.96 7.13 12.542v.918H405.32v-.92z" id="Rectangle-54"/><path d="M433.418 507.46c9.11-12.72 19.41-20.284 28.013-20.284 8.43 0 18.19 8.938 26.314 20.285 8.126 11.35 7.88 27.468 7.88 27.468h-68.387s-2.93-14.744 6.18-27.467z" id="Rectangle-52"/><path d="M481.314 517.41c3.314-6.845 6.966-14.53 19.206-14.53 12.24 0 18.038 9.514 20.765 16.023 2.727 6.51 3.715 16.025 3.715 16.025h-48.96s1.96-10.67 5.274-17.517z" id="Rectangle-53"/></g><g><path d="M855.198 443.195c0-3.73 2.515-8.424 5.793-10.19 0 0 2.054-2.562 9.9-2.562 7.844 0 9.897 2.562 9.897 2.562 3.2 1.898 5.793 6.466 5.793 10.19v.746h-31.382v-.745z" id="Rectangle-54"/><path d="M878.027 421.625c7.402-10.337 15.77-16.482 22.76-16.482 6.848 0 14.778 7.262 21.38 16.482 6.602 9.22 6.402 22.316 6.402 22.316h-55.566s-2.38-11.978 5.023-22.315z" id="Rectangle-52"/><path d="M916.942 429.71c2.692-5.564 5.66-11.808 15.605-11.808s14.655 7.73 16.87 13.02c2.217 5.288 3.02 13.02 3.02 13.02h-39.78s1.592-8.67 4.285-14.233z" id="Rectangle-53"/></g><g><path d="M.102 378.716c0-1.317.92-2.942 2.088-3.525 0 0 .97-.978 4.027-.978 3.058 0 4.027.98 4.027.98 1.153.628 2.09 2.216 2.09 3.524v.263H.1v-.264z" id="Rectangle-54"/><path d="M9 371.097c2.884-3.65 6.146-5.82 8.87-5.82 2.67 0 5.76 2.564 8.332 5.82 2.574 3.257 2.496 7.882 2.496 7.882H7.042s-.928-4.232 1.957-7.883z" id="Rectangle-52"/><path d="M24.166 373.953c1.05-1.965 2.206-4.17 6.082-4.17s5.712 2.73 6.575 4.598c.864 1.87 1.177 4.6 1.177 4.6H22.496s.62-3.063 1.67-5.027z" id="Rectangle-53"/></g><g><path d="M721.094 276.736c0-1.223.847-2.73 1.936-3.28 0 0 .88-.902 3.696-.902 2.817 0 3.696.903 3.696.903 1.07.588 1.937 2.065 1.937 3.28v.244h-11.266v-.244z" id="Rectangle-54"/><path d="M729.29 269.662c2.656-3.39 5.66-5.405 8.17-5.405 2.457 0 5.304 2.38 7.674 5.405 2.37 3.024 2.298 7.32 2.298 7.32h-19.946s-.854-3.93 1.803-7.32z" id="Rectangle-52"/><path d="M743.258 272.313c.967-1.824 2.032-3.872 5.602-3.872 3.57 0 5.26 2.536 6.056 4.27.796 1.735 1.084 4.27 1.084 4.27h-14.28s.572-2.842 1.538-4.667z" id="Rectangle-53"/></g><g><path d="M322.166 175.023c0-1.505 1.04-3.362 2.38-4.036 0 0 1.08-1.11 4.54-1.11s4.54 1.11 4.54 1.11c1.315.724 2.38 2.524 2.38 4.036v.3h-13.84v-.3z" id="Rectangle-54"/><path d="M332.234 166.316c3.265-4.172 6.956-6.652 10.038-6.652 3.02 0 6.517 2.93 9.43 6.652 2.91 3.722 2.823 9.008 2.823 9.008H330.02s-1.05-4.835 2.214-9.008z" id="Rectangle-52"/><path d="M349.397 169.58c1.187-2.246 2.496-4.766 6.882-4.766 4.385 0 6.462 3.12 7.44 5.255.977 2.134 1.33 5.254 1.33 5.254h-17.543s.702-3.5 1.89-5.744z" id="Rectangle-53"/></g><g><path d="M432.166 235.023c0-1.505 1.04-3.362 2.38-4.036 0 0 1.08-1.11 4.54-1.11s4.54 1.11 4.54 1.11c1.315.724 2.38 2.524 2.38 4.036v.3h-13.84v-.3z" id="Rectangle-54"/><path d="M442.234 226.316c3.265-4.172 6.956-6.652 10.038-6.652 3.02 0 6.517 2.93 9.43 6.652 2.91 3.722 2.823 9.008 2.823 9.008H440.02s-1.05-4.835 2.214-9.008z" id="Rectangle-52"/><path d="M459.397 229.58c1.187-2.246 2.496-4.766 6.882-4.766 4.385 0 6.462 3.12 7.44 5.255.977 2.134 1.33 5.254 1.33 5.254h-17.543s.702-3.5 1.89-5.744z" id="Rectangle-53"/></g><g><path d="M1004.094 171.736c0-1.223.847-2.73 1.936-3.28 0 0 .88-.902 3.696-.902 2.817 0 3.696.903 3.696.903 1.07.588 1.937 2.065 1.937 3.28v.244h-11.266v-.244z" id="Rectangle-54"/><path d="M1012.29 164.662c2.656-3.39 5.66-5.405 8.17-5.405 2.457 0 5.304 2.38 7.674 5.405 2.37 3.024 2.298 7.32 2.298 7.32h-19.946s-.854-3.93 1.803-7.32z" id="Rectangle-52"/><path d="M1026.258 167.313c.967-1.824 2.032-3.872 5.602-3.872 3.57 0 5.26 2.536 6.056 4.27.796 1.735 1.084 4.27 1.084 4.27h-14.28s.572-2.842 1.538-4.667z" id="Rectangle-53"/></g><g><path d="M1254.502 209.736c0-1.223.847-2.73 1.936-3.28 0 0 .88-.902 3.696-.902 2.817 0 3.696.903 3.696.903 1.07.588 1.937 2.065 1.937 3.28v.244h-11.265v-.244z" id="Rectangle-54"/><path d="M1262.697 202.662c2.657-3.39 5.66-5.405 8.17-5.405 2.458 0 5.305 2.38 7.675 5.405 2.37 3.024 2.298 7.32 2.298 7.32h-19.946s-.854-3.93 1.803-7.32z" id="Rectangle-52"/><path d="M1276.666 205.313c.967-1.824 2.032-3.872 5.602-3.872 3.57 0 5.26 2.536 6.056 4.27.796 1.735 1.084 4.27 1.084 4.27h-14.28s.572-2.842 1.538-4.667z" id="Rectangle-53"/></g><g><path d="M1089.674 294.012c0-2.257 1.556-5.033 3.573-6.042 0 0 1.657-1.678 6.888-1.678 5.23 0 6.888 1.678 6.888 1.678 1.973 1.08 3.572 3.775 3.572 6.042v.452h-20.92v-.452z" id="Rectangle-54"/><path d="M1104.893 280.953c4.935-6.26 10.515-9.98 15.174-9.98 4.565 0 9.852 4.398 14.253 9.98 4.4 5.582 4.268 13.51 4.268 13.51h-37.043s-1.586-7.252 3.348-13.51z" id="Rectangle-52"/><path d="M1130.837 285.847c1.795-3.368 3.773-7.148 10.403-7.148 6.63 0 9.77 4.68 11.247 7.882 1.478 3.202 2.013 7.882 2.013 7.882h-26.52s1.06-5.25 2.857-8.617z" id="Rectangle-53"/></g><g><path d="M1217.043 23.716c0-1.317.92-2.942 2.088-3.525 0 0 .97-.978 4.028-.978s4.027.98 4.027.98c1.153.628 2.09 2.216 2.09 3.524v.263h-12.232v-.264z" id="Rectangle-54"/><path d="M1225.94 16.097c2.885-3.65 6.147-5.82 8.87-5.82 2.67 0 5.76 2.564 8.333 5.82 2.574 3.257 2.496 7.882 2.496 7.882h-21.657s-.928-4.232 1.957-7.883z" id="Rectangle-52"/><path d="M1241.107 18.953c1.05-1.965 2.206-4.17 6.082-4.17 3.875 0 5.71 2.73 6.574 4.598.864 1.87 1.177 4.6 1.177 4.6h-15.503s.62-3.063 1.67-5.027z" id="Rectangle-53"/></g><g><path d="M335.174 53.663c0-2.257 1.556-5.033 3.573-6.042 0 0 1.657-1.677 6.888-1.677 5.23 0 6.888 1.678 6.888 1.678 1.973 1.08 3.572 3.776 3.572 6.043v.452h-20.92v-.452z" id="Rectangle-54"/><path d="M350.393 40.604c4.935-6.26 10.515-9.98 15.174-9.98 4.565 0 9.852 4.398 14.253 9.98 4.4 5.582 4.268 13.51 4.268 13.51h-37.043s-1.586-7.252 3.348-13.51z" id="Rectangle-52"/><path d="M376.337 45.498c1.795-3.368 3.773-7.148 10.403-7.148 6.63 0 9.77 4.68 11.247 7.883 1.478 3.202 2.013 7.882 2.013 7.882h-26.52s1.06-5.25 2.857-8.617z" id="Rectangle-53"/></g><g><path d="M679.874 23.512c0-2.257 1.556-5.033 3.573-6.042 0 0 1.657-1.678 6.888-1.678 5.23 0 6.888 1.678 6.888 1.678 1.973 1.08 3.572 3.775 3.572 6.042v.452h-20.92v-.452z" id="Rectangle-54"/><path d="M695.093 10.453c4.935-6.26 10.515-9.98 15.174-9.98 4.565 0 9.852 4.398 14.253 9.98 4.4 5.582 4.268 13.51 4.268 13.51h-37.043s-1.586-7.252 3.348-13.51z" id="Rectangle-52"/><path d="M721.037 15.347C722.832 11.98 724.81 8.2 731.44 8.2c6.63 0 9.77 4.68 11.247 7.882 1.478 3.202 2.013 7.882 2.013 7.882h-26.52s1.06-5.25 2.857-8.617z" id="Rectangle-53"/></g><g><path d="M95.773 95.634c0-2.634 1.818-5.872 4.177-7.05 0 0 1.938-1.957 8.053-1.957 6.116 0 8.054 1.957 8.054 1.957 2.307 1.26 4.177 4.42 4.177 7.05v.527h-24.46v-.526z"/><path d="M113.567 80.398c5.77-7.302 12.294-11.642 17.74-11.642 5.34 0 11.52 5.13 16.667 11.642 5.146 6.512 4.99 15.763 4.99 15.763h-43.312s-1.854-8.46 3.915-15.762z"/><path d="M143.9 86.108c2.1-3.93 4.413-8.34 12.165-8.34 7.752 0 11.424 5.46 13.15 9.197 1.728 3.736 2.354 9.196 2.354 9.196h-31.01s1.242-6.122 3.34-10.052z"/></g></g></svg>