<svg width="1440" height="908" viewBox="0 0 1440 908" xmlns="http://www.w3.org/2000/svg" xmlns:xlink="http://www.w3.org/1999/xlink"><title>background-mountains 3</title><desc>Created with Sketch.</desc><defs><path id="a" d="M0 0h1500v968H0z"/></defs><g transform="translate(0 -5165) translate(-36 5105)" fill="none"><mask id="b"><use xlink:href="#a"/></mask><use xlink:href="#a"/><g mask="url(#b)"><path d="M811 638.874L940 528.09l154.797-217.043 66.98-116.204 54.325-42.43 73.187-91.645 100.58 61.568 62.087 90.492 103.89 64.628 63.016 71.022 152.977 233.117L1593 698.757l-280 36.928-304-14.97-198-81.84z" fill="#BFEADC"/><path d="M1420.77 167.018l-48.33-7.43-30.1-11.583-31.914 30.56-44.258 5.147-60.082 22.23-44.31-11.1 54.326-42.428 73.187-91.646 100.58 61.568 30.9 44.682z" fill="#F3FCF9"/><path d="M312.205 537.445l213.797-98.66 66.98-116.203 54.325-42.43 8.065-10.102 65.122-81.543 100.582 61.568 62.086 90.492 103.89 64.628 63.016 71.022 152.977 233.116-490.563 88.72-237.277-69.846-163-190.762z" fill="#BFEADC"/><path d="M834.648 270.172l-13.572 19.117-40.787-19.118-38.708 14.71-28.137-19.718-24.222 14.647-33.853-9.76 16.947-21.216 48.177-60.327 100.582 61.568 13.572 20.097z" fill="#F3FCF9"/><path d="M-212.795 555.682l213.797-98.66 66.98-116.203 54.325-42.43 9.133-11.43 64.054-80.216 100.582 61.568 62.086 90.49 103.89 64.63 63.016 71.022L678.045 727.57l-490.563 88.718-237.277-69.844-163-190.762z" fill="#BFEADC"/><path d="M309.648 288.41l-13.572 19.115-40.787-19.116-38.708 14.71-28.137-19.72-24.222 14.648-32.783-11.088 15.877-19.89 48.177-60.326 100.582 61.568 13.572 20.097z" fill="#F3FCF9"/><path d="M1368.134 281.12C1494.54 281.12 1597 1047 1597 1047h-453s97.728-765.883 224.134-765.883z" fill="#C8EBD0"/><path d="M165.777 331.948C309 421.218 306.813 418.31 312 352.353c5.188-65.957 72.424-193.623 113.866-193.623 155.65 0 237.134 887.274 237.134 887.274H-35.23s38.948-815.07 201.007-714.056z" fill="#C8EBD0"/><path d="M697.648 332.072c92.094-30.32 131.528 174.953 156.22 130.68 24.69-44.273 34.364-298.316 149.964-215.49 115.6 82.823 276.168 799.88 276.168 799.88H563.714s21.965-678.21 133.934-715.07z" fill="#C8EBD0"/><path d="M712.845 325.737c53.176 0 89.932 80.222 89.932 80.222s-37.265 16.913-59.058-5.204c-21.794-22.117-47.036-39.51-59.754-21.38-31.915 45.493-50.305 64.01-50.305 64.01s26.01-117.65 79.185-117.65z" fill="#F3FFF7"/><path d="M960.46 228.367c53.177 0 77.867 59.627 77.867 59.627s-16.242 8.378-16.242 46.854-52.018-10.49-73.36-23.83c-27.945-17.465-65.448 36.993-65.448 36.993s24.008-119.643 77.184-119.643z" fill="#F3FFF7"/><path d="M420.772 155.736c63.455 0 90.228 97.81 90.228 97.81s-27.952-59.935-58.59-36.925c-30.638 23.01-21.34 10.407-59.41 23.95-38.07 13.545-64 47.908-64 47.908s28.317-132.742 91.772-132.742z" fill="#F3FFF7"/><path d="M1366.356 281.12c51.534 0 74.644 79.218 74.644 79.218s-25.174-9.575-49.917-12.844c-19.548-2.582-18.52 12.024-30.26 10.094-2.142-.353-21.463-21.777-23.66-20.942-29.482 11.21-54.163 55.63-54.163 55.63s31.823-111.157 83.356-111.157z" fill="#F3FFF7"/><path d="M127.128 318.617c53.176 0 124.044 66.637 124.044 66.637s-33.075-9.288-54.375-7.813c-21.3 1.477-31.176 34.9-40.844 25.09-21.793-22.118-44.986-48.405-57.705-30.274C66.334 417.75 54 438 54 438s19.953-119.383 73.128-119.383z" fill="#F3FFF7"/></g></g></svg>