<?xml version="1.0"?>
<svg class="FringeEvent-marker" xmlns="http://www.w3.org/2000/svg" xmlns:xlink="http://www.w3.org/1999/xlink" version="1.1" x="0px" y="0px" viewBox="0 0 100 100" enable-background="new 0 0 100 100" xml:space="preserve">
<g>
    <path d="M79.9,34.9C79.9,18.4,66.5,5,50,5C33.5,5,20.1,18.4,20.1,34.9c0,5.1,1.3,9.8,3.5,14l18,34c0,0,0,0,0,0l5.3,10   c1.7,3.2,4.5,3.2,6.2,0l3.5-6.5l19.9-37.5l0,0C78.6,44.7,79.9,40,79.9,34.9z M50,45.5c-5.9,0-10.6-4.7-10.6-10.6S44.1,24.3,50,24.3   s10.6,4.7,10.6,10.6S55.9,45.5,50,45.5z"/>
</g>
</svg>
