<svg width="1369" height="612" viewBox="0 0 1369 612" xmlns="http://www.w3.org/2000/svg"><title>clouds-1</title><g fill="#FFF" fill-rule="evenodd"><path d="M868.174 611.512c0-2.257 1.556-5.033 3.573-6.042 0 0 1.657-1.678 6.888-1.678 5.23 0 6.888 1.678 6.888 1.678 1.973 1.08 3.572 3.775 3.572 6.042v.452h-20.92v-.452z" id="Rectangle-54"/><path d="M883.393 598.453c4.935-6.26 10.515-9.98 15.174-9.98 4.565 0 9.852 4.398 14.253 9.98 4.4 5.582 4.268 13.51 4.268 13.51h-37.043s-1.586-7.252 3.348-13.51z" id="Rectangle-52"/><path d="M909.337 603.347c1.795-3.368 3.773-7.148 10.403-7.148 6.63 0 9.77 4.68 11.247 7.88 1.478 3.203 2.013 7.883 2.013 7.883h-26.52s1.06-5.25 2.857-8.617z" id="Rectangle-53"/><path d="M1144.174 525.463c0-2.486 1.677-5.615 3.862-6.793 0 0 1.368-1.708 6.6-1.708 5.23 0 6.598 1.708 6.598 1.708 2.132 1.266 3.86 4.31 3.86 6.793v.498h-20.92v-.496z" id="Rectangle-54"/><path d="M1159.393 511.083c4.935-6.89 10.515-10.988 15.174-10.988 4.565 0 9.852 4.842 14.253 10.988 4.4 6.147 4.268 14.878 4.268 14.878h-37.043s-1.586-7.985 3.348-14.876z" id="Rectangle-52"/><path d="M1185.337 516.473c1.795-3.71 3.773-7.872 10.403-7.872 6.63 0 9.77 5.156 11.247 8.68 1.478 3.528 2.013 8.68 2.013 8.68h-26.52s1.06-5.78 2.857-9.486z" id="Rectangle-53"/><path d="M200.102 451.716c0-1.317.92-2.942 2.088-3.525 0 0 .97-.977 4.027-.977 3.058 0 4.027.98 4.027.98 1.153.628 2.09 2.216 2.09 3.524v.263H200.1v-.264z" id="Rectangle-54"/><path d="M209 444.097c2.884-3.65 6.146-5.82 8.87-5.82 2.67 0 5.76 2.564 8.332 5.82 2.574 3.257 2.496 7.882 2.496 7.882h-21.656s-.928-4.233 1.957-7.884z" id="Rectangle-52"/><path d="M224.166 446.953c1.05-1.965 2.206-4.17 6.082-4.17s5.712 2.73 6.575 4.598c.864 1.87 1.177 4.6 1.177 4.6h-15.504s.62-3.062 1.67-5.026z" id="Rectangle-53"/><path d="M1289.502 128.387c0-1.223.847-2.73 1.936-3.28 0 0 .88-.902 3.696-.902 2.817 0 3.696.903 3.696.903 1.07.588 1.937 2.065 1.937 3.28v.244h-11.265v-.245z" id="Rectangle-54"/><path d="M1297.697 121.313c2.657-3.39 5.66-5.405 8.17-5.405 2.458 0 5.305 2.38 7.675 5.405 2.37 3.024 2.298 7.32 2.298 7.32h-19.946s-.854-3.93 1.803-7.32z" id="Rectangle-52"/><path d="M1311.666 123.964c.967-1.824 2.032-3.872 5.602-3.872 3.57 0 5.26 2.535 6.056 4.27.796 1.734 1.084 4.27 1.084 4.27h-14.28s.572-2.843 1.538-4.668z" id="Rectangle-53"/><path d="M1124.615 139.163c0-2.257 1.556-5.033 3.573-6.042 0 0 1.657-1.676 6.888-1.676 5.23 0 6.888 1.678 6.888 1.678 1.973 1.08 3.572 3.776 3.572 6.043v.452h-20.92v-.452z" id="Rectangle-54"/><path d="M1139.834 126.104c4.935-6.26 10.515-9.98 15.174-9.98 4.565 0 9.852 4.398 14.253 9.98 4.403 5.582 4.27 13.51 4.27 13.51h-37.043s-1.586-7.252 3.348-13.51z" id="Rectangle-52"/><path d="M1165.778 130.998c1.795-3.368 3.773-7.148 10.403-7.148 6.63 0 9.77 4.68 11.25 7.883 1.477 3.202 2.012 7.882 2.012 7.882h-26.52s1.062-5.25 2.858-8.617z" id="Rectangle-53"/><path d="M1304.174 331.512c0-2.257 1.556-5.033 3.573-6.042 0 0 1.657-1.678 6.888-1.678 5.23 0 6.888 1.678 6.888 1.678 1.973 1.08 3.572 3.775 3.572 6.042v.452h-20.92v-.452z" id="Rectangle-54"/><path d="M1319.393 318.453c4.935-6.26 10.515-9.98 15.174-9.98 4.565 0 9.852 4.398 14.253 9.98 4.4 5.582 4.268 13.51 4.268 13.51h-37.043s-1.586-7.252 3.348-13.51z" id="Rectangle-52"/><path d="M1345.337 323.347c1.795-3.368 3.773-7.148 10.403-7.148 6.63 0 9.77 4.68 11.247 7.88 1.478 3.203 2.013 7.883 2.013 7.883h-26.52s1.06-5.25 2.857-8.617z" id="Rectangle-53"/><path d="M854.116 217.387c0-1.223.847-2.73 1.936-3.28 0 0 .88-.902 3.696-.902 2.817 0 3.696.903 3.696.903 1.07.588 1.937 2.065 1.937 3.28v.244h-11.263v-.245z" id="Rectangle-54"/><path d="M862.31 210.313c2.658-3.39 5.662-5.405 8.17-5.405 2.46 0 5.306 2.38 7.676 5.405 2.37 3.024 2.298 7.32 2.298 7.32h-19.946s-.854-3.93 1.803-7.32z" id="Rectangle-52"/><path d="M876.28 212.964c.967-1.824 2.032-3.872 5.602-3.872 3.57 0 5.26 2.535 6.056 4.27.796 1.734 1.084 4.27 1.084 4.27h-14.28s.572-2.843 1.538-4.668z" id="Rectangle-53"/><g><path d="M47.187 257.23c0-2.548 1.742-5.723 4-6.897 0 0 1.61-1.817 7.22-1.817 5.61 0 7.223 1.817 7.223 1.817 2.208 1.26 4 4.353 4 6.897v.51H47.186v-.51z" id="Rectangle-54"/><path d="M63.512 242.49c5.294-7.062 11.28-11.26 16.277-11.26 4.895 0 10.566 4.96 15.287 11.26 4.72 6.3 4.58 15.25 4.58 15.25H59.92s-1.7-8.186 3.592-15.25z" id="Rectangle-52"/><path d="M91.34 248.015c1.927-3.8 4.05-8.068 11.16-8.068 7.113 0 10.482 5.283 12.066 8.897 1.585 3.613 2.16 8.896 2.16 8.896h-28.45s1.14-5.924 3.064-9.725z" id="Rectangle-53"/></g><g><path d="M541.298 68.887c0-1.223.847-2.73 1.936-3.28 0 0 .88-.902 3.696-.902 2.817 0 3.696.903 3.696.903 1.07.588 1.937 2.065 1.937 3.28v.244h-11.265v-.245z" id="Rectangle-54"/><path d="M549.493 61.813c2.657-3.39 5.66-5.405 8.17-5.405 2.458 0 5.305 2.38 7.675 5.405 2.37 3.024 2.298 7.32 2.298 7.32H547.69s-.854-3.93 1.803-7.32z" id="Rectangle-52"/><path d="M563.462 64.464c.967-1.824 2.032-3.872 5.602-3.872 3.57 0 5.26 2.535 6.056 4.27.796 1.734 1.084 4.27 1.084 4.27h-14.28s.572-2.843 1.538-4.668z" id="Rectangle-53"/></g><g><path d="M1024.094 12.736c0-1.223.847-2.73 1.936-3.28 0 0 .88-.902 3.696-.902 2.817 0 3.696.903 3.696.903 1.07.588 1.937 2.065 1.937 3.28v.244h-11.267v-.243z"/><path d="M1032.29 5.662c2.656-3.39 5.66-5.405 8.17-5.405 2.457 0 5.304 2.38 7.674 5.405 2.37 3.024 2.298 7.32 2.298 7.32h-19.946s-.854-3.93 1.803-7.32z"/><path d="M1046.258 8.313c.967-1.824 2.032-3.872 5.602-3.872 3.57 0 5.26 2.537 6.056 4.27.796 1.736 1.084 4.27 1.084 4.27h-14.28s.572-2.84 1.538-4.666z"/></g><g><path d="M.102 106.867c0-1.317.92-2.942 2.088-3.525 0 0 .97-.98 4.027-.98 3.058 0 4.027.98 4.027.98 1.153.63 2.09 2.217 2.09 3.525v.263H.1v-.263z"/><path d="M9 99.248c2.884-3.65 6.146-5.82 8.87-5.82 2.67 0 5.76 2.564 8.332 5.82 2.574 3.257 2.496 7.882 2.496 7.882H7.042S6.114 102.9 9 99.248z"/><path d="M24.166 102.104c1.05-1.965 2.206-4.17 6.082-4.17s5.712 2.73 6.575 4.598C37.687 104.4 38 107.13 38 107.13H22.496s.62-3.062 1.67-5.026z"/></g></g></svg>