<svg width="1322" height="160" viewBox="0 0 1322 160" xmlns="http://www.w3.org/2000/svg"><title>clouds-2</title><g fill="#FFF" fill-rule="evenodd"><path d="M169.102 117.736c0-1.223.86-2.7 1.965-3.22 0 0 1.093-.962 4.15-.962 3.058 0 4.15.96 4.15.96 1.086.557 1.966 2.008 1.966 3.222v.245h-12.23v-.243z" id="Rectangle-54"/><path d="M178 110.662c2.884-3.39 6.146-5.405 8.87-5.405 2.67 0 5.76 2.38 8.332 5.405 2.574 3.024 2.496 7.32 2.496 7.32h-21.656s-.928-3.93 1.957-7.32z" id="Rectangle-52"/><path d="M193.166 113.313c1.05-1.824 2.206-3.872 6.082-3.872s5.712 2.537 6.575 4.27c.864 1.736 1.177 4.27 1.177 4.27h-15.504s.62-2.84 1.67-4.666z" id="Rectangle-53"/><path d="M1257.174 159.512c0-2.257 1.556-5.033 3.573-6.042 0 0 1.657-1.678 6.888-1.678 5.23 0 6.888 1.678 6.888 1.678 1.973 1.08 3.572 3.775 3.572 6.042v.452h-20.92v-.452z" id="Rectangle-54"/><path d="M1272.393 146.453c4.935-6.26 10.515-9.98 15.174-9.98 4.565 0 9.852 4.398 14.253 9.98 4.4 5.582 4.268 13.51 4.268 13.51h-37.043s-1.586-7.252 3.348-13.51z" id="Rectangle-52"/><path d="M1298.337 151.347c1.795-3.368 3.773-7.148 10.403-7.148 6.63 0 9.77 4.68 11.247 7.88 1.478 3.203 2.013 7.883 2.013 7.883h-26.52s1.06-5.25 2.857-8.617z" id="Rectangle-53"/><path d="M674.094 117.736c0-1.223.847-2.73 1.936-3.28 0 0 .88-.902 3.696-.902 2.817 0 3.696.903 3.696.903 1.07.588 1.937 2.065 1.937 3.28v.244h-11.267v-.243z" id="Rectangle-54"/><path d="M682.29 110.662c2.656-3.39 5.66-5.405 8.17-5.405 2.457 0 5.304 2.38 7.674 5.405 2.37 3.024 2.298 7.32 2.298 7.32h-19.946s-.854-3.93 1.803-7.32z" id="Rectangle-52"/><path d="M696.258 113.313c.967-1.824 2.032-3.872 5.602-3.872 3.57 0 5.26 2.537 6.056 4.27.796 1.736 1.084 4.27 1.084 4.27h-14.28s.572-2.84 1.538-4.666z" id="Rectangle-53"/><path d="M807.116 45.387c0-1.223.847-2.73 1.936-3.28 0 0 .88-.902 3.696-.902 2.817 0 3.696.903 3.696.903 1.07.588 1.937 2.065 1.937 3.28v.244h-11.263v-.245z" id="Rectangle-54"/><path d="M815.31 38.313c2.658-3.39 5.662-5.405 8.17-5.405 2.46 0 5.306 2.38 7.676 5.405 2.37 3.024 2.298 7.32 2.298 7.32h-19.946s-.854-3.93 1.803-7.32z" id="Rectangle-52"/><path d="M829.28 40.964c.967-1.824 2.032-3.872 5.602-3.872 3.57 0 5.26 2.535 6.056 4.27.796 1.734 1.084 4.27 1.084 4.27h-14.28s.572-2.843 1.538-4.668z" id="Rectangle-53"/><path d="M275.166 16.023c0-1.505 1.04-3.362 2.38-4.036 0 0 1.08-1.11 4.54-1.11s4.54 1.11 4.54 1.11c1.315.724 2.38 2.524 2.38 4.036v.3h-13.84v-.3z" id="Rectangle-54"/><path d="M285.234 7.316C288.5 3.144 292.19.664 295.272.664c3.02 0 6.517 2.93 9.43 6.652 2.91 3.722 2.823 9.008 2.823 9.008H283.02s-1.05-4.835 2.214-9.008z" id="Rectangle-52"/><path d="M302.397 10.58c1.187-2.246 2.496-4.766 6.882-4.766 4.384 0 6.46 3.12 7.44 5.255.976 2.133 1.33 5.253 1.33 5.253h-17.544s.702-3.5 1.89-5.744z" id="Rectangle-53"/><path d="M385.166 76.023c0-1.505 1.04-3.362 2.38-4.036 0 0 1.08-1.11 4.54-1.11s4.54 1.11 4.54 1.11c1.315.724 2.38 2.524 2.38 4.036v.3h-13.84v-.3z" id="Rectangle-54"/><path d="M395.234 67.316c3.265-4.172 6.956-6.652 10.038-6.652 3.02 0 6.517 2.93 9.43 6.652 2.91 3.722 2.823 9.008 2.823 9.008H393.02s-1.05-4.835 2.214-9.008z" id="Rectangle-52"/><path d="M412.397 70.58c1.187-2.246 2.496-4.766 6.882-4.766 4.384 0 6.46 3.12 7.44 5.255.976 2.133 1.33 5.253 1.33 5.253h-17.544s.702-3.5 1.89-5.744z" id="Rectangle-53"/><g><path d="M957.094 12.736c0-1.223.847-2.73 1.936-3.28 0 0 .88-.902 3.696-.902 2.817 0 3.696.903 3.696.903 1.07.588 1.937 2.065 1.937 3.28v.244h-11.267v-.243z" id="Rectangle-54"/><path d="M965.29 5.662c2.656-3.39 5.66-5.405 8.17-5.405 2.457 0 5.304 2.38 7.674 5.405 2.37 3.024 2.298 7.32 2.298 7.32h-19.946s-.854-3.93 1.803-7.32z" id="Rectangle-52"/><path d="M979.258 8.313c.967-1.824 2.032-3.872 5.602-3.872 3.57 0 5.26 2.537 6.056 4.27.796 1.736 1.084 4.27 1.084 4.27h-14.28s.572-2.84 1.538-4.666z" id="Rectangle-53"/></g><g><path d="M1207.502 50.736c0-1.223.847-2.73 1.936-3.28 0 0 .88-.902 3.696-.902 2.817 0 3.696.903 3.696.903 1.07.588 1.937 2.065 1.937 3.28v.244h-11.265v-.243z" id="Rectangle-54"/><path d="M1215.697 43.662c2.657-3.39 5.66-5.405 8.17-5.405 2.458 0 5.305 2.38 7.675 5.405 2.37 3.024 2.298 7.32 2.298 7.32h-19.946s-.854-3.93 1.803-7.32z" id="Rectangle-52"/><path d="M1229.666 46.313c.967-1.824 2.032-3.872 5.602-3.872 3.57 0 5.26 2.537 6.056 4.27.796 1.736 1.084 4.27 1.084 4.27h-14.28s.572-2.84 1.538-4.666z" id="Rectangle-53"/></g><g><path d="M1042.674 135.012c0-2.257 1.556-5.033 3.573-6.042 0 0 1.657-1.678 6.888-1.678 5.23 0 6.888 1.678 6.888 1.678 1.973 1.08 3.572 3.775 3.572 6.042v.452h-20.92v-.452z"/><path d="M1057.893 121.953c4.935-6.26 10.515-9.98 15.174-9.98 4.565 0 9.852 4.398 14.253 9.98 4.4 5.582 4.268 13.51 4.268 13.51h-37.043s-1.586-7.252 3.348-13.51z"/><path d="M1083.837 126.847c1.795-3.368 3.773-7.148 10.403-7.148 6.63 0 9.77 4.68 11.247 7.88 1.478 3.203 2.013 7.883 2.013 7.883h-26.52s1.06-5.25 2.857-8.617z"/></g><g><path d="M.187 85.23c0-2.548 1.742-5.723 4-6.897 0 0 1.61-1.817 7.22-1.817 5.61 0 7.223 1.817 7.223 1.817 2.208 1.26 4 4.353 4 6.897v.51H.186v-.51z"/><path d="M16.512 70.49c5.294-7.062 11.28-11.26 16.277-11.26 4.895 0 10.566 4.96 15.287 11.26 4.72 6.3 4.58 15.25 4.58 15.25H12.92s-1.7-8.186 3.592-15.25zm27.828 5.525c1.927-3.8 4.05-8.068 11.16-8.068 7.113 0 10.482 5.283 12.066 8.897 1.585 3.613 2.16 8.896 2.16 8.896h-28.45s1.14-5.924 3.064-9.725z"/></g></g></svg>