<?xml version="1.0" encoding="UTF-8" standalone="no"?>
<svg width="154px" height="71px" viewBox="0 0 154 71" version="1.1" xmlns="http://www.w3.org/2000/svg" xmlns:xlink="http://www.w3.org/1999/xlink" xmlns:sketch="http://www.bohemiancoding.com/sketch/ns">
    <!-- Generator: Sketch 3.2.2 (9983) - http://www.bohemiancoding.com/sketch -->
    <title>Rectangle 51 + Rectangle 49 + Rectangle 57</title>
    <desc>Created with Sketch.</desc>
    <defs></defs>
    <g id="Teaser" stroke="none" stroke-width="1" fill="none" fill-rule="evenodd" sketch:type="MSPage">
        <g id="Artboard-17" sketch:type="MSArtboardGroup" transform="translate(-2101.000000, -99.000000)" fill="#FFFFFF">
            <g id="Rectangle-51-+-Rectangle-49-+-Rectangle-57" sketch:type="MSLayerGroup" transform="translate(2101.000000, 99.000000)">
                <path d="M10.5799546,29.4652848 C24.6011507,11.2758135 40.4547549,0.462826905 53.6928384,0.462826905 C66.664335,0.462826905 81.6859901,13.2415127 94.191944,29.4652848 C106.697898,45.6890569 106.319719,68.7348293 106.319719,68.7348293 L1.06595786,68.7348293 C1.06595786,68.7348293 -3.44124148,47.6547562 10.5799546,29.4652848 Z" id="Rectangle-49" sketch:type="MSShapeGroup"></path>
                <path d="M84.294276,43.691016 C89.3946765,33.9025394 95.0169005,22.9143476 113.854932,22.9143476 C132.692963,22.9143476 141.615549,36.5182735 145.812629,45.8245886 C150.009709,55.1309037 151.530994,68.7348293 151.530994,68.7348293 L76.1788692,68.7348293 C76.1788692,68.7348293 79.1938755,53.4794925 84.294276,43.691016 Z" id="Rectangle-50" sketch:type="MSShapeGroup"></path>
            </g>
        </g>
    </g>
</svg>