<?xml version="1.0" encoding="UTF-8" standalone="no"?>
<svg width="1794px" height="560px" viewBox="0 0 1794 560" version="1.1" xmlns="http://www.w3.org/2000/svg" xmlns:xlink="http://www.w3.org/1999/xlink" xmlns:sketch="http://www.bohemiancoding.com/sketch/ns">
    <!-- Generator: Sketch 3.2.2 (9983) - http://www.bohemiancoding.com/sketch -->
    <title>Group</title>
    <desc>Created with Sketch.</desc>
    <defs></defs>
    <g id="Teaser" stroke="none" stroke-width="1" fill="none" fill-rule="evenodd" sketch:type="MSPage">
        <g id="Artboard-8" sketch:type="MSArtboardGroup" transform="translate(-126.000000, -76.000000)" fill="#FFFFFF">
            <g id="Group" sketch:type="MSLayerGroup" transform="translate(126.000000, 76.000000)">
                <g id="Rectangle-54-+-Rectangle-52-+-Rectangle-61" transform="translate(594.000000, 335.000000)" sketch:type="MSShapeGroup">
                    <path d="M0.0938025843,12.7359141 C0.0938025843,11.5129626 0.940522226,10.0045521 2.03035653,9.45704248 C2.03035653,9.45704248 2.91009833,8.55377943 5.72639375,8.55377943 C8.54268916,8.55377943 9.42243076,9.45704248 9.42243076,9.45704248 C10.4919598,10.0449617 11.3589845,11.5217872 11.3589845,12.7359141 L11.3589845,12.9806954 L0.0938025843,12.9806954 L0.0938025843,12.7359141 Z" id="Rectangle-54"></path>
                    <path d="M8.28869233,5.6618991 C10.945817,2.27186652 13.9501971,0.256614057 16.4589159,0.256614057 C18.9171144,0.256614057 21.7638338,2.63822046 24.1338084,5.6618991 C26.503783,8.68557774 26.4321152,12.9806954 26.4321152,12.9806954 L6.48571666,12.9806954 C6.48571666,12.9806954 5.63156766,9.05193168 8.28869233,5.6618991 Z" id="Rectangle-52"></path>
                    <path d="M22.2581241,8.31319617 C23.2246893,6.48888507 24.290144,4.44097902 27.8600961,4.44097902 C31.4300481,4.44097902 33.1209469,6.97638818 33.9163258,8.71083724 C34.7117048,10.4452863 35,12.9806954 35,12.9806954 L20.720192,12.9806954 C20.720192,12.9806954 21.2915589,10.1375073 22.2581241,8.31319617 Z" id="Rectangle-53"></path>
                </g>
                <g id="Rectangle-54-+-Rectangle-52-+-Rectangle-60" transform="translate(1236.000000, 328.000000)" sketch:type="MSShapeGroup">
                    <path d="M0.0938025843,12.7359141 C0.0938025843,11.5129626 0.940522226,10.0045521 2.03035653,9.45704248 C2.03035653,9.45704248 2.91009833,8.55377943 5.72639375,8.55377943 C8.54268916,8.55377943 9.42243076,9.45704248 9.42243076,9.45704248 C10.4919598,10.0449617 11.3589845,11.5217872 11.3589845,12.7359141 L11.3589845,12.9806954 L0.0938025843,12.9806954 L0.0938025843,12.7359141 Z" id="Rectangle-54"></path>
                    <path d="M8.28869233,5.6618991 C10.945817,2.27186652 13.9501971,0.256614057 16.4589159,0.256614057 C18.9171144,0.256614057 21.7638338,2.63822046 24.1338084,5.6618991 C26.503783,8.68557774 26.4321152,12.9806954 26.4321152,12.9806954 L6.48571666,12.9806954 C6.48571666,12.9806954 5.63156766,9.05193168 8.28869233,5.6618991 Z" id="Rectangle-52"></path>
                    <path d="M22.2581241,8.31319617 C23.2246893,6.48888507 24.290144,4.44097902 27.8600961,4.44097902 C31.4300481,4.44097902 33.1209469,6.97638818 33.9163258,8.71083724 C34.7117048,10.4452863 35,12.9806954 35,12.9806954 L20.720192,12.9806954 C20.720192,12.9806954 21.2915589,10.1375073 22.2581241,8.31319617 Z" id="Rectangle-53"></path>
                </g>
                <g id="Rectangle-51-+-Rectangle-49-+-Rectangle-57" transform="translate(737.000000, 272.000000)" sketch:type="MSShapeGroup">
                    <path d="M10.5799546,29.4652848 C24.6011507,11.2758135 40.4547549,0.462826905 53.6928384,0.462826905 C66.664335,0.462826905 81.6859901,13.2415127 94.191944,29.4652848 C106.697898,45.6890569 106.319719,68.7348293 106.319719,68.7348293 L1.06595786,68.7348293 C1.06595786,68.7348293 -3.44124148,47.6547562 10.5799546,29.4652848 Z" id="Rectangle-49"></path>
                    <path d="M84.294276,43.691016 C89.3946765,33.9025394 95.0169005,22.9143476 113.854932,22.9143476 C132.692963,22.9143476 141.615549,36.5182735 145.812629,45.8245886 C150.009709,55.1309037 151.530994,68.7348293 151.530994,68.7348293 L76.1788692,68.7348293 C76.1788692,68.7348293 79.1938755,53.4794925 84.294276,43.691016 Z" id="Rectangle-50"></path>
                </g>
                <g id="Rectangle-51-+-Rectangle-49-+-Rectangle-64" transform="translate(0.130435, 145.197266)" sketch:type="MSShapeGroup">
                    <path d="M2.37665648,6.61901326 C5.52634546,2.5329726 9.08766234,0.103968363 12.0614347,0.103968363 C14.9753216,0.103968363 18.3497514,2.97454272 21.1590599,6.61901326 C23.9683684,10.2634838 23.8834151,15.4404327 23.8834151,15.4404327 L0.239454303,15.4404327 C0.239454303,15.4404327 -0.773032506,10.7050539 2.37665648,6.61901326 Z" id="Rectangle-49"></path>
                    <path d="M18.9356707,9.81464852 C20.0814128,7.61578784 21.3443762,5.1474259 25.5761079,5.1474259 C29.8078396,5.1474259 31.8121885,8.20338028 32.7550108,10.2939293 C33.6978332,12.3844784 34.039571,15.4404327 34.039571,15.4404327 L17.1126445,15.4404327 C17.1126445,15.4404327 17.7899286,12.0135092 18.9356707,9.81464852 Z" id="Rectangle-50"></path>
                </g>
                <g id="Rectangle-51-+-Rectangle-49-+-Rectangle-65" transform="translate(335.927536, 118.500000)" sketch:type="MSShapeGroup">
                    <path d="M2.37665648,6.61901326 C5.52634546,2.5329726 9.08766234,0.103968363 12.0614347,0.103968363 C14.9753216,0.103968363 18.3497514,2.97454272 21.1590599,6.61901326 C23.9683684,10.2634838 23.8834151,15.4404327 23.8834151,15.4404327 L0.239454303,15.4404327 C0.239454303,15.4404327 -0.773032506,10.7050539 2.37665648,6.61901326 Z" id="Rectangle-49"></path>
                    <path d="M18.9356707,9.81464852 C20.0814128,7.61578784 21.3443762,5.1474259 25.5761079,5.1474259 C29.8078396,5.1474259 31.8121885,8.20338028 32.7550108,10.2939293 C33.6978332,12.3844784 34.039571,15.4404327 34.039571,15.4404327 L17.1126445,15.4404327 C17.1126445,15.4404327 17.7899286,12.0135092 18.9356707,9.81464852 Z" id="Rectangle-50"></path>
                </g>
                <g id="Rectangle-54-+-Rectangle-52-+-Rectangle-58" transform="translate(776.000000, 0.000000)" sketch:type="MSShapeGroup">
                    <path d="M0.174204799,23.5124568 C0.174204799,21.2547001 1.72959212,18.4794258 3.74689084,17.4697688 C3.74689084,17.4697688 5.40446833,15.7915928 10.6347312,15.7915928 C15.8649942,15.7915928 17.5225713,17.4697688 17.5225713,17.4697688 C19.4957111,18.5492966 21.0952569,21.2448327 21.0952569,23.5124568 L21.0952569,23.9643607 L0.174204799,23.9643607 L0.174204799,23.5124568 Z" id="Rectangle-54"></path>
                    <path d="M15.3932858,10.4527368 C20.3279459,4.19421511 25.9075089,0.473749029 30.5665581,0.473749029 C35.131784,0.473749029 40.4185485,4.87056084 44.8199299,10.4527368 C49.2213113,16.0349128 49.0882139,23.9643607 49.0882139,23.9643607 L12.0449024,23.9643607 C12.0449024,23.9643607 10.4586257,16.7112585 15.3932858,10.4527368 Z" id="Rectangle-52"></path>
                    <path d="M41.3365161,15.3474391 C43.1315658,11.9794801 45.1102675,8.1987305 51.7401784,8.1987305 C58.3700894,8.1987305 61.5103299,12.8794859 62.9874623,16.0815457 C64.4645947,19.2836055 65,23.9643607 65,23.9643607 L38.4803565,23.9643607 C38.4803565,23.9643607 39.5414665,18.715398 41.3365161,15.3474391 Z" id="Rectangle-53"></path>
                </g>
                <g id="Rectangle-51-+-Rectangle-49-+-Rectangle-68" transform="translate(663.927536, 145.197266)" sketch:type="MSShapeGroup">
                    <path d="M2.37665648,6.61901326 C5.52634546,2.5329726 9.08766234,0.103968363 12.0614347,0.103968363 C14.9753216,0.103968363 18.3497514,2.97454272 21.1590599,6.61901326 C23.9683684,10.2634838 23.8834151,15.4404327 23.8834151,15.4404327 L0.239454303,15.4404327 C0.239454303,15.4404327 -0.773032506,10.7050539 2.37665648,6.61901326 Z" id="Rectangle-49"></path>
                    <path d="M18.9356707,9.81464852 C20.0814128,7.61578784 21.3443762,5.1474259 25.5761079,5.1474259 C29.8078396,5.1474259 31.8121885,8.20338028 32.7550108,10.2939293 C33.6978332,12.3844784 34.039571,15.4404327 34.039571,15.4404327 L17.1126445,15.4404327 C17.1126445,15.4404327 17.7899286,12.0135092 18.9356707,9.81464852 Z" id="Rectangle-50"></path>
                </g>
                <g id="Rectangle-54-+-Rectangle-52-+-Rectangle-74" transform="translate(452.000000, 17.500000)" sketch:type="MSShapeGroup">
                    <path d="M0.0938025843,12.7359141 C0.0938025843,11.5129626 0.940522226,10.0045521 2.03035653,9.45704248 C2.03035653,9.45704248 2.91009833,8.55377943 5.72639375,8.55377943 C8.54268916,8.55377943 9.42243076,9.45704248 9.42243076,9.45704248 C10.4919598,10.0449617 11.3589845,11.5217872 11.3589845,12.7359141 L11.3589845,12.9806954 L0.0938025843,12.9806954 L0.0938025843,12.7359141 Z" id="Rectangle-54"></path>
                    <path d="M8.28869233,5.6618991 C10.945817,2.27186652 13.9501971,0.256614057 16.4589159,0.256614057 C18.9171144,0.256614057 21.7638338,2.63822046 24.1338084,5.6618991 C26.503783,8.68557774 26.4321152,12.9806954 26.4321152,12.9806954 L6.48571666,12.9806954 C6.48571666,12.9806954 5.63156766,9.05193168 8.28869233,5.6618991 Z" id="Rectangle-52"></path>
                    <path d="M22.2581241,8.31319617 C23.2246893,6.48888507 24.290144,4.44097902 27.8600961,4.44097902 C31.4300481,4.44097902 33.1209469,6.97638818 33.9163258,8.71083724 C34.7117048,10.4452863 35,12.9806954 35,12.9806954 L20.720192,12.9806954 C20.720192,12.9806954 21.2915589,10.1375073 22.2581241,8.31319617 Z" id="Rectangle-53"></path>
                </g>
                <g id="Rectangle-51-+-Rectangle-49-+-Rectangle-75" transform="translate(246.050725, 431.000000)" sketch:type="MSShapeGroup">
                    <path d="M8.2799645,23.0597881 C19.2530745,8.8245497 31.660243,0.36221236 42.0204822,0.36221236 C52.1720883,0.36221236 63.9281662,10.362923 73.7154344,23.0597881 C83.5027027,35.7566533 83.2067366,53.7924751 83.2067366,53.7924751 L0.834227893,53.7924751 C0.834227893,53.7924751 -2.6931455,37.2950266 8.2799645,23.0597881 Z" id="Rectangle-49"></path>
                    <path d="M65.9694334,34.192969 C69.9610512,26.5324222 74.3610526,17.9329677 89.1038597,17.9329677 C103.846667,17.9329677 110.82956,28.5795184 114.114231,35.8627215 C117.398903,43.1459247 118.589473,53.7924751 118.589473,53.7924751 L59.6182455,53.7924751 C59.6182455,53.7924751 61.9778156,41.8535159 65.9694334,34.192969 Z" id="Rectangle-50"></path>
                </g>
                <g id="Rectangle-54-+-Rectangle-52-+-Rectangle-83" transform="translate(1103.000000, 533.785000)" sketch:type="MSShapeGroup">
                    <path d="M0.174204799,23.5124568 C0.174204799,21.2547001 1.72959212,18.4794258 3.74689084,17.4697688 C3.74689084,17.4697688 5.40446833,15.7915928 10.6347312,15.7915928 C15.8649942,15.7915928 17.5225713,17.4697688 17.5225713,17.4697688 C19.4957111,18.5492966 21.0952569,21.2448327 21.0952569,23.5124568 L21.0952569,23.9643607 L0.174204799,23.9643607 L0.174204799,23.5124568 Z" id="Rectangle-54"></path>
                    <path d="M15.3932858,10.4527368 C20.3279459,4.19421511 25.9075089,0.473749029 30.5665581,0.473749029 C35.131784,0.473749029 40.4185485,4.87056084 44.8199299,10.4527368 C49.2213113,16.0349128 49.0882139,23.9643607 49.0882139,23.9643607 L12.0449024,23.9643607 C12.0449024,23.9643607 10.4586257,16.7112585 15.3932858,10.4527368 Z" id="Rectangle-52"></path>
                    <path d="M41.3365161,15.3474391 C43.1315658,11.9794801 45.1102675,8.1987305 51.7401784,8.1987305 C58.3700894,8.1987305 61.5103299,12.8794859 62.9874623,16.0815457 C64.4645947,19.2836055 65,23.9643607 65,23.9643607 L38.4803565,23.9643607 C38.4803565,23.9643607 39.5414665,18.715398 41.3365161,15.3474391 Z" id="Rectangle-53"></path>
                </g>
                <g id="Rectangle-51-+-Rectangle-49-+-Rectangle-86" transform="translate(841.466854, 533.785000)" sketch:type="MSShapeGroup">
                    <path d="M2.37665648,6.61901326 C5.52634546,2.5329726 9.08766234,0.103968363 12.0614347,0.103968363 C14.9753216,0.103968363 18.3497514,2.97454272 21.1590599,6.61901326 C23.9683684,10.2634838 23.8834151,15.4404327 23.8834151,15.4404327 L0.239454303,15.4404327 C0.239454303,15.4404327 -0.773032506,10.7050539 2.37665648,6.61901326 Z" id="Rectangle-49"></path>
                    <path d="M18.9356707,9.81464852 C20.0814128,7.61578784 21.3443762,5.1474259 25.5761079,5.1474259 C29.8078396,5.1474259 31.8121885,8.20338028 32.7550108,10.2939293 C33.6978332,12.3844784 34.039571,15.4404327 34.039571,15.4404327 L17.1126445,15.4404327 C17.1126445,15.4404327 17.7899286,12.0135092 18.9356707,9.81464852 Z" id="Rectangle-50"></path>
                </g>
                <g id="Rectangle-51-+-Rectangle-49-+-Rectangle-118" transform="translate(1340.115942, 136.813251)" sketch:type="MSShapeGroup">
                    <path d="M7.97329914,22.2057219 C18.5399977,8.49771452 30.4876414,0.348797088 40.4641681,0.348797088 C50.2397887,0.348797088 61.5604563,9.97911105 70.9852332,22.2057219 C80.41001,34.4323328 80.1250056,51.8001612 80.1250056,51.8001612 L0.803330564,51.8001612 C0.803330564,51.8001612 -2.59339937,35.9137293 7.97329914,22.2057219 Z" id="Rectangle-49"></path>
                    <path d="M63.5261211,32.9265628 C67.3699011,25.5497399 71.6069395,17.2687837 85.8037168,17.2687837 C100.000494,17.2687837 106.724762,27.5210177 109.887778,34.5344726 C113.050795,41.5479274 114.197271,51.8001612 114.197271,51.8001612 L57.4101623,51.8001612 C57.4101623,51.8001612 59.682341,40.3033857 63.5261211,32.9265628 Z" id="Rectangle-50"></path>
                </g>
                <g id="Rectangle-51-+-Rectangle-49-+-Rectangle-120" transform="translate(1596.246377, 145.197266)" sketch:type="MSShapeGroup">
                    <path d="M2.37665648,6.61901326 C5.52634546,2.5329726 9.08766234,0.103968363 12.0614347,0.103968363 C14.9753216,0.103968363 18.3497514,2.97454272 21.1590599,6.61901326 C23.9683684,10.2634838 23.8834151,15.4404327 23.8834151,15.4404327 L0.239454303,15.4404327 C0.239454303,15.4404327 -0.773032506,10.7050539 2.37665648,6.61901326 Z" id="Rectangle-49"></path>
                    <path d="M18.9356707,9.81464852 C20.0814128,7.61578784 21.3443762,5.1474259 25.5761079,5.1474259 C29.8078396,5.1474259 31.8121885,8.20338028 32.7550108,10.2939293 C33.6978332,12.3844784 34.039571,15.4404327 34.039571,15.4404327 L17.1126445,15.4404327 C17.1126445,15.4404327 17.7899286,12.0135092 18.9356707,9.81464852 Z" id="Rectangle-50"></path>
                </g>
                <g id="Rectangle-51-+-Rectangle-49-+-Rectangle-122" transform="translate(1732.166667, 431.000000)" sketch:type="MSShapeGroup">
                    <path d="M8.2799645,23.0597881 C19.2530745,8.8245497 31.660243,0.36221236 42.0204822,0.36221236 C52.1720883,0.36221236 63.9281662,10.362923 73.7154344,23.0597881 C83.5027027,35.7566533 83.2067366,53.7924751 83.2067366,53.7924751 L0.834227893,53.7924751 C0.834227893,53.7924751 -2.6931455,37.2950266 8.2799645,23.0597881 Z" id="Rectangle-49"></path>
                    <path d="M65.9694334,34.192969 C69.9610512,26.5324222 74.3610526,17.9329677 89.1038597,17.9329677 C103.846667,17.9329677 110.82956,28.5795184 114.114231,35.8627215 C117.398903,43.1459247 118.589473,53.7924751 118.589473,53.7924751 L59.6182455,53.7924751 C59.6182455,53.7924751 61.9778156,41.8535159 65.9694334,34.192969 Z" id="Rectangle-50"></path>
                </g>
                <g id="Rectangle-54-+-Rectangle-52-+-Rectangle-80" transform="translate(1596.666667, 369.209360)" sketch:type="MSShapeGroup">
                    <path d="M0.174204799,23.5124568 C0.174204799,21.2547001 1.72959212,18.4794258 3.74689084,17.4697688 C3.74689084,17.4697688 5.40446833,15.7915928 10.6347312,15.7915928 C15.8649942,15.7915928 17.5225713,17.4697688 17.5225713,17.4697688 C19.4957111,18.5492966 21.0952569,21.2448327 21.0952569,23.5124568 L21.0952569,23.9643607 L0.174204799,23.9643607 L0.174204799,23.5124568 Z" id="Rectangle-54"></path>
                    <path d="M15.3932858,10.4527368 C20.3279459,4.19421511 25.9075089,0.473749029 30.5665581,0.473749029 C35.131784,0.473749029 40.4185485,4.87056084 44.8199299,10.4527368 C49.2213113,16.0349128 49.0882139,23.9643607 49.0882139,23.9643607 L12.0449024,23.9643607 C12.0449024,23.9643607 10.4586257,16.7112585 15.3932858,10.4527368 Z" id="Rectangle-52"></path>
                    <path d="M41.3365161,15.3474391 C43.1315658,11.9794801 45.1102675,8.1987305 51.7401784,8.1987305 C58.3700894,8.1987305 61.5103299,12.8794859 62.9874623,16.0815457 C64.4645947,19.2836055 65,23.9643607 65,23.9643607 L38.4803565,23.9643607 C38.4803565,23.9643607 39.5414665,18.715398 41.3365161,15.3474391 Z" id="Rectangle-53"></path>
                </g>
                <g id="Rectangle-51-+-Rectangle-49-+-Rectangle-119" transform="translate(1294.231884, 389.500000)" sketch:type="MSShapeGroup">
                    <path d="M4.4466476,12.3839603 C10.3396141,4.73911002 17.0027231,0.194521453 22.5665553,0.194521453 C28.0183437,0.194521453 34.3317929,5.56527347 39.5879185,12.3839603 C44.8440441,19.2026471 44.6850993,28.8885515 44.6850993,28.8885515 L0.448011276,28.8885515 C0.448011276,28.8885515 -1.44631888,20.0288106 4.4466476,12.3839603 Z" id="Rectangle-49"></path>
                    <path d="M35.4280291,18.3628908 C37.5716756,14.2488934 39.9346394,9.63066782 47.8520728,9.63066782 C55.7695063,9.63066782 59.5195785,15.3482599 61.2835687,19.2596097 C63.0475588,23.1709595 63.6869394,28.8885515 63.6869394,28.8885515 L32.0172059,28.8885515 C32.0172059,28.8885515 33.2843825,22.4768882 35.4280291,18.3628908 Z" id="Rectangle-50"></path>
                </g>
            </g>
        </g>
    </g>
</svg>