<?xml version="1.0" encoding="UTF-8" standalone="no"?>
<svg width="149px" height="57px" viewBox="0 0 149 57" version="1.1" xmlns="http://www.w3.org/2000/svg" xmlns:xlink="http://www.w3.org/1999/xlink" xmlns:sketch="http://www.bohemiancoding.com/sketch/ns">
    <!-- Generator: Sketch 3.2.2 (9983) - http://www.bohemiancoding.com/sketch -->
    <title>Rectangle 51 + Rectangle 49 + Rectangle 104</title>
    <desc>Created with Sketch.</desc>
    <defs></defs>
    <g id="Teaser" stroke="none" stroke-width="1" fill="none" fill-rule="evenodd" sketch:type="MSPage">
        <g id="Artboard-17" sketch:type="MSArtboardGroup" transform="translate(-1398.000000, -113.000000)" fill="#FFFFFF">
            <g id="Rectangle-51-+-Rectangle-49-+-Rectangle-104" sketch:type="MSLayerGroup" transform="translate(1397.863519, 113.000000)">
                <path d="M0.267708207,53.7417253 C0.267708207,48.5112753 3.85672236,42.037911 8.52229548,39.6568747 C8.52229548,39.6568747 12.0762698,35.8551244 23.8848299,35.8551244 C35.6933901,35.8551244 39.2608723,39.6630136 39.2608723,39.6630136 C43.8122937,42.2080214 47.5019498,48.518701 47.5019498,53.7417253 L47.5019498,54.7886321 L0.267708207,54.7886321 L0.267708207,53.7417253 Z" id="Rectangle-51" sketch:type="MSShapeGroup"></path>
                <path d="M34.6283964,23.4868212 C45.769563,8.98796729 58.3667512,0.368919997 68.8856608,0.368919997 C79.1927419,0.368919997 91.1288678,10.554829 101.066031,23.4868212 C111.003195,36.4188135 110.702696,54.7886321 110.702696,54.7886321 L27.068626,54.7886321 C27.068626,54.7886321 23.4872297,37.9856752 34.6283964,23.4868212 Z" id="Rectangle-49" sketch:type="MSShapeGroup"></path>
                <path d="M93.2013977,34.8261722 C97.2541484,27.0237633 101.721537,18.2650597 116.690135,18.2650597 C131.658733,18.2650597 138.748571,29.1087687 142.083548,36.526846 C145.418525,43.9449233 146.62733,54.7886321 146.62733,54.7886321 L86.7529393,54.7886321 C86.7529393,54.7886321 89.148647,42.628581 93.2013977,34.8261722 Z" id="Rectangle-50" sketch:type="MSShapeGroup"></path>
            </g>
        </g>
    </g>
</svg>