<?xml version="1.0" encoding="UTF-8" standalone="no"?>
<svg width="1322px" height="160px" viewBox="0 0 1322 160" version="1.1" xmlns="http://www.w3.org/2000/svg" xmlns:xlink="http://www.w3.org/1999/xlink" xmlns:sketch="http://www.bohemiancoding.com/sketch/ns">
    <!-- Generator: Sketch 3.2.2 (9983) - http://www.bohemiancoding.com/sketch -->
    <title>clouds-2</title>
    <desc>Created with Sketch.</desc>
    <defs></defs>
    <g id="The-view" stroke="none" stroke-width="1" fill="none" fill-rule="evenodd" sketch:type="MSPage">
        <g id="DAY" sketch:type="MSArtboardGroup" transform="translate(-118.000000, -224.000000)" fill="#FFFFFF">
            <g id="clouds-2" sketch:type="MSLayerGroup" transform="translate(118.000000, 224.000000)">
                <g id="Rectangle-54-+-Rectangle-52-+-Rectangle-65" transform="translate(169.000000, 105.000000)" sketch:type="MSShapeGroup">
                    <path d="M0.101842806,12.7359141 C0.101842806,11.5129626 0.961886797,10.0351456 2.06692757,9.51461385 C2.06692757,9.51461385 3.15953533,8.55377943 6.2172275,8.55377943 C9.27491966,8.55377943 10.3675272,9.51461385 10.3675272,9.51461385 C11.4528134,10.0707373 12.3326117,11.5217872 12.3326117,12.7359141 L12.3326117,12.9806954 L0.101842806,12.9806954 L0.101842806,12.7359141 Z" id="Rectangle-54"></path>
                    <path d="M8.99915168,5.6618991 C11.8840299,2.27186652 15.1459283,0.256614057 17.8696801,0.256614057 C20.5385814,0.256614057 23.6293053,2.63822046 26.2024205,5.6618991 C28.7755358,8.68557774 28.6977251,12.9806954 28.6977251,12.9806954 L7.04163523,12.9806954 C7.04163523,12.9806954 6.11427346,9.05193168 8.99915168,5.6618991 Z" id="Rectangle-52"></path>
                    <path d="M24.1659633,8.31319617 C25.2153769,6.48888507 26.3721564,4.44097902 30.2481043,4.44097902 C34.1240522,4.44097902 35.9598852,6.97638818 36.8234395,8.71083724 C37.6869938,10.4452863 38,12.9806954 38,12.9806954 L22.4962084,12.9806954 C22.4962084,12.9806954 23.1165497,10.1375073 24.1659633,8.31319617 Z" id="Rectangle-53"></path>
                </g>
                <g id="Rectangle-54-+-Rectangle-52-+-Rectangle-66" transform="translate(1257.000000, 136.000000)" sketch:type="MSShapeGroup">
                    <path d="M0.174204799,23.5124568 C0.174204799,21.2547001 1.72959212,18.4794258 3.74689084,17.4697688 C3.74689084,17.4697688 5.40446833,15.7915928 10.6347312,15.7915928 C15.8649942,15.7915928 17.5225713,17.4697688 17.5225713,17.4697688 C19.4957111,18.5492966 21.0952569,21.2448327 21.0952569,23.5124568 L21.0952569,23.9643607 L0.174204799,23.9643607 L0.174204799,23.5124568 Z" id="Rectangle-54"></path>
                    <path d="M15.3932858,10.4527368 C20.3279459,4.19421511 25.9075089,0.473749029 30.5665581,0.473749029 C35.131784,0.473749029 40.4185485,4.87056084 44.8199299,10.4527368 C49.2213113,16.0349128 49.0882139,23.9643607 49.0882139,23.9643607 L12.0449024,23.9643607 C12.0449024,23.9643607 10.4586257,16.7112585 15.3932858,10.4527368 Z" id="Rectangle-52"></path>
                    <path d="M41.3365161,15.3474391 C43.1315658,11.9794801 45.1102675,8.1987305 51.7401784,8.1987305 C58.3700894,8.1987305 61.5103299,12.8794859 62.9874623,16.0815457 C64.4645947,19.2836055 65,23.9643607 65,23.9643607 L38.4803565,23.9643607 C38.4803565,23.9643607 39.5414665,18.715398 41.3365161,15.3474391 Z" id="Rectangle-53"></path>
                </g>
                <g id="Rectangle-54-+-Rectangle-52-+-Rectangle-82" transform="translate(674.000000, 105.000000)" sketch:type="MSShapeGroup">
                    <path d="M0.0938025843,12.7359141 C0.0938025843,11.5129626 0.940522226,10.0045521 2.03035653,9.45704248 C2.03035653,9.45704248 2.91009833,8.55377943 5.72639375,8.55377943 C8.54268916,8.55377943 9.42243076,9.45704248 9.42243076,9.45704248 C10.4919598,10.0449617 11.3589845,11.5217872 11.3589845,12.7359141 L11.3589845,12.9806954 L0.0938025843,12.9806954 L0.0938025843,12.7359141 Z" id="Rectangle-54"></path>
                    <path d="M8.28869233,5.6618991 C10.945817,2.27186652 13.9501971,0.256614057 16.4589159,0.256614057 C18.9171144,0.256614057 21.7638338,2.63822046 24.1338084,5.6618991 C26.503783,8.68557774 26.4321152,12.9806954 26.4321152,12.9806954 L6.48571666,12.9806954 C6.48571666,12.9806954 5.63156766,9.05193168 8.28869233,5.6618991 Z" id="Rectangle-52"></path>
                    <path d="M22.2581241,8.31319617 C23.2246893,6.48888507 24.290144,4.44097902 27.8600961,4.44097902 C31.4300481,4.44097902 33.1209469,6.97638818 33.9163258,8.71083724 C34.7117048,10.4452863 35,12.9806954 35,12.9806954 L20.720192,12.9806954 C20.720192,12.9806954 21.2915589,10.1375073 22.2581241,8.31319617 Z" id="Rectangle-53"></path>
                </g>
                <g id="Rectangle-54-+-Rectangle-52-+-Rectangle-79" transform="translate(807.022026, 32.651042)" sketch:type="MSShapeGroup">
                    <path d="M0.0938025843,12.7359141 C0.0938025843,11.5129626 0.940522226,10.0045521 2.03035653,9.45704248 C2.03035653,9.45704248 2.91009833,8.55377943 5.72639375,8.55377943 C8.54268916,8.55377943 9.42243076,9.45704248 9.42243076,9.45704248 C10.4919598,10.0449617 11.3589845,11.5217872 11.3589845,12.7359141 L11.3589845,12.9806954 L0.0938025843,12.9806954 L0.0938025843,12.7359141 Z" id="Rectangle-54"></path>
                    <path d="M8.28869233,5.6618991 C10.945817,2.27186652 13.9501971,0.256614057 16.4589159,0.256614057 C18.9171144,0.256614057 21.7638338,2.63822046 24.1338084,5.6618991 C26.503783,8.68557774 26.4321152,12.9806954 26.4321152,12.9806954 L6.48571666,12.9806954 C6.48571666,12.9806954 5.63156766,9.05193168 8.28869233,5.6618991 Z" id="Rectangle-52"></path>
                    <path d="M22.2581241,8.31319617 C23.2246893,6.48888507 24.290144,4.44097902 27.8600961,4.44097902 C31.4300481,4.44097902 33.1209469,6.97638818 33.9163258,8.71083724 C34.7117048,10.4452863 35,12.9806954 35,12.9806954 L20.720192,12.9806954 C20.720192,12.9806954 21.2915589,10.1375073 22.2581241,8.31319617 Z" id="Rectangle-53"></path>
                </g>
                <g id="Rectangle-54-+-Rectangle-52-+-Rectangle-81" transform="translate(275.051049, 0.348308)" sketch:type="MSShapeGroup">
                    <path d="M0.115243175,15.6749712 C0.115243175,14.1698001 1.15549873,12.3132949 2.49443802,11.6394369 C2.49443802,11.6394369 3.57526367,10.5277285 7.03528375,10.5277285 C10.4953038,10.5277285 11.5761292,11.6394369 11.5761292,11.6394369 C12.8901221,12.3630298 13.9553238,14.1632218 13.9553238,15.6749712 L13.9553238,15.9762405 L0.115243175,15.9762405 L0.115243175,15.6749712 Z" id="Rectangle-54"></path>
                    <path d="M10.1832506,6.9684912 C13.447718,2.79614341 17.1388136,0.315832686 20.2209538,0.315832686 C23.2410263,0.315832686 26.7384244,3.24704056 29.6501075,6.9684912 C32.5617905,10.6899418 32.4737415,15.9762405 32.4737415,15.9762405 L7.96816618,15.9762405 C7.96816618,15.9762405 6.91878313,11.140839 10.1832506,6.9684912 Z" id="Rectangle-52"></path>
                    <path d="M27.3456953,10.2316261 C28.5331897,7.98632009 29.8421769,5.46582033 34.228118,5.46582033 C38.6140591,5.46582033 40.691449,8.58632392 41.6686289,10.7210304 C42.6458088,12.855737 43,15.9762405 43,15.9762405 L25.4562358,15.9762405 C25.4562358,15.9762405 26.1582009,12.476932 27.3456953,10.2316261 Z" id="Rectangle-53"></path>
                </g>
                <g id="Rectangle-54-+-Rectangle-52-+-Rectangle-91" transform="translate(385.051049, 60.348308)" sketch:type="MSShapeGroup">
                    <path d="M0.115243175,15.6749712 C0.115243175,14.1698001 1.15549873,12.3132949 2.49443802,11.6394369 C2.49443802,11.6394369 3.57526367,10.5277285 7.03528375,10.5277285 C10.4953038,10.5277285 11.5761292,11.6394369 11.5761292,11.6394369 C12.8901221,12.3630298 13.9553238,14.1632218 13.9553238,15.6749712 L13.9553238,15.9762405 L0.115243175,15.9762405 L0.115243175,15.6749712 Z" id="Rectangle-54"></path>
                    <path d="M10.1832506,6.9684912 C13.447718,2.79614341 17.1388136,0.315832686 20.2209538,0.315832686 C23.2410263,0.315832686 26.7384244,3.24704056 29.6501075,6.9684912 C32.5617905,10.6899418 32.4737415,15.9762405 32.4737415,15.9762405 L7.96816618,15.9762405 C7.96816618,15.9762405 6.91878313,11.140839 10.1832506,6.9684912 Z" id="Rectangle-52"></path>
                    <path d="M27.3456953,10.2316261 C28.5331897,7.98632009 29.8421769,5.46582033 34.228118,5.46582033 C38.6140591,5.46582033 40.691449,8.58632392 41.6686289,10.7210304 C42.6458088,12.855737 43,15.9762405 43,15.9762405 L25.4562358,15.9762405 C25.4562358,15.9762405 26.1582009,12.476932 27.3456953,10.2316261 Z" id="Rectangle-53"></path>
                </g>
                <g id="Rectangle-54-+-Rectangle-52-+-Rectangle-86" transform="translate(957.000000, 0.000000)" sketch:type="MSShapeGroup">
                    <path d="M0.0938025843,12.7359141 C0.0938025843,11.5129626 0.940522226,10.0045521 2.03035653,9.45704248 C2.03035653,9.45704248 2.91009833,8.55377943 5.72639375,8.55377943 C8.54268916,8.55377943 9.42243076,9.45704248 9.42243076,9.45704248 C10.4919598,10.0449617 11.3589845,11.5217872 11.3589845,12.7359141 L11.3589845,12.9806954 L0.0938025843,12.9806954 L0.0938025843,12.7359141 Z" id="Rectangle-54"></path>
                    <path d="M8.28869233,5.6618991 C10.945817,2.27186652 13.9501971,0.256614057 16.4589159,0.256614057 C18.9171144,0.256614057 21.7638338,2.63822046 24.1338084,5.6618991 C26.503783,8.68557774 26.4321152,12.9806954 26.4321152,12.9806954 L6.48571666,12.9806954 C6.48571666,12.9806954 5.63156766,9.05193168 8.28869233,5.6618991 Z" id="Rectangle-52"></path>
                    <path d="M22.2581241,8.31319617 C23.2246893,6.48888507 24.290144,4.44097902 27.8600961,4.44097902 C31.4300481,4.44097902 33.1209469,6.97638818 33.9163258,8.71083724 C34.7117048,10.4452863 35,12.9806954 35,12.9806954 L20.720192,12.9806954 C20.720192,12.9806954 21.2915589,10.1375073 22.2581241,8.31319617 Z" id="Rectangle-53"></path>
                </g>
                <g id="Rectangle-54-+-Rectangle-52-+-Rectangle-89" transform="translate(1207.408026, 38.000000)" sketch:type="MSShapeGroup">
                    <path d="M0.0938025843,12.7359141 C0.0938025843,11.5129626 0.940522226,10.0045521 2.03035653,9.45704248 C2.03035653,9.45704248 2.91009833,8.55377943 5.72639375,8.55377943 C8.54268916,8.55377943 9.42243076,9.45704248 9.42243076,9.45704248 C10.4919598,10.0449617 11.3589845,11.5217872 11.3589845,12.7359141 L11.3589845,12.9806954 L0.0938025843,12.9806954 L0.0938025843,12.7359141 Z" id="Rectangle-54"></path>
                    <path d="M8.28869233,5.6618991 C10.945817,2.27186652 13.9501971,0.256614057 16.4589159,0.256614057 C18.9171144,0.256614057 21.7638338,2.63822046 24.1338084,5.6618991 C26.503783,8.68557774 26.4321152,12.9806954 26.4321152,12.9806954 L6.48571666,12.9806954 C6.48571666,12.9806954 5.63156766,9.05193168 8.28869233,5.6618991 Z" id="Rectangle-52"></path>
                    <path d="M22.2581241,8.31319617 C23.2246893,6.48888507 24.290144,4.44097902 27.8600961,4.44097902 C31.4300481,4.44097902 33.1209469,6.97638818 33.9163258,8.71083724 C34.7117048,10.4452863 35,12.9806954 35,12.9806954 L20.720192,12.9806954 C20.720192,12.9806954 21.2915589,10.1375073 22.2581241,8.31319617 Z" id="Rectangle-53"></path>
                </g>
                <g id="Rectangle-54-+-Rectangle-52-+-Rectangle-88" transform="translate(1042.500000, 111.500000)" sketch:type="MSShapeGroup">
                    <path d="M0.174204799,23.5124568 C0.174204799,21.2547001 1.72959212,18.4794258 3.74689084,17.4697688 C3.74689084,17.4697688 5.40446833,15.7915928 10.6347312,15.7915928 C15.8649942,15.7915928 17.5225713,17.4697688 17.5225713,17.4697688 C19.4957111,18.5492966 21.0952569,21.2448327 21.0952569,23.5124568 L21.0952569,23.9643607 L0.174204799,23.9643607 L0.174204799,23.5124568 Z" id="Rectangle-54"></path>
                    <path d="M15.3932858,10.4527368 C20.3279459,4.19421511 25.9075089,0.473749029 30.5665581,0.473749029 C35.131784,0.473749029 40.4185485,4.87056084 44.8199299,10.4527368 C49.2213113,16.0349128 49.0882139,23.9643607 49.0882139,23.9643607 L12.0449024,23.9643607 C12.0449024,23.9643607 10.4586257,16.7112585 15.3932858,10.4527368 Z" id="Rectangle-52"></path>
                    <path d="M41.3365161,15.3474391 C43.1315658,11.9794801 45.1102675,8.1987305 51.7401784,8.1987305 C58.3700894,8.1987305 61.5103299,12.8794859 62.9874623,16.0815457 C64.4645947,19.2836055 65,23.9643607 65,23.9643607 L38.4803565,23.9643607 C38.4803565,23.9643607 39.5414665,18.715398 41.3365161,15.3474391 Z" id="Rectangle-53"></path>
                </g>
                <g id="Rectangle-54-+-Rectangle-52-+-Rectangle-77" transform="translate(0.000000, 58.694255)" sketch:type="MSShapeGroup">
                    <path d="M0.186868695,26.5361841 C0.186868695,23.9880775 1.92917433,20.8129044 4.18609675,19.6386422 C4.18609675,19.6386422 5.79734857,17.8224087 11.4078278,17.8224087 C17.018307,17.8224087 18.6295584,19.6386422 18.6295584,19.6386422 C20.8382708,20.8999428 22.628786,23.9916951 22.628786,26.5361841 L22.628786,27.0462034 L0.186868695,27.0462034 L0.186868695,26.5361841 Z" id="Rectangle-54"></path>
                    <path d="M16.5123075,11.79697 C21.8056949,4.7335957 27.7908668,0.534673665 32.7886077,0.534673665 C37.6857046,0.534673665 43.3567929,5.49692022 48.0781346,11.79697 C52.7994764,18.0970198 52.6567035,27.0462034 52.6567035,27.0462034 L12.9205119,27.0462034 C12.9205119,27.0462034 11.2189201,18.8603444 16.5123075,11.79697 Z" id="Rectangle-52"></path>
                    <path d="M44.3414926,17.3211363 C46.2670341,13.5200542 48.3895784,9.25309609 55.5014537,9.25309609 C62.613329,9.25309609 65.9818507,14.5358017 67.5663639,18.1496498 C69.1508771,21.763498 69.7252039,27.0462034 69.7252039,27.0462034 L41.2777032,27.0462034 C41.2777032,27.0462034 42.415951,21.1222184 44.3414926,17.3211363 Z" id="Rectangle-53"></path>
                </g>
            </g>
        </g>
    </g>
</svg>