<?xml version="1.0" encoding="UTF-8" standalone="no"?>
<svg width="1871px" height="616px" viewBox="0 0 1871 616" version="1.1" xmlns="http://www.w3.org/2000/svg" xmlns:xlink="http://www.w3.org/1999/xlink" xmlns:sketch="http://www.bohemiancoding.com/sketch/ns">
    <!-- Generator: Sketch 3.2.2 (9983) - http://www.bohemiancoding.com/sketch -->
    <title>Group</title>
    <desc>Created with Sketch.</desc>
    <defs></defs>
    <g id="Teaser" stroke="none" stroke-width="1" fill="none" fill-rule="evenodd" sketch:type="MSPage">
        <g id="Artboard-8" sketch:type="MSArtboardGroup" transform="translate(-49.000000, -52.000000)" fill="#FFFFFF">
            <g id="Group" sketch:type="MSLayerGroup" transform="translate(49.000000, 52.000000)">
                <g id="Rectangle-51-+-Rectangle-49-+-Rectangle-51" transform="translate(1140.272963, 238.219877)" sketch:type="MSShapeGroup">
                    <path d="M0.172900476,36.3360007 C0.172900476,32.7995747 2.56668942,28.3778434 5.69738602,26.7217465 C5.69738602,26.7217465 7.79950985,24.2424637 15.4261183,24.2424637 C23.0527268,24.2424637 25.1548501,26.7217465 25.1548501,26.7217465 C28.2059389,28.4951265 30.679335,32.8045954 30.679335,36.3360007 L30.679335,37.0438382 L0.172900476,37.0438382 L0.172900476,36.3360007 Z" id="Rectangle-51"></path>
                    <path d="M22.3648961,15.8799731 C29.5604657,6.07696876 37.6964129,0.249435186 44.4900951,0.249435186 C51.1469669,0.249435186 58.8559643,7.13635953 65.2739233,15.8799731 C71.6918822,24.6235867 71.4978037,37.0438382 71.4978037,37.0438382 L17.4823865,37.0438382 C17.4823865,37.0438382 15.1693266,25.6829775 22.3648961,15.8799731 Z" id="Rectangle-49"></path>
                    <path d="M60.1945165,23.5467657 C62.8120027,18.27138 65.6972846,12.3494215 75.3648168,12.3494215 C85.032349,12.3494215 89.611351,19.6810995 91.7652601,24.6966299 C93.9191691,29.7121604 94.6998807,37.0438382 94.6998807,37.0438382 L56.0297524,37.0438382 C56.0297524,37.0438382 57.5770304,28.8221515 60.1945165,23.5467657 Z" id="Rectangle-50"></path>
                </g>
                <g id="Rectangle-51-+-Rectangle-49-+-Rectangle-56" transform="translate(570.550725, 495.000000)" sketch:type="MSShapeGroup">
                    <path d="M0.267708207,53.7417253 C0.267708207,48.5112753 3.85672236,42.037911 8.52229548,39.6568747 C8.52229548,39.6568747 12.0762698,35.8551244 23.8848299,35.8551244 C35.6933901,35.8551244 39.2608723,39.6630136 39.2608723,39.6630136 C43.8122937,42.2080214 47.5019498,48.518701 47.5019498,53.7417253 L47.5019498,54.7886321 L0.267708207,54.7886321 L0.267708207,53.7417253 Z" id="Rectangle-51"></path>
                    <path d="M34.6283964,23.4868212 C45.769563,8.98796729 58.3667512,0.368919997 68.8856608,0.368919997 C79.1927419,0.368919997 91.1288678,10.554829 101.066031,23.4868212 C111.003195,36.4188135 110.702696,54.7886321 110.702696,54.7886321 L27.068626,54.7886321 C27.068626,54.7886321 23.4872297,37.9856752 34.6283964,23.4868212 Z" id="Rectangle-49"></path>
                    <path d="M93.2013977,34.8261722 C97.2541484,27.0237633 101.721537,18.2650597 116.690135,18.2650597 C131.658733,18.2650597 138.748571,29.1087687 142.083548,36.526846 C145.418525,43.9449233 146.62733,54.7886321 146.62733,54.7886321 L86.7529393,54.7886321 C86.7529393,54.7886321 89.148647,42.628581 93.2013977,34.8261722 Z" id="Rectangle-50"></path>
                </g>
                <g id="Rectangle-54-+-Rectangle-52-+-Rectangle-54" transform="translate(298.000000, 12.000000)" sketch:type="MSShapeGroup">
                    <path d="M0.174204799,23.5124568 C0.174204799,21.2547001 1.72959212,18.4794258 3.74689084,17.4697688 C3.74689084,17.4697688 5.40446833,15.7915928 10.6347312,15.7915928 C15.8649942,15.7915928 17.5225713,17.4697688 17.5225713,17.4697688 C19.4957111,18.5492966 21.0952569,21.2448327 21.0952569,23.5124568 L21.0952569,23.9643607 L0.174204799,23.9643607 L0.174204799,23.5124568 Z" id="Rectangle-54"></path>
                    <path d="M15.3932858,10.4527368 C20.3279459,4.19421511 25.9075089,0.473749029 30.5665581,0.473749029 C35.131784,0.473749029 40.4185485,4.87056084 44.8199299,10.4527368 C49.2213113,16.0349128 49.0882139,23.9643607 49.0882139,23.9643607 L12.0449024,23.9643607 C12.0449024,23.9643607 10.4586257,16.7112585 15.3932858,10.4527368 Z" id="Rectangle-52"></path>
                    <path d="M41.3365161,15.3474391 C43.1315658,11.9794801 45.1102675,8.1987305 51.7401784,8.1987305 C58.3700894,8.1987305 61.5103299,12.8794859 62.9874623,16.0815457 C64.4645947,19.2836055 65,23.9643607 65,23.9643607 L38.4803565,23.9643607 C38.4803565,23.9643607 39.5414665,18.715398 41.3365161,15.3474391 Z" id="Rectangle-53"></path>
                </g>
                <g id="Rectangle-54-+-Rectangle-52-+-Rectangle-55" transform="translate(1359.000000, 0.000000)" sketch:type="MSShapeGroup">
                    <path d="M0.174204799,23.5124568 C0.174204799,21.2547001 1.72959212,18.4794258 3.74689084,17.4697688 C3.74689084,17.4697688 5.40446833,15.7915928 10.6347312,15.7915928 C15.8649942,15.7915928 17.5225713,17.4697688 17.5225713,17.4697688 C19.4957111,18.5492966 21.0952569,21.2448327 21.0952569,23.5124568 L21.0952569,23.9643607 L0.174204799,23.9643607 L0.174204799,23.5124568 Z" id="Rectangle-54"></path>
                    <path d="M15.3932858,10.4527368 C20.3279459,4.19421511 25.9075089,0.473749029 30.5665581,0.473749029 C35.131784,0.473749029 40.4185485,4.87056084 44.8199299,10.4527368 C49.2213113,16.0349128 49.0882139,23.9643607 49.0882139,23.9643607 L12.0449024,23.9643607 C12.0449024,23.9643607 10.4586257,16.7112585 15.3932858,10.4527368 Z" id="Rectangle-52"></path>
                    <path d="M41.3365161,15.3474391 C43.1315658,11.9794801 45.1102675,8.1987305 51.7401784,8.1987305 C58.3700894,8.1987305 61.5103299,12.8794859 62.9874623,16.0815457 C64.4645947,19.2836055 65,23.9643607 65,23.9643607 L38.4803565,23.9643607 C38.4803565,23.9643607 39.5414665,18.715398 41.3365161,15.3474391 Z" id="Rectangle-53"></path>
                </g>
                <g id="Rectangle-51-+-Rectangle-49-+-Rectangle-61" transform="translate(465.115942, 365.500000)" sketch:type="MSShapeGroup">
                    <path d="M4.4466476,12.3839603 C10.3396141,4.73911002 17.0027231,0.194521453 22.5665553,0.194521453 C28.0183437,0.194521453 34.3317929,5.56527347 39.5879185,12.3839603 C44.8440441,19.2026471 44.6850993,28.8885515 44.6850993,28.8885515 L0.448011276,28.8885515 C0.448011276,28.8885515 -1.44631888,20.0288106 4.4466476,12.3839603 Z" id="Rectangle-49"></path>
                    <path d="M35.4280291,18.3628908 C37.5716756,14.2488934 39.9346394,9.63066782 47.8520728,9.63066782 C55.7695063,9.63066782 59.5195785,15.3482599 61.2835687,19.2596097 C63.0475588,23.1709595 63.6869394,28.8885515 63.6869394,28.8885515 L32.0172059,28.8885515 C32.0172059,28.8885515 33.2843825,22.4768882 35.4280291,18.3628908 Z" id="Rectangle-50"></path>
                </g>
                <g id="Rectangle-54-+-Rectangle-52-+-Rectangle-70" transform="translate(571.000000, 105.000000)" sketch:type="MSShapeGroup">
                    <path d="M0.101842806,12.7359141 C0.101842806,11.5129626 0.961886797,10.0351456 2.06692757,9.51461385 C2.06692757,9.51461385 3.15953533,8.55377943 6.2172275,8.55377943 C9.27491966,8.55377943 10.3675272,9.51461385 10.3675272,9.51461385 C11.4528134,10.0707373 12.3326117,11.5217872 12.3326117,12.7359141 L12.3326117,12.9806954 L0.101842806,12.9806954 L0.101842806,12.7359141 Z" id="Rectangle-54"></path>
                    <path d="M8.99915168,5.6618991 C11.8840299,2.27186652 15.1459283,0.256614057 17.8696801,0.256614057 C20.5385814,0.256614057 23.6293053,2.63822046 26.2024205,5.6618991 C28.7755358,8.68557774 28.6977251,12.9806954 28.6977251,12.9806954 L7.04163523,12.9806954 C7.04163523,12.9806954 6.11427346,9.05193168 8.99915168,5.6618991 Z" id="Rectangle-52"></path>
                    <path d="M24.1659633,8.31319617 C25.2153769,6.48888507 26.3721564,4.44097902 30.2481043,4.44097902 C34.1240522,4.44097902 35.9598852,6.97638818 36.8234395,8.71083724 C37.6869938,10.4452863 38,12.9806954 38,12.9806954 L22.4962084,12.9806954 C22.4962084,12.9806954 23.1165497,10.1375073 24.1659633,8.31319617 Z" id="Rectangle-53"></path>
                </g>
                <g id="Rectangle-51-+-Rectangle-49-+-Rectangle-78" transform="translate(12.487858, 492.000000)" sketch:type="MSShapeGroup">
                    <path d="M0.267708207,53.7417253 C0.267708207,48.5112753 3.85672236,42.037911 8.52229548,39.6568747 C8.52229548,39.6568747 12.0762698,35.8551244 23.8848299,35.8551244 C35.6933901,35.8551244 39.2608723,39.6630136 39.2608723,39.6630136 C43.8122937,42.2080214 47.5019498,48.518701 47.5019498,53.7417253 L47.5019498,54.7886321 L0.267708207,54.7886321 L0.267708207,53.7417253 Z" id="Rectangle-51"></path>
                    <path d="M34.6283964,23.4868212 C45.769563,8.98796729 58.3667512,0.368919997 68.8856608,0.368919997 C79.1927419,0.368919997 91.1288678,10.554829 101.066031,23.4868212 C111.003195,36.4188135 110.702696,54.7886321 110.702696,54.7886321 L27.068626,54.7886321 C27.068626,54.7886321 23.4872297,37.9856752 34.6283964,23.4868212 Z" id="Rectangle-49"></path>
                    <path d="M93.2013977,34.8261722 C97.2541484,27.0237633 101.721537,18.2650597 116.690135,18.2650597 C131.658733,18.2650597 138.748571,29.1087687 142.083548,36.526846 C145.418525,43.9449233 146.62733,54.7886321 146.62733,54.7886321 L86.7529393,54.7886321 C86.7529393,54.7886321 89.148647,42.628581 93.2013977,34.8261722 Z" id="Rectangle-50"></path>
                </g>
                <g id="Rectangle-54-+-Rectangle-52-+-Rectangle-78" transform="translate(187.550725, 393.209360)" sketch:type="MSShapeGroup">
                    <path d="M0.174204799,23.5124568 C0.174204799,21.2547001 1.72959212,18.4794258 3.74689084,17.4697688 C3.74689084,17.4697688 5.40446833,15.7915928 10.6347312,15.7915928 C15.8649942,15.7915928 17.5225713,17.4697688 17.5225713,17.4697688 C19.4957111,18.5492966 21.0952569,21.2448327 21.0952569,23.5124568 L21.0952569,23.9643607 L0.174204799,23.9643607 L0.174204799,23.5124568 Z" id="Rectangle-54"></path>
                    <path d="M15.3932858,10.4527368 C20.3279459,4.19421511 25.9075089,0.473749029 30.5665581,0.473749029 C35.131784,0.473749029 40.4185485,4.87056084 44.8199299,10.4527368 C49.2213113,16.0349128 49.0882139,23.9643607 49.0882139,23.9643607 L12.0449024,23.9643607 C12.0449024,23.9643607 10.4586257,16.7112585 15.3932858,10.4527368 Z" id="Rectangle-52"></path>
                    <path d="M41.3365161,15.3474391 C43.1315658,11.9794801 45.1102675,8.1987305 51.7401784,8.1987305 C58.3700894,8.1987305 61.5103299,12.8794859 62.9874623,16.0815457 C64.4645947,19.2836055 65,23.9643607 65,23.9643607 L38.4803565,23.9643607 C38.4803565,23.9643607 39.5414665,18.715398 41.3365161,15.3474391 Z" id="Rectangle-53"></path>
                </g>
                <g id="Rectangle-51-+-Rectangle-49-+-Rectangle-71" transform="translate(0.275362, 295.250000)" sketch:type="MSShapeGroup">
                    <path d="M2.37665648,6.61901326 C5.52634546,2.5329726 9.08766234,0.103968363 12.0614347,0.103968363 C14.9753216,0.103968363 18.3497514,2.97454272 21.1590599,6.61901326 C23.9683684,10.2634838 23.8834151,15.4404327 23.8834151,15.4404327 L0.239454303,15.4404327 C0.239454303,15.4404327 -0.773032506,10.7050539 2.37665648,6.61901326 Z" id="Rectangle-49"></path>
                    <path d="M18.9356707,9.81464852 C20.0814128,7.61578784 21.3443762,5.1474259 25.5761079,5.1474259 C29.8078396,5.1474259 31.8121885,8.20338028 32.7550108,10.2939293 C33.6978332,12.3844784 34.039571,15.4404327 34.039571,15.4404327 L17.1126445,15.4404327 C17.1126445,15.4404327 17.7899286,12.0135092 18.9356707,9.81464852 Z" id="Rectangle-50"></path>
                </g>
                <g id="Rectangle-54-+-Rectangle-52-+-Rectangle-75" transform="translate(1597.246377, 89.500000)" sketch:type="MSShapeGroup">
                    <path d="M0.101842806,12.7359141 C0.101842806,11.5129626 0.961886797,10.0351456 2.06692757,9.51461385 C2.06692757,9.51461385 3.15953533,8.55377943 6.2172275,8.55377943 C9.27491966,8.55377943 10.3675272,9.51461385 10.3675272,9.51461385 C11.4528134,10.0707373 12.3326117,11.5217872 12.3326117,12.7359141 L12.3326117,12.9806954 L0.101842806,12.9806954 L0.101842806,12.7359141 Z" id="Rectangle-54"></path>
                    <path d="M8.99915168,5.6618991 C11.8840299,2.27186652 15.1459283,0.256614057 17.8696801,0.256614057 C20.5385814,0.256614057 23.6293053,2.63822046 26.2024205,5.6618991 C28.7755358,8.68557774 28.6977251,12.9806954 28.6977251,12.9806954 L7.04163523,12.9806954 C7.04163523,12.9806954 6.11427346,9.05193168 8.99915168,5.6618991 Z" id="Rectangle-52"></path>
                    <path d="M24.1659633,8.31319617 C25.2153769,6.48888507 26.3721564,4.44097902 30.2481043,4.44097902 C34.1240522,4.44097902 35.9598852,6.97638818 36.8234395,8.71083724 C37.6869938,10.4452863 38,12.9806954 38,12.9806954 L22.4962084,12.9806954 C22.4962084,12.9806954 23.1165497,10.1375073 24.1659633,8.31319617 Z" id="Rectangle-53"></path>
                </g>
                <g id="Rectangle-54-+-Rectangle-52-+-Rectangle-56" transform="translate(1809.166667, 235.000000)" sketch:type="MSShapeGroup">
                    <path d="M0.174204799,23.5124568 C0.174204799,21.2547001 1.72959212,18.4794258 3.74689084,17.4697688 C3.74689084,17.4697688 5.40446833,15.7915928 10.6347312,15.7915928 C15.8649942,15.7915928 17.5225713,17.4697688 17.5225713,17.4697688 C19.4957111,18.5492966 21.0952569,21.2448327 21.0952569,23.5124568 L21.0952569,23.9643607 L0.174204799,23.9643607 L0.174204799,23.5124568 Z" id="Rectangle-54"></path>
                    <path d="M15.3932858,10.4527368 C20.3279459,4.19421511 25.9075089,0.473749029 30.5665581,0.473749029 C35.131784,0.473749029 40.4185485,4.87056084 44.8199299,10.4527368 C49.2213113,16.0349128 49.0882139,23.9643607 49.0882139,23.9643607 L12.0449024,23.9643607 C12.0449024,23.9643607 10.4586257,16.7112585 15.3932858,10.4527368 Z" id="Rectangle-52"></path>
                    <path d="M41.3365161,15.3474391 C43.1315658,11.9794801 45.1102675,8.1987305 51.7401784,8.1987305 C58.3700894,8.1987305 61.5103299,12.8794859 62.9874623,16.0815457 C64.4645947,19.2836055 65,23.9643607 65,23.9643607 L38.4803565,23.9643607 C38.4803565,23.9643607 39.5414665,18.715398 41.3365161,15.3474391 Z" id="Rectangle-53"></path>
                </g>
                <g id="Rectangle-54-+-Rectangle-52-+-Rectangle-71" transform="translate(918.000000, 150.250000)" sketch:type="MSShapeGroup">
                    <path d="M0.101842806,12.7359141 C0.101842806,11.5129626 0.961886797,10.0351456 2.06692757,9.51461385 C2.06692757,9.51461385 3.15953533,8.55377943 6.2172275,8.55377943 C9.27491966,8.55377943 10.3675272,9.51461385 10.3675272,9.51461385 C11.4528134,10.0707373 12.3326117,11.5217872 12.3326117,12.7359141 L12.3326117,12.9806954 L0.101842806,12.9806954 L0.101842806,12.7359141 Z" id="Rectangle-54"></path>
                    <path d="M8.99915168,5.6618991 C11.8840299,2.27186652 15.1459283,0.256614057 17.8696801,0.256614057 C20.5385814,0.256614057 23.6293053,2.63822046 26.2024205,5.6618991 C28.7755358,8.68557774 28.6977251,12.9806954 28.6977251,12.9806954 L7.04163523,12.9806954 C7.04163523,12.9806954 6.11427346,9.05193168 8.99915168,5.6618991 Z" id="Rectangle-52"></path>
                    <path d="M24.1659633,8.31319617 C25.2153769,6.48888507 26.3721564,4.44097902 30.2481043,4.44097902 C34.1240522,4.44097902 35.9598852,6.97638818 36.8234395,8.71083724 C37.6869938,10.4452863 38,12.9806954 38,12.9806954 L22.4962084,12.9806954 C22.4962084,12.9806954 23.1165497,10.1375073 24.1659633,8.31319617 Z" id="Rectangle-53"></path>
                </g>
                <g id="Rectangle-54-+-Rectangle-52-+-Rectangle-77" transform="translate(1479.603800, 600.207782)" sketch:type="MSShapeGroup">
                    <path d="M0.101842806,12.7359141 C0.101842806,11.5129626 0.961886797,10.0351456 2.06692757,9.51461385 C2.06692757,9.51461385 3.15953533,8.55377943 6.2172275,8.55377943 C9.27491966,8.55377943 10.3675272,9.51461385 10.3675272,9.51461385 C11.4528134,10.0707373 12.3326117,11.5217872 12.3326117,12.7359141 L12.3326117,12.9806954 L0.101842806,12.9806954 L0.101842806,12.7359141 Z" id="Rectangle-54"></path>
                    <path d="M8.99915168,5.6618991 C11.8840299,2.27186652 15.1459283,0.256614057 17.8696801,0.256614057 C20.5385814,0.256614057 23.6293053,2.63822046 26.2024205,5.6618991 C28.7755358,8.68557774 28.6977251,12.9806954 28.6977251,12.9806954 L7.04163523,12.9806954 C7.04163523,12.9806954 6.11427346,9.05193168 8.99915168,5.6618991 Z" id="Rectangle-52"></path>
                    <path d="M24.1659633,8.31319617 C25.2153769,6.48888507 26.3721564,4.44097902 30.2481043,4.44097902 C34.1240522,4.44097902 35.9598852,6.97638818 36.8234395,8.71083724 C37.6869938,10.4452863 38,12.9806954 38,12.9806954 L22.4962084,12.9806954 C22.4962084,12.9806954 23.1165497,10.1375073 24.1659633,8.31319617 Z" id="Rectangle-53"></path>
                </g>
            </g>
        </g>
    </g>
</svg>