<?xml version="1.0" encoding="UTF-8" standalone="no"?>
<svg width="800px" height="600px" viewBox="0 0 800 600" version="1.1" xmlns="http://www.w3.org/2000/svg" xmlns:xlink="http://www.w3.org/1999/xlink" xmlns:sketch="http://www.bohemiancoding.com/sketch/ns">
    <!-- Generator: Sketch 3.2.2 (9983) - http://www.bohemiancoding.com/sketch -->
    <title>Artboard 17</title>
    <desc>Created with Sketch.</desc>
    <defs></defs>
    <g id="Teaser" stroke="none" stroke-width="1" fill="none" fill-rule="evenodd" sketch:type="MSPage">
        <g id="Artboard-17" sketch:type="MSArtboardGroup" fill="#FFFFFF">
            <g id="clouds-2" sketch:type="MSLayerGroup" transform="translate(53.000000, 84.000000)">
                <g id="Group-3" transform="translate(558.103448, 0.500000)" sketch:type="MSShapeGroup">
                    <g id="Rectangle-51-+-Rectangle-49-+-Rectangle-104" transform="translate(0.487598, 0.243560)">
                        <path d="M0.115391468,23.1645368 C0.115391468,20.9100325 1.66238033,18.1197892 3.67340322,17.0934805 C3.67340322,17.0934805 5.20528869,15.454795 10.2951853,15.454795 C15.3850819,15.454795 16.9286091,17.0987729 16.9286091,17.0987729 C18.8872148,18.1942975 20.4749784,20.9001792 20.4749784,23.1645368 L20.4749784,23.6157897 L0.115391468,23.6157897 L0.115391468,23.1645368 Z" id="Rectangle-51"></path>
                        <path d="M14.9260329,10.1236298 C19.7282599,3.87412383 25.1580824,0.15901724 29.6920952,0.15901724 C34.1348025,0.15901724 39.2796844,4.54949526 43.5629445,10.1236298 C47.8462046,15.6977644 47.7166791,23.6157897 47.7166791,23.6157897 L11.6675112,23.6157897 C11.6675112,23.6157897 10.1238059,16.3731359 14.9260329,10.1236298 Z" id="Rectangle-49"></path>
                        <path d="M40.1730163,15.0112811 C41.9198915,11.6481738 43.8454902,7.87287054 50.297472,7.87287054 C56.7494538,7.87287054 59.8054187,12.5468831 61.2429088,15.7443302 C62.6803989,18.9417773 63.2014354,23.6157897 63.2014354,23.6157897 L37.3935083,23.6157897 C37.3935083,23.6157897 38.426141,18.3743884 40.1730163,15.0112811 Z" id="Rectangle-50"></path>
                    </g>
                </g>
                <g id="Group-4" transform="translate(426.051724, 305.777027)" sketch:type="MSShapeGroup">
                    <g id="Rectangle-51-+-Rectangle-49-+-Rectangle-104" transform="translate(0.512840, 0.296948)">
                        <path d="M0.158990731,31.9169752 C0.158990731,28.8106339 2.29049051,24.9661312 5.06135395,23.5520442 C5.06135395,23.5520442 7.17204372,21.2942013 14.1850959,21.2942013 C21.198148,21.2942013 23.3088373,23.5520442 23.3088373,23.5520442 C26.0163374,25.0655267 28.2111999,28.815044 28.2111999,31.9169752 L28.2111999,32.5387286 L0.158990731,32.5387286 L0.158990731,31.9169752 Z" id="Rectangle-51"></path>
                        <path d="M20.5656529,13.9487203 C27.182343,5.3379144 34.6637579,0.21909997 40.9108922,0.21909997 C47.0322225,0.21909997 54.1210354,6.26846671 60.0226732,13.9487203 C65.924311,21.6289738 65.745846,32.5387286 65.745846,32.5387286 L16.0759384,32.5387286 C16.0759384,32.5387286 13.9489629,22.5595261 20.5656529,13.9487203 Z" id="Rectangle-49"></path>
                        <path d="M55.3519019,20.6831111 C57.7588127,16.0492947 60.4119754,10.8475389 69.3017601,10.8475389 C78.1915448,10.8475389 82.4021688,17.2875703 84.382797,21.6931338 C86.3634253,26.0986974 87.0813291,32.5387286 87.0813291,32.5387286 L51.5221907,32.5387286 C51.5221907,32.5387286 52.944991,25.3169275 55.3519019,20.6831111 Z" id="Rectangle-50"></path>
                    </g>
                </g>
                <g id="Rectangle-49-+-Rectangle-50-+-Rectangle-51-+-Rectangle-49-+-Rectangle-60" transform="translate(0.320423, 449.750000)" sketch:type="MSShapeGroup">
                    <g id="Rectangle-51-+-Rectangle-49-+-Rectangle-57">
                        <path d="M19.6670453,0.172745253 C39.3094726,0.172745253 39.3094726,25.654549 39.3094726,25.654549 L0.0246180757,25.654549 C0.0246180757,25.654549 0.0246180757,0.172745253 19.6670453,0.172745253 Z" id="Rectangle-49"></path>
                        <path d="M31.0887087,16.3072102 C32.9923793,12.6537647 35.090815,8.55253817 42.1219112,8.55253817 C49.1530074,8.55253817 52.4832683,13.6300598 54.049784,17.1035436 C55.6162998,20.5770274 56.1841033,25.654549 56.1841033,25.654549 L28.0597188,25.654549 C28.0597188,25.654549 29.1850381,19.9606557 31.0887087,16.3072102 Z" id="Rectangle-50"></path>
                    </g>
                </g>
                <g id="Rectangle-49-+-Rectangle-50-+-Rectangle-51-+-Rectangle-49-+-Rectangle-61" transform="translate(108.968310, 52.250000)" sketch:type="MSShapeGroup">
                    <g id="Rectangle-51-+-Rectangle-49-+-Rectangle-57" transform="translate(0.041804, 0.578965)">
                        <path d="M33.3968694,0.293340996 C66.7519346,0.293340996 66.7519346,43.5643285 66.7519346,43.5643285 L0.0418042795,43.5643285 C0.0418042795,43.5643285 0.0418042795,0.293340996 33.3968694,0.293340996 Z" id="Rectangle-49"></path>
                        <path d="M52.7921468,27.691489 C56.024795,21.487525 59.5881764,14.523178 71.5277737,14.523178 C83.467371,14.523178 89.122531,23.1453846 91.7826521,29.0437534 C94.4427733,34.9421221 95.4069678,43.5643285 95.4069678,43.5643285 L47.6485791,43.5643285 C47.6485791,43.5643285 49.5594986,33.895453 52.7921468,27.691489 Z" id="Rectangle-50"></path>
                    </g>
                </g>
                <g id="Rectangle-49-+-Rectangle-50-+-Rectangle-51-+-Rectangle-49-+-Rectangle-62" transform="translate(681.070423, 230.000000)" sketch:type="MSShapeGroup">
                    <g id="Rectangle-51-+-Rectangle-49-+-Rectangle-57">
                        <path d="M12.6165951,0.11081771 C25.2173975,0.11081771 25.2173975,16.4576352 25.2173975,16.4576352 L0.0157927278,16.4576352 C0.0157927278,16.4576352 0.0157927278,0.11081771 12.6165951,0.11081771 Z" id="Rectangle-49"></path>
                        <path d="M19.9436999,10.4612292 C21.1649225,8.11750944 22.5110889,5.48653392 27.0216034,5.48653392 C31.532118,5.48653392 33.6685117,8.74381197 34.6734464,10.9720846 C35.678381,13.2003572 36.0426323,16.4576352 36.0426323,16.4576352 L18.0005743,16.4576352 C18.0005743,16.4576352 18.7224772,12.8049489 19.9436999,10.4612292 Z" id="Rectangle-50"></path>
                    </g>
                </g>
            </g>
        </g>
    </g>
</svg>