<?xml version="1.0" encoding="UTF-8" standalone="no"?>
<svg width="800px" height="600px" viewBox="0 0 800 600" version="1.1" xmlns="http://www.w3.org/2000/svg" xmlns:xlink="http://www.w3.org/1999/xlink" xmlns:sketch="http://www.bohemiancoding.com/sketch/ns">
    <!-- Generator: Sketch 3.2.2 (9983) - http://www.bohemiancoding.com/sketch -->
    <title>Artboard 17</title>
    <desc>Created with Sketch.</desc>
    <defs></defs>
    <g id="Teaser" stroke="none" stroke-width="1" fill="none" fill-rule="evenodd" sketch:type="MSPage">
        <g id="Artboard-17" sketch:type="MSArtboardGroup">
            <g id="clouds-3" sketch:type="MSLayerGroup" transform="translate(38.000000, 29.000000)">
                <g id="Rectangle-49-+-Rectangle-50-+-Rectangle-51-+-Rectangle-49-+-Rectangle-63" transform="translate(393.901408, 0.000000)" sketch:type="MSShapeGroup">
                    <path d="M11.1322898,0.520315543 C22.2506449,0.520315543 22.2506449,14.943978 22.2506449,14.943978 L0.0139347598,14.943978 C0.0139347598,14.943978 0.0139347598,0.520315543 11.1322898,0.520315543 Z" id="Rectangle-49" fill="#C4E6D7"></path>
                    <path d="M17.5973823,9.65303155 C18.6749317,7.58504354 19.8627255,5.26359456 23.8425912,5.26359456 C27.822457,5.26359456 29.7075103,8.13766342 30.5942174,10.1037863 C31.4809244,12.0699092 31.8023226,14.943978 31.8023226,14.943978 L15.8828597,14.943978 C15.8828597,14.943978 16.5198329,11.7210196 17.5973823,9.65303155 Z" id="Rectangle-50" fill="#C4E6D7"></path>
                    <g id="Rectangle-51-+-Rectangle-49-+-Rectangle-57" fill="#FFFFFF">
                        <path d="M11.1322898,0.097780332 C22.2506449,0.097780332 22.2506449,14.5214428 22.2506449,14.5214428 L0.0139347598,14.5214428 C0.0139347598,14.5214428 0.0139347598,0.097780332 11.1322898,0.097780332 Z" id="Rectangle-49"></path>
                        <path d="M17.5973823,9.23049633 C18.6749317,7.16250833 19.8627255,4.84105934 23.8425912,4.84105934 C27.822457,4.84105934 29.7075103,7.71512821 30.5942174,9.68125112 C31.4809244,11.647374 31.8023226,14.5214428 31.8023226,14.5214428 L15.8828597,14.5214428 C15.8828597,14.5214428 16.5198329,11.2984843 17.5973823,9.23049633 Z" id="Rectangle-50"></path>
                    </g>
                </g>
                <g id="Group-5" transform="translate(119.644397, 398.404561)" fill="#FFFFFF" sketch:type="MSShapeGroup">
                    <g id="Rectangle-51-+-Rectangle-49-+-Rectangle-104" transform="translate(0.255942, 0.148197)">
                        <path d="M0.079347228,15.9287494 C0.079347228,14.378473 1.14311112,12.4598037 2.5179556,11.757717 C2.5179556,11.757717 3.57933939,10.62726 7.07933114,10.62726 C10.5793229,10.62726 11.6407064,11.757717 11.6407064,11.757717 C12.9875125,12.5110382 14.0793145,14.3716976 14.0793145,15.9287494 L14.0793145,16.2390467 L0.079347228,16.2390467 L0.079347228,15.9287494 Z" id="Rectangle-51"></path>
                        <path d="M10.2636647,6.96136358 C13.5658447,2.66398366 17.2995814,0.109345841 20.4173279,0.109345841 C23.4722896,0.109345841 27.0100911,3.12839278 29.9554112,6.96136358 C32.9007313,10.7943344 32.8116651,16.2390467 32.8116651,16.2390467 L8.02299064,16.2390467 C8.02299064,16.2390467 6.96148465,11.2587435 10.2636647,6.96136358 Z" id="Rectangle-49"></path>
                        <path d="M27.6243775,10.3222843 C28.8255903,8.00969359 30.1496996,5.4136624 34.586309,5.4136624 C39.0229184,5.4136624 41.1243072,8.62767764 42.1127759,10.8263546 C43.1012446,13.0250316 43.4595276,16.2390467 43.4595276,16.2390467 L25.7130901,16.2390467 C25.7130901,16.2390467 26.4231646,12.634875 27.6243775,10.3222843 Z" id="Rectangle-50"></path>
                    </g>
                </g>
                <g id="Group-6" transform="translate(689.133621, 538.000000)" fill="#FFFFFF" sketch:type="MSShapeGroup">
                    <g id="Rectangle-51-+-Rectangle-49-+-Rectangle-104" transform="translate(0.255942, 0.148197)">
                        <path d="M0.079347228,15.9287494 C0.079347228,14.378473 1.14311112,12.4598037 2.5179556,11.757717 C2.5179556,11.757717 3.57933939,10.62726 7.07933114,10.62726 C10.5793229,10.62726 11.6407064,11.757717 11.6407064,11.757717 C12.9875125,12.5110382 14.0793145,14.3716976 14.0793145,15.9287494 L14.0793145,16.2390467 L0.079347228,16.2390467 L0.079347228,15.9287494 Z" id="Rectangle-51"></path>
                        <path d="M10.2636647,6.96136358 C13.5658447,2.66398366 17.2995814,0.109345841 20.4173279,0.109345841 C23.4722896,0.109345841 27.0100911,3.12839278 29.9554112,6.96136358 C32.9007313,10.7943344 32.8116651,16.2390467 32.8116651,16.2390467 L8.02299064,16.2390467 C8.02299064,16.2390467 6.96148465,11.2587435 10.2636647,6.96136358 Z" id="Rectangle-49"></path>
                        <path d="M27.6243775,10.3222843 C28.8255903,8.00969359 30.1496996,5.4136624 34.586309,5.4136624 C39.0229184,5.4136624 41.1243072,8.62767764 42.1127759,10.8263546 C43.1012446,13.0250316 43.4595276,16.2390467 43.4595276,16.2390467 L25.7130901,16.2390467 C25.7130901,16.2390467 26.4231646,12.634875 27.6243775,10.3222843 Z" id="Rectangle-50"></path>
                    </g>
                </g>
                <g id="Rectangle-49-+-Rectangle-50-+-Rectangle-51-+-Rectangle-49-+-Rectangle-65" transform="translate(362.000000, 448.000000)" fill="#FFFFFF" sketch:type="MSShapeGroup">
                    <g id="Rectangle-51-+-Rectangle-49-+-Rectangle-57">
                        <path d="M11.1322898,0.097780332 C22.2506449,0.097780332 22.2506449,14.5214428 22.2506449,14.5214428 L0.0139347598,14.5214428 C0.0139347598,14.5214428 0.0139347598,0.097780332 11.1322898,0.097780332 Z" id="Rectangle-49"></path>
                        <path d="M17.5973823,9.23049633 C18.6749317,7.16250833 19.8627255,4.84105934 23.8425912,4.84105934 C27.822457,4.84105934 29.7075103,7.71512821 30.5942174,9.68125112 C31.4809244,11.647374 31.8023226,14.5214428 31.8023226,14.5214428 L15.8828597,14.5214428 C15.8828597,14.5214428 16.5198329,11.2984843 17.5973823,9.23049633 Z" id="Rectangle-50"></path>
                    </g>
                </g>
                <g id="Rectangle-49-+-Rectangle-50-+-Rectangle-51-+-Rectangle-49-+-Rectangle-66" transform="translate(0.049296, 198.500000)" fill="#FFFFFF" sketch:type="MSShapeGroup">
                    <g id="Rectangle-51-+-Rectangle-49-+-Rectangle-57">
                        <path d="M11.1322898,0.097780332 C22.2506449,0.097780332 22.2506449,14.5214428 22.2506449,14.5214428 L0.0139347598,14.5214428 C0.0139347598,14.5214428 0.0139347598,0.097780332 11.1322898,0.097780332 Z" id="Rectangle-49"></path>
                        <path d="M17.5973823,9.23049633 C18.6749317,7.16250833 19.8627255,4.84105934 23.8425912,4.84105934 C27.822457,4.84105934 29.7075103,7.71512821 30.5942174,9.68125112 C31.4809244,11.647374 31.8023226,14.5214428 31.8023226,14.5214428 L15.8828597,14.5214428 C15.8828597,14.5214428 16.5198329,11.2984843 17.5973823,9.23049633 Z" id="Rectangle-50"></path>
                    </g>
                </g>
            </g>
        </g>
    </g>
</svg>