<?xml version="1.0" encoding="UTF-8" standalone="no"?>
<svg width="1440px" height="611px" viewBox="0 0 1440 611" version="1.1" xmlns="http://www.w3.org/2000/svg" xmlns:xlink="http://www.w3.org/1999/xlink" xmlns:sketch="http://www.bohemiancoding.com/sketch/ns">
    <!-- Generator: Sketch 3.2.2 (9983) - http://www.bohemiancoding.com/sketch -->
    <title>mountains</title>
    <desc>Created with Sketch.</desc>
    <defs></defs>
    <g id="The-view" stroke="none" stroke-width="1" fill="none" fill-rule="evenodd" sketch:type="MSPage">
        <g id="DAY" sketch:type="MSArtboardGroup" transform="translate(0.000000, -610.000000)">
            <g id="Town" sketch:type="MSLayerGroup" transform="translate(-214.000000, 609.000000)">
                <g id="mountains" sketch:type="MSShapeGroup">
                    <g>
                        <g id="rocky-mountain-left" transform="translate(428.000000, 86.000000)">
                            <path d="M0,234.477108 L46.3422292,148.272289 L101.180534,78.1590361 L161.425432,92.7180723 L233.255887,31.4168675 L316.6719,0 L389.274725,78.1590361 L406.266876,173.175904 L451.064364,215.320482 L492,283.518072 L345.249608,318 L200.816327,296.544578 L55,312 L0,234.477108 Z" id="Rectangle-2068" fill="#C78E75"></path>
                            <path d="M0,234.477108 L46.3422292,148.272289 L101.180534,78.1590361 L161.425432,92.7180723 L200.81633,123.000001 L200.81633,183.000001 L264,274.999994 L200.816327,296.544578 L55,312 L0,234.477108 Z" id="Rectangle-2070" fill="#CD947B"></path>
                            <path d="M182.09027,202.000001 L167.999999,128.000001 L106.180534,82.1590361 L158.425432,97.7180723 L193.999999,128.000001 L195.999999,185.000001 L259.000007,270.999994 L182.09027,202.000001 Z" id="Rectangle-2071" fill="#C99177"></path>
                            <path d="M383.999997,190 L365,94 L328,70 L309,38 L315.6719,6 L383.274725,81.1590361 L402.266876,178.175904 L449.064364,218.320482 L492,283.518072 L383.999997,190 Z" id="Rectangle-2069" fill="#C2876D"></path>
                            <path d="M202.867431,78.7011143 L177,88 L234,39 L278.63736,22 L243,49 L202.867431,78.7011143 Z" id="Rectangle-2074" fill="#CF947A"></path>
                            <path d="M56.9953883,149.146343 L21.5246748,177.114352 L50.0909643,147.130713 L93.8598041,112.464188 L102.340042,127.466824 L85.9916539,130.061095 L56.9953883,149.146343 Z" id="Rectangle-2076" fill="#D5A48F" transform="translate(61.932358, 144.789270) rotate(-16.000000) translate(-61.932358, -144.789270) "></path>
                        </g>
                        <g id="rocky-mountain-right" transform="translate(1188.000000, 54.000000)">
                            <path d="M46.4254317,93.339166 L118.255887,32.0379612 L201.6719,0.62109375 L274.274725,78.7801299 L294.82607,123.50593 L341,181 L439,253 L377,284.139166 L232,274.621094 L106,215.941574 L0,186.621094 L46.4254317,93.339166 Z" id="Rectangle-2073" fill="#C78E75"></path>
                            <path d="M63.1813202,88 L120.18132,39 L159.81868,23 L124.18132,49 L63.1813202,88 Z" id="Rectangle-2075" fill="#CF947A"></path>
                            <path d="M298.000002,179.999999 L247.000002,86.9999988 L215,45.9999988 L198.6719,4.99676392 L266.274725,80.1558001 L285.266878,131.999999 L319.000002,165.999999 L355.999994,209.999999 L395.999994,263.999999 L298.000002,179.999999 Z" id="Rectangle-2072" fill="#C2876D"></path>
                        </g>
                        <g id="City" transform="translate(214.000000, 0.000000)">
                            <g id="mountain-river" transform="translate(690.984733, 0.999999)">
                                <path d="M171.891493,3.64480805 C306.390402,3.64480805 343.782987,312.386176 343.782987,312.386176 L0,312.386176 C0,312.386176 37.3925846,3.64480805 171.891493,3.64480805 Z" id="Rectangle-91" fill="#A6DFB8"></path>
                                <path d="M271.617622,126.973782 C234.838253,51.6185782 105.463656,7.64480805 169.891493,7.64480805 C304.390402,7.64480805 341.782987,316.386176 341.782987,316.386176 C341.782987,316.386176 308.396991,202.328986 271.617622,126.973782 Z" id="Rectangle-99" fill="#9BDCAF"></path>
                                <path d="M98.5694828,96.9999965 C71.465427,41.3510022 40.2981351,23.1299518 33.5694822,21.0000002 C29.0011827,19.5539073 52.5694816,60.0000001 80.880323,100.000002 C109.191165,140.000004 132.569483,206.000005 132.569483,206.000005 C132.569483,206.000005 125.673539,152.648991 98.5694828,96.9999965 Z" id="Rectangle-100" fill="#B0E6C1" transform="translate(82.784741, 113.481173) scale(-1, 1) translate(-82.784741, -113.481173) "></path>
                                <path d="M146.086068,230.057425 C140.710605,197.377062 136.27968,173.070874 136.562444,157.547518 C137.358518,113.844151 154.338791,100.549291 155.407389,70.3101312 C156.475986,40.0709712 141.795331,9.46730224 141.795331,9.46730224 C141.795331,9.46730224 154.31797,3.17683372 170.857509,3.17683372 C187.397049,3.17683372 203.942614,9.46730224 203.942614,9.46730224 C203.942614,9.46730224 215.809092,33.49564 212.994199,70.3101312 C210.179306,107.124623 201.792429,99.100376 195.449768,157.547518 C192.301693,186.55679 203.936283,216.95687 206.81916,248.119693 C209.744631,279.742932 203.942614,311.918202 203.942614,311.918202 L141.795331,311.918202 C141.795331,311.918202 151.461531,262.737789 146.086068,230.057425 Z" id="Rectangle-654" fill="#95E7F4"></path>
                                <path d="M192.717057,247.1038 C191.158278,219.99341 185.664879,190.362039 183.230852,157.531625 C180.941686,126.655097 195.321426,95.9572152 194.742933,70.2942327 C193.968769,35.9509852 179.085359,6.51082589 183.230852,6.45140586 C197.554332,6.24609819 204.622262,13.5059023 204.622262,13.5059023 C204.622262,13.5059023 214.95402,33.4797437 212.109326,70.2942349 C209.264632,107.108726 200.787214,99.552454 194.377405,157.999596 C191.196002,187.008868 202.78878,216.940973 205.702178,248.103796 C208.658621,279.727036 202.795179,311.902306 202.795179,311.902306 L188.593129,311.902306 C188.593129,311.902306 194.676961,281.190566 192.717057,247.1038 Z" id="Rectangle-655" fill="#89DFED"></path>
                                <path d="M137.97711,169.109086 C134.117675,139.038079 145.531856,111.049195 154.802193,84.6043659 C154.802193,97.543748 147.445077,108.740105 143.217478,133.597584 C139.037844,158.173038 141.836544,199.180094 137.97711,169.109086 Z" id="Rectangle-656" fill="#89DFED"></path>
                                <g id="Rectangle-650-+-Rectangle-683" transform="translate(145.281020, 31.628696)">
                                    <path d="M0,5.52857417 L0.77224179,1.4712214 L4.09247928,0 L7.20759004,1.4712214 L6.17793432,9.5629391 L1.96579779,11.7051179 L0,5.52857417 Z" id="Rectangle-650" fill="#D8D8D8"></path>
                                    <path d="M0.77224179,1.4712214 L4.09247928,0 L7.20759004,1.4712214 L6.17793432,9.5629391 L0.77224179,1.4712214 Z" id="Rectangle-651" fill="#CBCBCB"></path>
                                </g>
                                <g id="Rectangle-650-+-Rectangle-699" transform="translate(148.884815, 52.961406)">
                                    <path d="M0,5.52857417 L0.77224179,1.4712214 L4.09247928,0 L7.20759004,1.4712214 L6.17793432,9.5629391 L1.96579779,11.7051179 L0,5.52857417 Z" id="Rectangle-650" fill="#D8D8D8"></path>
                                    <path d="M0.77224179,1.4712214 L4.09247928,0 L7.20759004,1.4712214 L6.17793432,9.5629391 L0.77224179,1.4712214 Z" id="Rectangle-651" fill="#CBCBCB"></path>
                                </g>
                                <g id="Rectangle-650-+-Rectangle-700" transform="translate(143.736536, 41.927246)">
                                    <g id="Rectangle-650-+-Rectangle-652">
                                        <path d="M0,4.05735277 L0.77224179,0 L7.20759004,0 L8.55700213,4.05735277 L2.64150935,8.0917177 L0,4.05735277 Z" id="Rectangle-650" fill="#CECECE"></path>
                                        <path d="M0.77224179,0 L7.20759004,0 L8.55700213,4.05735277 L0.77224179,0 Z" id="Rectangle-652" fill="#BBBBBB"></path>
                                    </g>
                                </g>
                                <g id="Rectangle-650-+-Rectangle-701" transform="translate(148.884815, 60.685319)">
                                    <path d="M0,4.05735277 L0.77224179,0 L7.20759004,0 L8.55700213,4.05735277 L2.64150935,8.0917177 L0,4.05735277 Z" id="Rectangle-650" fill="#CECECE"></path>
                                    <path d="M0.77224179,0 L7.20759004,0 L8.55700213,4.05735277 L0.77224179,0 Z" id="Rectangle-652" fill="#BBBBBB"></path>
                                </g>
                                <g id="Rectangle-650-+-Rectangle-702" transform="translate(137.558602, 102.615129)">
                                    <path d="M0,4.05735277 L0.77224179,0 L7.20759004,0 L8.55700213,4.05735277 L2.64150935,8.0917177 L0,4.05735277 Z" id="Rectangle-650" fill="#CECECE"></path>
                                    <path d="M0.77224179,0 L7.20759004,0 L8.55700213,4.05735277 L0.77224179,0 Z" id="Rectangle-652" fill="#BBBBBB"></path>
                                </g>
                                <g id="Rectangle-650-+-Rectangle-703" transform="translate(175.282443, 57.461855)">
                                    <path d="M0,5.16234175 L0.984732824,0 L9.19083969,0 L10.9115577,5.16234175 L3.36835043,10.2954351 L0,5.16234175 Z" id="Rectangle-650" fill="#CECECE"></path>
                                    <path d="M0.984732824,0 L9.19083969,0 L10.9115577,5.16234175 L0.984732824,0 Z" id="Rectangle-652" fill="#BBBBBB"></path>
                                </g>
                                <g id="Rectangle-650-+-Rectangle-704" transform="translate(147.855159, 46.340910)">
                                    <path d="M0.124239544,5.73061244 L1.28706965,0 L6.17793432,0 L8.2995882,6.63199021 L4.98415566,8.14056684 L2.12668149,10.2985498 L0.124239544,5.73061244 Z" id="Rectangle-650" fill="#BCBCBC"></path>
                                    <path d="M1.28706965,0 L6.17793432,0 L8.2995882,6.63199021 L4.98415566,8.14056684 L1.28706965,0 Z" id="Rectangle-650" fill="#ABABAB"></path>
                                </g>
                                <g id="Rectangle-650-+-Rectangle-684" transform="translate(161.450382, 0.368988)">
                                    <path d="M0,7.03423904 L0.984732824,1.87189729 L5.21857109,0 L9.19083969,1.87189729 L7.8778626,12.1673324 L2.50670921,14.8929172 L0,7.03423904 Z" id="Rectangle-650" fill="#D8D8D8"></path>
                                    <path d="M0.984732824,1.87189729 L5.21857109,0 L9.19083969,1.87189729 L7.8778626,12.1673324 L0.984732824,1.87189729 Z" id="Rectangle-651" fill="#CBCBCB"></path>
                                </g>
                                <g id="Rectangle-650-+-Rectangle-746" transform="translate(175.834991, 2.962341)">
                                    <path d="M0.124239544,5.73061244 L1.28706965,0 L6.17793432,0 L8.2995882,6.63199021 L4.98415566,8.14056684 L2.12668149,10.2985498 L0.124239544,5.73061244 Z" id="Rectangle-650" fill="#BCBCBC"></path>
                                    <path d="M1.28706965,0 L6.17793432,0 L8.2995882,6.63199021 L4.98415566,8.14056684 L1.28706965,0 Z" id="Rectangle-650" fill="#ABABAB"></path>
                                </g>
                                <g id="Rectangle-650-+-Rectangle-758" transform="translate(156.834991, 2.962341)">
                                    <path d="M0.124239544,5.73061244 L1.28706965,0 L6.17793432,0 L8.2995882,6.63199021 L4.98415566,8.14056684 L2.12668149,10.2985498 L0.124239544,5.73061244 Z" id="Rectangle-650" fill="#BCBCBC"></path>
                                    <path d="M1.28706965,0 L6.17793432,0 L8.2995882,6.63199021 L4.98415566,8.14056684 L1.28706965,0 Z" id="Rectangle-650" fill="#ABABAB"></path>
                                </g>
                                <g id="Rectangle-650-+-Rectangle-705" transform="translate(150.429298, 73.558506)">
                                    <path d="M0,5.52857417 L0.77224179,1.4712214 L4.09247928,0 L7.20759004,1.4712214 L6.17793432,9.5629391 L1.96579779,11.7051179 L0,5.52857417 Z" id="Rectangle-650" fill="#D8D8D8"></path>
                                    <path d="M0.77224179,1.4712214 L4.09247928,0 L7.20759004,1.4712214 L6.17793432,9.5629391 L0.77224179,1.4712214 Z" id="Rectangle-651" fill="#CBCBCB"></path>
                                </g>
                                <g id="Rectangle-650-+-Rectangle-706" transform="translate(149.142229, 65.466788)">
                                    <path d="M0.124239544,5.73061244 L1.28706965,0 L6.17793432,0 L8.2995882,6.63199021 L4.98415566,8.14056684 L2.12668149,10.2985498 L0.124239544,5.73061244 Z" id="Rectangle-650" fill="#BCBCBC"></path>
                                    <path d="M1.28706965,0 L6.17793432,0 L8.2995882,6.63199021 L4.98415566,8.14056684 L1.28706965,0 Z" id="Rectangle-650" fill="#ABABAB"></path>
                                </g>
                                <g id="Rectangle-650-+-Rectangle-707" transform="translate(133.439979, 110.706846)">
                                    <path d="M0.124239544,5.73061244 L1.28706965,0 L6.17793432,0 L8.2995882,6.63199021 L4.98415566,8.14056684 L2.12668149,10.2985498 L0.124239544,5.73061244 Z" id="Rectangle-650" fill="#BCBCBC"></path>
                                    <path d="M1.28706965,0 L6.17793432,0 L8.2995882,6.63199021 L4.98415566,8.14056684 L1.28706965,0 Z" id="Rectangle-650" fill="#ABABAB"></path>
                                </g>
                                <g id="Rectangle-650-+-Rectangle-708" transform="translate(135.756704, 120.637591)">
                                    <path d="M0,4.05735277 L0.77224179,0 L7.20759004,0 L8.55700213,4.05735277 L2.64150935,8.0917177 L0,4.05735277 Z" id="Rectangle-650" fill="#CECECE"></path>
                                    <path d="M0.77224179,0 L7.20759004,0 L8.55700213,4.05735277 L0.77224179,0 Z" id="Rectangle-652" fill="#BBBBBB"></path>
                                </g>
                                <g id="Rectangle-650-+-Rectangle-709" transform="translate(138.588258, 108.867820)">
                                    <path d="M0,5.52857417 L0.77224179,1.4712214 L4.09247928,0 L7.20759004,1.4712214 L6.17793432,9.5629391 L1.96579779,11.7051179 L0,5.52857417 Z" id="Rectangle-650" fill="#D8D8D8"></path>
                                    <path d="M0.77224179,1.4712214 L4.09247928,0 L7.20759004,1.4712214 L6.17793432,9.5629391 L0.77224179,1.4712214 Z" id="Rectangle-651" fill="#CBCBCB"></path>
                                </g>
                                <g id="Rectangle-650-+-Rectangle-710" transform="translate(132.282443, 242.311713)">
                                    <path d="M0,7.03423904 L0.984732824,1.87189729 L5.21857109,0 L9.19083969,1.87189729 L7.8778626,12.1673324 L2.50670921,14.8929172 L0,7.03423904 Z" id="Rectangle-650" fill="#D8D8D8"></path>
                                    <path d="M0.984732824,1.87189729 L5.21857109,0 L9.19083969,1.87189729 L7.8778626,12.1673324 L0.984732824,1.87189729 Z" id="Rectangle-651" fill="#CBCBCB"></path>
                                </g>
                                <g id="Rectangle-650-+-Rectangle-711" transform="translate(141.801527, 231.080329)">
                                    <path d="M0,7.03423904 L0.984732824,1.87189729 L5.21857109,0 L9.19083969,1.87189729 L7.8778626,12.1673324 L2.50670921,14.8929172 L0,7.03423904 Z" id="Rectangle-650" fill="#D8D8D8"></path>
                                    <path d="M0.984732824,1.87189729 L5.21857109,0 L9.19083969,1.87189729 L7.8778626,12.1673324 L0.984732824,1.87189729 Z" id="Rectangle-651" fill="#CBCBCB"></path>
                                </g>
                                <g id="Rectangle-650-+-Rectangle-712" transform="translate(138.725776, 219.704565)">
                                    <g id="Rectangle-650-+-Rectangle-652">
                                        <path d="M0,2.77003704 L0.562704471,0 L5.2519084,0 L6.23517585,2.77003704 L1.92477167,5.52437981 L0,2.77003704 Z" id="Rectangle-650" fill="#CECECE"></path>
                                        <path d="M0.562704471,0 L5.2519084,0 L6.23517585,2.77003704 L0.562704471,0 Z" id="Rectangle-652" fill="#BBBBBB"></path>
                                    </g>
                                </g>
                                <g id="Rectangle-650-+-Rectangle-713" transform="translate(143.770992, 252.607148)">
                                    <path d="M0,5.16234175 L0.984732824,0 L9.19083969,0 L10.9115577,5.16234175 L3.36835043,10.2954351 L0,5.16234175 Z" id="Rectangle-650" fill="#CECECE"></path>
                                    <path d="M0.984732824,0 L9.19083969,0 L10.9115577,5.16234175 L0.984732824,0 Z" id="Rectangle-652" fill="#BBBBBB"></path>
                                </g>
                                <g id="Rectangle-650-+-Rectangle-714" transform="translate(136.221374, 264.774480)">
                                    <path d="M0,5.16234175 L0.984732824,0 L9.19083969,0 L10.9115577,5.16234175 L3.36835043,10.2954351 L0,5.16234175 Z" id="Rectangle-650" fill="#CECECE"></path>
                                    <path d="M0.984732824,0 L9.19083969,0 L10.9115577,5.16234175 L0.984732824,0 Z" id="Rectangle-652" fill="#BBBBBB"></path>
                                </g>
                                <g id="Rectangle-650-+-Rectangle-715" transform="translate(141.726867, 222.717863)">
                                    <path d="M0.0905288317,3.91240536 L0.937840785,0 L4.50163577,0 L6.04760769,4.52779425 L3.63177273,5.55773011 L1.54963536,7.03102885 L0.0905288317,3.91240536 Z" id="Rectangle-650" fill="#BCBCBC"></path>
                                    <path d="M0.937840785,0 L4.50163577,0 L6.04760769,4.52779425 L3.63177273,5.55773011 L0.937840785,0 Z" id="Rectangle-650" fill="#ABABAB"></path>
                                </g>
                                <g id="Rectangle-650-+-Rectangle-716" transform="translate(142.786260, 257.286891)">
                                    <path d="M0,7.03423904 L0.984732824,1.87189729 L5.21857109,0 L9.19083969,1.87189729 L7.8778626,12.1673324 L2.50670921,14.8929172 L0,7.03423904 Z" id="Rectangle-650" fill="#D8D8D8"></path>
                                    <path d="M0.984732824,1.87189729 L5.21857109,0 L9.19083969,1.87189729 L7.8778626,12.1673324 L0.984732824,1.87189729 Z" id="Rectangle-651" fill="#CBCBCB"></path>
                                </g>
                                <g id="Rectangle-650-+-Rectangle-717" transform="translate(141.145038, 243.715636)">
                                    <path d="M0.158425456,7.2913009 L1.64122137,0 L7.8778626,0 L10.5833135,8.43816201 L6.35560227,10.3575879 L2.71186188,13.103281 L0.158425456,7.2913009 Z" id="Rectangle-650" fill="#BCBCBC"></path>
                                    <path d="M1.64122137,0 L7.8778626,0 L10.5833135,8.43816201 L6.35560227,10.3575879 L1.64122137,0 Z" id="Rectangle-650" fill="#ABABAB"></path>
                                </g>
                                <g id="Rectangle-650-+-Rectangle-718" transform="translate(139.175573, 273.665992)">
                                    <path d="M0.158425456,7.2913009 L1.64122137,0 L7.8778626,0 L10.5833135,8.43816201 L6.35560227,10.3575879 L2.71186188,13.103281 L0.158425456,7.2913009 Z" id="Rectangle-650" fill="#BCBCBC"></path>
                                    <path d="M1.64122137,0 L7.8778626,0 L10.5833135,8.43816201 L6.35560227,10.3575879 L1.64122137,0 Z" id="Rectangle-650" fill="#ABABAB"></path>
                                </g>
                                <g id="Rectangle-650-+-Rectangle-719" transform="translate(204.704494, 18.789669)">
                                    <path d="M0,5.52857417 L0.77224179,1.4712214 L4.09247928,0 L7.20759004,1.4712214 L6.17793432,9.5629391 L1.96579779,11.7051179 L0,5.52857417 Z" id="Rectangle-650" fill="#D8D8D8"></path>
                                    <path d="M0.77224179,1.4712214 L4.09247928,0 L7.20759004,1.4712214 L6.17793432,9.5629391 L0.77224179,1.4712214 Z" id="Rectangle-651" fill="#CBCBCB"></path>
                                </g>
                                <g id="Rectangle-650-+-Rectangle-759" transform="translate(182.704494, 3.789669)">
                                    <path d="M0,5.52857417 L0.77224179,1.4712214 L4.09247928,0 L7.20759004,1.4712214 L6.17793432,9.5629391 L1.96579779,11.7051179 L0,5.52857417 Z" id="Rectangle-650" fill="#D8D8D8"></path>
                                    <path d="M0.77224179,1.4712214 L4.09247928,0 L7.20759004,1.4712214 L6.17793432,9.5629391 L0.77224179,1.4712214 Z" id="Rectangle-651" fill="#CBCBCB"></path>
                                </g>
                                <g id="Rectangle-650-+-Rectangle-720" transform="translate(208.308289, 40.857990)">
                                    <path d="M0,5.52857417 L0.77224179,1.4712214 L4.09247928,0 L7.20759004,1.4712214 L6.17793432,9.5629391 L1.96579779,11.7051179 L0,5.52857417 Z" id="Rectangle-650" fill="#D8D8D8"></path>
                                    <path d="M0.77224179,1.4712214 L4.09247928,0 L7.20759004,1.4712214 L6.17793432,9.5629391 L0.77224179,1.4712214 Z" id="Rectangle-651" fill="#CBCBCB"></path>
                                </g>
                                <g id="Rectangle-650-+-Rectangle-721" transform="translate(177.908397, 44.358574)">
                                    <path d="M0,7.03423904 L0.984732824,1.87189729 L5.21857109,0 L9.19083969,1.87189729 L7.8778626,12.1673324 L2.50670921,14.8929172 L0,7.03423904 Z" id="Rectangle-650" fill="#D8D8D8"></path>
                                    <path d="M0.984732824,1.87189729 L5.21857109,0 L9.19083969,1.87189729 L7.8778626,12.1673324 L0.984732824,1.87189729 Z" id="Rectangle-651" fill="#CBCBCB"></path>
                                </g>
                                <g id="Rectangle-650-+-Rectangle-722" transform="translate(203.160011, 29.088219)">
                                    <g id="Rectangle-650-+-Rectangle-652">
                                        <path d="M0,4.05735277 L0.77224179,0 L7.20759004,0 L8.55700213,4.05735277 L2.64150935,8.0917177 L0,4.05735277 Z" id="Rectangle-650" fill="#CECECE"></path>
                                        <path d="M0.77224179,0 L7.20759004,0 L8.55700213,4.05735277 L0.77224179,0 Z" id="Rectangle-652" fill="#BBBBBB"></path>
                                    </g>
                                </g>
                                <g id="Rectangle-650-+-Rectangle-747" transform="translate(169.072737, 2.006115)">
                                    <g id="Rectangle-650-+-Rectangle-652">
                                        <path d="M0,5.16234175 L0.984732824,0 L9.19083969,0 L10.9115577,5.16234175 L3.36835043,10.2954351 L0,5.16234175 Z" id="Rectangle-650" fill="#CECECE"></path>
                                        <path d="M0.984732824,0 L9.19083969,0 L10.9115577,5.16234175 L0.984732824,0 Z" id="Rectangle-652" fill="#BBBBBB"></path>
                                    </g>
                                </g>
                                <g id="Rectangle-650-+-Rectangle-723" transform="translate(199.526560, 148.062019)">
                                    <g id="Rectangle-650-+-Rectangle-652">
                                        <path d="M0,4.05735277 L0.77224179,0 L7.20759004,0 L8.55700213,4.05735277 L2.64150935,8.0917177 L0,4.05735277 Z" id="Rectangle-650" fill="#CECECE"></path>
                                        <path d="M0.77224179,0 L7.20759004,0 L8.55700213,4.05735277 L0.77224179,0 Z" id="Rectangle-652" fill="#BBBBBB"></path>
                                    </g>
                                </g>
                                <g id="Rectangle-650-+-Rectangle-724" transform="translate(209.852773, 50.053124)">
                                    <g id="Rectangle-650-+-Rectangle-652">
                                        <path d="M0,4.05735277 L0.77224179,0 L7.20759004,0 L8.55700213,4.05735277 L2.64150935,8.0917177 L0,4.05735277 Z" id="Rectangle-650" fill="#CECECE"></path>
                                        <path d="M0.77224179,0 L7.20759004,0 L8.55700213,4.05735277 L0.77224179,0 Z" id="Rectangle-652" fill="#BBBBBB"></path>
                                    </g>
                                </g>
                                <g id="Rectangle-650-+-Rectangle-725" transform="translate(199.839695, 117.810928)">
                                    <path d="M0,5.16234175 L0.984732824,0 L9.19083969,0 L10.9115577,5.16234175 L3.36835043,10.2954351 L0,5.16234175 Z" id="Rectangle-650" fill="#CECECE"></path>
                                    <path d="M0.984732824,0 L9.19083969,0 L10.9115577,5.16234175 L0.984732824,0 Z" id="Rectangle-652" fill="#BBBBBB"></path>
                                </g>
                                <g id="Rectangle-650-+-Rectangle-726" transform="translate(207.793462, 33.501883)">
                                    <path d="M0.124239544,5.73061244 L1.28706965,0 L6.17793432,0 L8.2995882,6.63199021 L4.98415566,8.14056684 L2.12668149,10.2985498 L0.124239544,5.73061244 Z" id="Rectangle-650" fill="#BCBCBC"></path>
                                    <path d="M1.28706965,0 L6.17793432,0 L8.2995882,6.63199021 L4.98415566,8.14056684 L1.28706965,0 Z" id="Rectangle-650" fill="#ABABAB"></path>
                                </g>
                                <g id="Rectangle-650-+-Rectangle-727" transform="translate(206.137405, 275.069915)">
                                    <path d="M0,7.03423904 L0.984732824,1.87189729 L5.21857109,0 L9.19083969,1.87189729 L7.8778626,12.1673324 L2.50670921,14.8929172 L0,7.03423904 Z" id="Rectangle-650" fill="#D8D8D8"></path>
                                    <path d="M0.984732824,1.87189729 L5.21857109,0 L9.19083969,1.87189729 L7.8778626,12.1673324 L0.984732824,1.87189729 Z" id="Rectangle-651" fill="#CBCBCB"></path>
                                </g>
                                <g id="Rectangle-650-+-Rectangle-728" transform="translate(201.541985, 290.045094)">
                                    <g id="Rectangle-650-+-Rectangle-652">
                                        <path d="M0,5.16234175 L0.984732824,0 L9.19083969,0 L10.9115577,5.16234175 L3.36835043,10.2954351 L0,5.16234175 Z" id="Rectangle-650" fill="#CECECE"></path>
                                        <path d="M0.984732824,0 L9.19083969,0 L10.9115577,5.16234175 L0.984732824,0 Z" id="Rectangle-652" fill="#BBBBBB"></path>
                                    </g>
                                </g>
                                <g id="Rectangle-650-+-Rectangle-729" transform="translate(204.496183, 300.340529)">
                                    <path d="M0.158425456,7.2913009 L1.64122137,0 L7.8778626,0 L10.5833135,8.43816201 L6.35560227,10.3575879 L2.71186188,13.103281 L0.158425456,7.2913009 Z" id="Rectangle-650" fill="#BCBCBC"></path>
                                    <path d="M1.64122137,0 L7.8778626,0 L10.5833135,8.43816201 L6.35560227,10.3575879 L1.64122137,0 Z" id="Rectangle-650" fill="#ABABAB"></path>
                                </g>
                                <g id="Rectangle-650-+-Rectangle-730" transform="translate(192.120868, 155.153736)">
                                    <path d="M0,5.52857417 L0.77224179,1.4712214 L4.09247928,0 L7.20759004,1.4712214 L6.17793432,9.5629391 L1.96579779,11.7051179 L0,5.52857417 Z" id="Rectangle-650" fill="#D8D8D8"></path>
                                    <path d="M0.77224179,1.4712214 L4.09247928,0 L7.20759004,1.4712214 L6.17793432,9.5629391 L0.77224179,1.4712214 Z" id="Rectangle-651" fill="#CBCBCB"></path>
                                </g>
                                <g id="Rectangle-650-+-Rectangle-731" transform="translate(195.665351, 165.348870)">
                                    <g id="Rectangle-650-+-Rectangle-652">
                                        <path d="M0,4.05735277 L0.77224179,0 L7.20759004,0 L8.55700213,4.05735277 L2.64150935,8.0917177 L0,4.05735277 Z" id="Rectangle-650" fill="#CECECE"></path>
                                        <path d="M0.77224179,0 L7.20759004,0 L8.55700213,4.05735277 L0.77224179,0 Z" id="Rectangle-652" fill="#BBBBBB"></path>
                                    </g>
                                </g>
                                <g id="Rectangle-650-+-Rectangle-732" transform="translate(202.854962, 224.528688)">
                                    <g id="Rectangle-650-+-Rectangle-652">
                                        <path d="M0,5.16234175 L0.984732824,0 L9.19083969,0 L10.9115577,5.16234175 L3.36835043,10.2954351 L0,5.16234175 Z" id="Rectangle-650" fill="#CECECE"></path>
                                        <path d="M0.984732824,0 L9.19083969,0 L10.9115577,5.16234175 L0.984732824,0 Z" id="Rectangle-652" fill="#BBBBBB"></path>
                                    </g>
                                </g>
                                <g id="Rectangle-650-+-Rectangle-733" transform="translate(193.606040, 148.797629)">
                                    <path d="M0.124239544,5.73061244 L1.28706965,0 L6.17793432,0 L8.2995882,6.63199021 L4.98415566,8.14056684 L2.12668149,10.2985498 L0.124239544,5.73061244 Z" id="Rectangle-650" fill="#BCBCBC"></path>
                                    <path d="M1.28706965,0 L6.17793432,0 L8.2995882,6.63199021 L4.98415566,8.14056684 L1.28706965,0 Z" id="Rectangle-650" fill="#ABABAB"></path>
                                </g>
                                <g id="Rectangle-650-+-Rectangle-734" transform="translate(202.526718, 212.829330)">
                                    <path d="M0.158425456,7.2913009 L1.64122137,0 L7.8778626,0 L10.5833135,8.43816201 L6.35560227,10.3575879 L2.71186188,13.103281 L0.158425456,7.2913009 Z" id="Rectangle-650" fill="#BCBCBC"></path>
                                    <path d="M1.64122137,0 L7.8778626,0 L10.5833135,8.43816201 L6.35560227,10.3575879 L1.64122137,0 Z" id="Rectangle-650" fill="#ABABAB"></path>
                                </g>
                                <g id="Rectangle-650-+-Rectangle-735" transform="translate(132.410323, 154.107878)">
                                    <g id="Rectangle-650-+-Rectangle-652">
                                        <path d="M0,4.05735277 L0.77224179,0 L7.20759004,0 L8.55700213,4.05735277 L2.64150935,8.0917177 L0,4.05735277 Z" id="Rectangle-650" fill="#CECECE"></path>
                                        <path d="M0.77224179,0 L7.20759004,0 L8.55700213,4.05735277 L0.77224179,0 Z" id="Rectangle-652" fill="#BBBBBB"></path>
                                    </g>
                                </g>
                                <g id="Rectangle-650-+-Rectangle-736" transform="translate(132.717561, 160.475683)">
                                    <path d="M0,5.52857417 L0.77224179,1.4712214 L4.09247928,0 L7.20759004,1.4712214 L6.17793432,9.5629391 L1.96579779,11.7051179 L0,5.52857417 Z" id="Rectangle-650" fill="#D8D8D8"></path>
                                    <path d="M0.77224179,1.4712214 L4.09247928,0 L7.20759004,1.4712214 L6.17793432,9.5629391 L0.77224179,1.4712214 Z" id="Rectangle-651" fill="#CBCBCB"></path>
                                </g>
                                <g id="Rectangle-650-+-Rectangle-737" transform="translate(129.063942, 147.487381)">
                                    <path d="M0.124239544,5.73061244 L1.28706965,0 L6.17793432,0 L8.2995882,6.63199021 L4.98415566,8.14056684 L2.12668149,10.2985498 L0.124239544,5.73061244 Z" id="Rectangle-650" fill="#BCBCBC"></path>
                                    <path d="M1.28706965,0 L6.17793432,0 L8.2995882,6.63199021 L4.98415566,8.14056684 L1.28706965,0 Z" id="Rectangle-650" fill="#ABABAB"></path>
                                </g>
                                <g id="Rectangle-650-+-Rectangle-738" transform="translate(199.852773, 104.086350)">
                                    <path d="M0,5.52857417 L0.77224179,1.4712214 L4.09247928,0 L7.20759004,1.4712214 L6.17793432,9.5629391 L1.96579779,11.7051179 L0,5.52857417 Z" id="Rectangle-650" fill="#D8D8D8"></path>
                                    <path d="M0.77224179,1.4712214 L4.09247928,0 L7.20759004,1.4712214 L6.17793432,9.5629391 L0.77224179,1.4712214 Z" id="Rectangle-651" fill="#CBCBCB"></path>
                                </g>
                                <g id="Rectangle-650-+-Rectangle-739" transform="translate(199.585872, 158.463985)">
                                    <path d="M0,5.52857417 L0.77224179,1.4712214 L4.09247928,0 L7.20759004,1.4712214 L6.17793432,9.5629391 L1.96579779,11.7051179 L0,5.52857417 Z" id="Rectangle-650" fill="#D8D8D8"></path>
                                    <path d="M0.77224179,1.4712214 L4.09247928,0 L7.20759004,1.4712214 L6.17793432,9.5629391 L0.77224179,1.4712214 Z" id="Rectangle-651" fill="#CBCBCB"></path>
                                </g>
                                <g id="Rectangle-650-+-Rectangle-740" transform="translate(197.506392, 122.235625)">
                                    <path d="M0.124239544,5.73061244 L1.28706965,0 L6.17793432,0 L8.2995882,6.63199021 L4.98415566,8.14056684 L2.12668149,10.2985498 L0.124239544,5.73061244 Z" id="Rectangle-650" fill="#BCBCBC"></path>
                                    <path d="M1.28706965,0 L6.17793432,0 L8.2995882,6.63199021 L4.98415566,8.14056684 L1.28706965,0 Z" id="Rectangle-650" fill="#ABABAB"></path>
                                </g>
                                <g id="Rectangle-650-+-Rectangle-741" transform="translate(196.476736, 112.304880)">
                                    <path d="M0.124239544,5.73061244 L1.28706965,0 L6.17793432,0 L8.2995882,6.63199021 L4.98415566,8.14056684 L2.12668149,10.2985498 L0.124239544,5.73061244 Z" id="Rectangle-650" fill="#BCBCBC"></path>
                                    <path d="M1.28706965,0 L6.17793432,0 L8.2995882,6.63199021 L4.98415566,8.14056684 L1.28706965,0 Z" id="Rectangle-650" fill="#ABABAB"></path>
                                </g>
                                <rect id="Rectangle-693" opacity="0.701142724" fill="#95E7F3" x="174.625954" y="44.8265484" width="12.4732824" height="21.9947932"></rect>
                                <g id="Rectangle-650-+-Rectangle-742" transform="translate(176.267176, 230.612355)">
                                    <path d="M0,5.16234175 L0.984732824,0 L9.19083969,0 L10.9115577,5.16234175 L3.36835043,10.2954351 L0,5.16234175 Z" id="Rectangle-650" fill="#CECECE"></path>
                                    <path d="M0.984732824,0 L9.19083969,0 L10.9115577,5.16234175 L0.984732824,0 Z" id="Rectangle-652" fill="#BBBBBB"></path>
                                </g>
                                <rect id="Rectangle-694" opacity="0.7" fill="#95E7F3" x="175.610687" y="217.977048" width="12.4732824" height="21.9947932"></rect>
                                <g id="Rectangle-650-+-Rectangle-743" transform="translate(162.480916, 144.973054)">
                                    <path d="M0,5.16234175 L0.984732824,0 L9.19083969,0 L10.9115577,5.16234175 L3.36835043,10.2954351 L0,5.16234175 Z" id="Rectangle-650" fill="#CECECE"></path>
                                    <path d="M0.984732824,0 L9.19083969,0 L10.9115577,5.16234175 L0.984732824,0 Z" id="Rectangle-652" fill="#BBBBBB"></path>
                                </g>
                                <g id="Rectangle-650-+-Rectangle-744" transform="translate(151.977099, 136.549516)">
                                    <path d="M0,7.03423904 L0.984732824,1.87189729 L5.21857109,0 L9.19083969,1.87189729 L7.8778626,12.1673324 L2.50670921,14.8929172 L0,7.03423904 Z" id="Rectangle-650" fill="#D8D8D8"></path>
                                    <path d="M0.984732824,1.87189729 L5.21857109,0 L9.19083969,1.87189729 L7.8778626,12.1673324 L0.984732824,1.87189729 Z" id="Rectangle-651" fill="#CBCBCB"></path>
                                </g>
                                <g id="Rectangle-650-+-Rectangle-745" transform="translate(161.167939, 130.465850)">
                                    <path d="M0,7.03423904 L0.984732824,1.87189729 L5.21857109,0 L9.19083969,1.87189729 L7.8778626,12.1673324 L2.50670921,14.8929172 L0,7.03423904 Z" id="Rectangle-650" fill="#D8D8D8"></path>
                                    <path d="M0.984732824,1.87189729 L5.21857109,0 L9.19083969,1.87189729 L7.8778626,12.1673324 L0.984732824,1.87189729 Z" id="Rectangle-651" fill="#CBCBCB"></path>
                                </g>
                                <rect id="Rectangle-695" opacity="0.701142724" fill="#95E7F3" x="148.694656" y="130.46585" width="24.9465649" height="28.5043891"></rect>
                                <circle id="Oval-3779" opacity="0.655492071" fill="#DAF9FD" cx="158" cy="5" r="3"></circle>
                                <circle id="Oval-3780" opacity="0.655492071" fill="#DAF9FD" cx="161" cy="6" r="3"></circle>
                                <circle id="Oval-3782" opacity="0.655492071" fill="#DAF9FD" cx="160" cy="9" r="3"></circle>
                                <circle id="Oval-3781" opacity="0.655492071" fill="#DAF9FD" cx="163" cy="6" r="3"></circle>
                                <circle id="Oval-3784" opacity="0.655492071" fill="#DAF9FD" cx="164" cy="8" r="3"></circle>
                                <circle id="Oval-3783" opacity="0.655492071" fill="#DAF9FD" cx="167" cy="5" r="3"></circle>
                                <circle id="Oval-3786" opacity="0.655492071" fill="#FFFFFF" cx="164.5" cy="8.5" r="1.5"></circle>
                                <circle id="Oval-3785" opacity="0.655492071" fill="#DAF9FD" cx="169" cy="7" r="3"></circle>
                                <circle id="Oval-3803" fill="#FFFFFF" cx="156" cy="3" r="1"></circle>
                                <circle id="Oval-3804" fill="#FFFFFF" cx="163" cy="9" r="1"></circle>
                                <circle id="Oval-3805" fill="#FFFFFF" cx="170.5" cy="0.5" r="0.5"></circle>
                                <circle id="Oval-3788" opacity="0.655492071" fill="#DAF9FD" cx="171" cy="6" r="3"></circle>
                                <circle id="Oval-3787" opacity="0.655492071" fill="#DAF9FD" cx="174" cy="5" r="3"></circle>
                                <circle id="Oval-3790" opacity="0.655492071" fill="#DAF9FD" cx="171.5" cy="10.5" r="3.5"></circle>
                                <circle id="Oval-3789" opacity="0.655492071" fill="#DAF9FD" cx="174.5" cy="7.5" r="3.5"></circle>
                                <circle id="Oval-3792" opacity="0.50390625" fill="#F8FFFF" cx="174.5" cy="13.5" r="3.5"></circle>
                                <circle id="Oval-3791" opacity="0.655492071" fill="#DAF9FD" cx="177.5" cy="10.5" r="3.5"></circle>
                                <circle id="Oval-3794" opacity="0.655492071" fill="#FFFFFF" cx="153.5" cy="6.5" r="1.5"></circle>
                                <circle id="Oval-3793" opacity="0.50390625" fill="#F8FFFF" cx="162.5" cy="11.5" r="3.5"></circle>
                                <circle id="Oval-3796" opacity="0.655492071" fill="#DAF9FD" cx="176.5" cy="4.5" r="3.5"></circle>
                                <circle id="Oval-3795" opacity="0.655492071" fill="#DAF9FD" cx="180.5" cy="5.5" r="3.5"></circle>
                                <circle id="Oval-3798" opacity="0.655492071" fill="#FFFFFF" cx="177.5" cy="6.5" r="1.5"></circle>
                                <circle id="Oval-3797" opacity="0.655492071" fill="#DAF9FD" cx="182.5" cy="5.5" r="3.5"></circle>
                                <circle id="Oval-3800" opacity="0.655492071" fill="#DAF9FD" cx="182.5" cy="14.5" r="3.5"></circle>
                                <circle id="Oval-3799" opacity="0.655492071" fill="#DAF9FD" cx="185.5" cy="11.5" r="3.5"></circle>
                                <circle id="Oval-3802" opacity="0.50390625" fill="#F8FFFF" cx="186" cy="9" r="4"></circle>
                                <circle id="Oval-3801" opacity="0.655492071" fill="#FFFFFF" cx="186.5" cy="5.5" r="1.5"></circle>
                                <circle id="Oval-3806" fill="#FFFFFF" cx="177.5" cy="2.5" r="0.5"></circle>
                                <circle id="Oval-3807" fill="#FFFFFF" cx="182" cy="8" r="1"></circle>
                                <circle id="Oval-3808" fill="#FFFFFF" cx="171.5" cy="12.5" r="0.5"></circle>
                                <circle id="Oval-3809" fill="#FFFFFF" cx="191.5" cy="5.5" r="0.5"></circle>
                                <circle id="Oval-3810" fill="#FFFFFF" cx="181.5" cy="14.5" r="0.5"></circle>
                                <circle id="Oval-3811" fill="#FFFFFF" cx="172" cy="6" r="1"></circle>
                                <circle id="Oval-3812" fill="#FFFFFF" cx="186" cy="2" r="1"></circle>
                            </g>
                            <path d="M732.957542,644.585725 C1484.21926,644.585732 1465.45754,550.825296 1465.45754,435.165946 C1465.45754,346.245131 1308.62551,218.227337 1125.35598,161.590793 C942.086448,104.954249 844.982504,263.691727 751.457542,263.691727 C680.344997,263.691727 590.102366,205.999245 493.242698,224.450168 C419.297386,238.536106 283.000014,287.999993 205.999999,287.999993 C128.999984,287.999993 0.457541916,349.936107 0.457541916,435.165946 C0.457541916,550.825296 -18.3041768,644.585719 732.957542,644.585725 Z" id="Oval-1644" fill="#97D6AA"></path>
                            <path d="M1278.71875,391.007812 C1273.96529,517.554683 1436.99999,600.000014 1436.99999,600.000014 C1436.99999,600.000014 1462.5,461.365114 1462.5,440.817341 C1462.5,351.896525 1305.66797,223.878732 1122.39844,167.242187 C1040.12079,141.815583 1283.47221,264.460941 1278.71875,391.007812 Z" id="Oval-1648" fill="#9FDCB2"></path>
                            <path d="M504.938011,369.59977 C547.969261,369.59977 718.494822,428.733248 778.510276,426.360978 C912.69387,421.057015 968.172386,375.619301 1028.2759,369.59977 C1088.37942,363.580239 1216.20168,429.112256 1216.20168,426.360981 C1216.20168,422.476414 1138.61965,371.806802 1043.46731,354.91227 C948.314964,338.017738 857.354026,420.503054 771.322776,406.153947 C734.847434,400.070244 689.598199,390.085948 644.758847,380.537837 C583.83948,367.565641 523.676688,355.398568 487.301292,354.91227 C391.101296,353.626183 249.713401,397.434191 249.713401,401.435197 C249.713401,404.862295 367.932151,359.107072 504.938011,369.59977 Z" id="Oval-1645" fill="#8CCFA1"></path>
                            <path d="M764.999998,285 C768.999998,285 766.999998,268 753.999998,268 C683.999991,268 650.999998,243 580.999998,226 C651.000001,280 760.999998,285 764.999998,285 Z" id="Oval-1649" fill="#9FDCB2"></path>
                            <path d="M639.714845,525.445312 C628.870104,483.47279 616.507812,482.894531 604.644531,459.429688 C592.78125,435.964844 623.272453,404.117188 643.578125,394.589844 C655.759259,388.874502 656.763773,373.347839 667.972656,360.695312 C675.448725,352.256367 686.62853,346.377988 696.367187,341.273438 C720.707031,328.515625 757,312 774,300 C791,288 772.464843,262 772.464843,262 L799,252 C799,252 826,278 818,304 C810,330 736.417968,349.832031 729.691406,368.644531 C722.964843,387.457031 734.366295,394.089844 719,419.070312 C703.633705,444.050781 703.633705,454.792969 719,468.515625 C734.366295,482.238281 769.108392,489.814191 776,516.300781 C782.891608,542.787371 759.464843,595 759.464843,595 L594.625,595 C594.625,595 650.559585,567.417835 639.714845,525.445312 Z" id="Rectangle-904" fill="#7AE0F1"></path>
                            <path d="M734.996095,524.8125 C744.367189,501.160156 700.554687,477.800781 690.066407,462.9375 C679.578126,448.074219 690.152343,414.492188 701.117187,399.4375 C712.082031,384.382812 704.763773,374.347839 715.972656,361.695312 C723.448725,353.256367 734.62853,345.377988 744.367187,340.273438 C768.707031,327.515625 799,314 805,297 C811,280 791,258 791,258 L798.842254,254 C798.842254,254 826,281 818,302 C810,323 736.417968,350.832031 729.691406,369.644531 C722.964843,388.457031 734.366295,395.089844 719,420.070312 C703.633705,445.050781 703.633705,455.792969 719,469.515625 C734.366295,483.238281 769.108392,490.814191 776,517.300781 C782.891608,543.787371 759.464843,596 759.464843,596 L682.625,596 C682.625,596 725.625001,548.464844 734.996095,524.8125 Z" id="Rectangle-905" fill="#78D9E8"></path>
                            <path d="M713.284928,461.78125 C781.184805,466.182118 754.904927,423.271748 755.42963,419.538289 C755.561807,418.597799 721.102916,414.713984 721.102916,414.713984 C721.102916,414.713984 743.276079,442.596635 728.618909,443.023799 C713.961738,443.450963 699.318922,412.158403 698.758059,411.573619 C698.197195,410.988835 690.888135,410.467573 690.888135,410.467573 C690.888135,410.467573 714.149188,442.467479 694.535381,439.710939 C681.758602,437.915279 668.429165,407.311171 668.429165,407.311171 L658.603849,405.930313 C658.603849,405.930313 676.485423,433.110009 665.373272,434.135204 C654.261122,435.160399 631.506865,402.12208 631.506865,402.12208 C631.506865,402.12208 601.497529,396.301587 601.276611,397.873495 C600.994395,399.881573 645.385051,457.380381 713.284928,461.78125 L713.284928,461.78125 Z" id="Oval-2129" fill-opacity="0.05" fill="#000000"></path>
                            <g id="Group" transform="translate(686.000000, 374.500000) rotate(8.000000) translate(-686.000000, -374.500000) translate(603.000000, 336.000000)">
                                <path d="M13.932011,56.8116891 C13.932011,56.8116891 28.0291371,0.00265510892 87.6841795,0.0026551089 C147.339222,0.00265510888 165.848251,69.3358485 165.848251,69.3358485 L156.710483,69.3358485 C156.710483,69.3358485 138.02062,7.56826136 87.6841795,7.56826136 C37.3477385,7.56826136 13.932011,66.3997159 13.932011,66.3997159 L13.932011,56.8116891 Z" id="Rectangle-954" fill="#B18D72"></path>
                                <g id="Group-2" transform="translate(7.349258, 7.166217)">
                                    <g id="Rectangle-918-+-Rectangle-914" transform="translate(0.000000, 0.000000)">
                                        <path d="M121.222649,57.3297322 L97.5795792,57.3297318 L92.7317484,65.0220241 L84.5968473,57.3297318 L66.0973874,57.3297324 L66.0973874,57.3297324 L65.6862412,57.3297324 L65.6862412,33.7117995 C65.6862412,33.7117995 65.6862412,20.287227 77.3461539,20.287227 C89.0060666,20.287227 89.0060663,33.7117995 89.0060663,33.7117995 L89.0060663,57.3297324 L66.0973874,57.3297324 L60.8859215,65.0220241 L52.5864276,57.3297324 L33.95204,57.3297324 L28.1319637,65.0220241 L5.02199284,57.3297318 C5.02199284,57.3297318 15.3109538,0.0106180461 75.7997474,0.010618046 C136.288541,0.0106180458 153.010973,58.3857454 153.010973,58.3857454 L149.196632,65.0220249 L144.799518,65.0220241 L128.757466,57.3297324 L121.222649,57.3297322 L121.222649,33.7117995 C121.222649,33.7117995 121.22265,20.287227 109.562737,20.287227 C97.9028244,20.287227 97.9028244,33.7117995 97.9028244,33.7117995 L97.9028244,57.3297324 L121.222649,57.3297324 Z M33.469658,33.7117995 C33.469658,33.7117995 33.469658,20.287227 45.1295707,20.287227 C56.7894834,20.287227 56.7894831,33.7117995 56.7894831,33.7117995 L56.7894831,57.3297324 L33.469658,57.3297324 L33.469658,33.7117995 Z" id="Rectangle-918" fill="#C7AF9A"></path>
                                        <path d="M0.12248763,64.7430593 C0.12248763,64.7430593 9.08705106,7.48942522 72.9031064,7.48942522 C136.719162,7.48942522 144.770809,64.7430591 144.770809,64.7430591 L123.85796,64.7430598 L21.9482522,64.7430598 L0.12248763,64.7430593 Z M28.5701528,41.125127 C28.5701528,41.125127 28.5701528,27.7005545 40.2300655,27.7005545 C51.8899782,27.7005545 51.8899779,41.125127 51.8899779,41.125127 L51.8899779,64.7430598 L28.5701528,64.7430598 L28.5701528,41.125127 Z M60.786736,41.125127 C60.786736,41.125127 60.786736,27.7005545 72.4466487,27.7005545 C84.1065614,27.7005545 84.1065611,41.125127 84.1065611,41.125127 L84.1065611,64.7430598 L60.786736,64.7430598 L60.786736,41.125127 Z M93.0033192,41.125127 C93.0033192,41.125127 93.0033192,27.7005545 104.663232,27.7005545 C116.323145,27.7005545 116.323144,41.125127 116.323144,41.125127 L116.323144,64.7430598 L93.0033192,64.7430598 L93.0033192,41.125127 Z" id="Rectangle-914" fill="#AF9177"></path>
                                    </g>
                                    <path d="M28.408264,39.9401359 C28.408264,39.9401359 28.408264,26.0296424 41.1773749,26.0296424 C53.9464859,26.0296424 53.9464855,39.9401359 53.9464855,39.9401359 L53.9464855,64.4129527 L28.408264,64.4129527 L28.408264,39.9401359 Z" id="Rectangle-920" stroke="#BEA691" stroke-width="6"></path>
                                    <path d="M27.1833877,40.4343578 C27.1833877,40.4343578 27.1833877,26.5238642 39.9524986,26.5238642 C52.7216096,26.5238642 52.7216092,40.4343578 52.7216092,40.4343578 L52.7216092,64.9071745 L27.1833877,64.9071745 L27.1833877,40.4343578 Z" id="Rectangle-919" stroke="#D4B8A1" stroke-width="6"></path>
                                    <path d="M60.5000231,39.9401359 C60.5000231,39.9401359 60.5000231,26.0296424 73.269134,26.0296424 C86.038245,26.0296424 86.0382446,39.9401359 86.0382446,39.9401359 L86.0382446,64.4129527 L60.5000231,64.4129527 L60.5000231,39.9401359 Z" id="Rectangle-922" stroke="#BEA691" stroke-width="6"></path>
                                    <path d="M59.2751468,40.4343578 C59.2751468,40.4343578 59.2751468,26.5238642 72.0442577,26.5238642 C84.8133687,26.5238642 84.8133683,40.4343578 84.8133683,40.4343578 L84.8133683,64.9071745 L59.2751468,64.9071745 L59.2751468,40.4343578 Z" id="Rectangle-921" stroke="#D4B8A1" stroke-width="6"></path>
                                    <path d="M92.3468069,39.9401359 C92.3468069,39.9401359 92.3468069,26.0296424 105.115918,26.0296424 C117.885029,26.0296424 117.885028,39.9401359 117.885028,39.9401359 L117.885028,64.4129527 L92.3468069,64.4129527 L92.3468069,39.9401359 Z" id="Rectangle-924" stroke="#BEA691" stroke-width="6"></path>
                                    <path d="M91.1219306,40.4343578 C91.1219306,40.4343578 91.1219306,26.5238642 103.891042,26.5238642 C116.660152,26.5238642 116.660152,40.4343578 116.660152,40.4343578 L116.660152,64.9071745 L91.1219306,64.9071745 L91.1219306,40.4343578 Z" id="Rectangle-923" stroke="#D4B8A1" stroke-width="6"></path>
                                </g>
                                <path d="M1.74927647,72.4035014 C1.74927647,72.4035014 21.9414485,7.34286224 81.5767617,7.34286224 C92.795863,10.2444849 123.828296,9.40276339 78.044716,16.6201396 C32.2611365,23.8375158 7.47174544,72.4034991 7.47174544,72.4034991 L1.74927647,72.4035014 Z" id="Rectangle-948" opacity="0.485074627" fill="#967863"></path>
                                <path d="M0.034449646,72.4035014 C0.034449646,72.4035014 20.2822291,8.39115308 79.8619348,7.34286224 C139.441641,6.2945714 159.861668,72.4035014 159.861668,72.4035014 L152.129637,72.4034982 C152.129637,72.4034982 129.185215,14.7561897 79.8619348,14.7561897 C30.5386542,14.7561897 7.59423307,72.4034982 7.59423307,72.4034982 L0.034449646,72.4035014 Z" id="Rectangle-949" fill="#9C7B63"></path>
                                <g id="Oval-1647-+-Oval-1658" transform="translate(12.003788, 53.128847)">
                                    <ellipse id="Oval-1647" fill="#7B6656" cx="1.2248763" cy="1.23555458" rx="0.979901041" ry="0.988443662"></ellipse>
                                    <ellipse id="Oval-1646" fill="#BF997E" cx="0.979901041" cy="0.988443662" rx="0.979901041" ry="0.988443662"></ellipse>
                                </g>
                                <g id="Oval-1647-+-Oval-1659" transform="translate(20.332947, 41.267523)">
                                    <ellipse id="Oval-1647" fill="#7B6656" cx="1.2248763" cy="1.23555458" rx="0.979901041" ry="0.988443662"></ellipse>
                                    <ellipse id="Oval-1646" fill="#BF997E" cx="0.979901041" cy="0.988443662" rx="0.979901041" ry="0.988443662"></ellipse>
                                </g>
                                <g id="Oval-1647-+-Oval-1660" transform="translate(29.152056, 31.383086)">
                                    <ellipse id="Oval-1647" fill="#7B6656" cx="1.2248763" cy="1.23555458" rx="0.979901041" ry="0.988443662"></ellipse>
                                    <ellipse id="Oval-1646" fill="#BF997E" cx="0.979901041" cy="0.988443662" rx="0.979901041" ry="0.988443662"></ellipse>
                                </g>
                                <g id="Oval-1647-+-Oval-1661" transform="translate(41.155844, 22.239982)">
                                    <ellipse id="Oval-1647" fill="#7B6656" cx="1.2248763" cy="1.23555458" rx="0.979901041" ry="0.988443662"></ellipse>
                                    <ellipse id="Oval-1646" fill="#BF997E" cx="0.979901041" cy="0.988443662" rx="0.979901041" ry="0.988443662"></ellipse>
                                </g>
                                <g id="Oval-1647-+-Oval-1662" transform="translate(55.854359, 14.085322)">
                                    <ellipse id="Oval-1647" fill="#7B6656" cx="1.2248763" cy="1.23555458" rx="0.979901041" ry="0.988443662"></ellipse>
                                    <ellipse id="Oval-1646" fill="#BF997E" cx="0.979901041" cy="0.988443662" rx="0.979901041" ry="0.988443662"></ellipse>
                                </g>
                                <g id="Oval-1647-+-Oval-1663" transform="translate(73.002628, 9.884437)">
                                    <ellipse id="Oval-1647" fill="#7B6656" cx="1.2248763" cy="1.23555458" rx="0.979901041" ry="0.988443662"></ellipse>
                                    <ellipse id="Oval-1646" fill="#BF997E" cx="0.979901041" cy="0.988443662" rx="0.979901041" ry="0.988443662"></ellipse>
                                </g>
                                <path d="M101.274304,14.0650513 C107.901076,16.1674245 102.548941,10.9250052 102.548941,10.9250052 C143.837798,24.9109039 158.738227,71.4150545 158.738227,71.4150545 C158.738227,71.4150545 158.334401,69.4960838 155.310487,71.2104158 C152.286574,72.9247477 151.066004,68.4535846 151.066004,68.4535846 C151.066004,68.4535846 130.611527,17.4020139 81.6514026,14.0650513 C81.6514028,13.5708294 94.6475315,11.9626781 101.274304,14.0650513 Z" id="Rectangle-950" opacity="0.941289646" fill="#906F58"></path>
                                <g id="Oval-1647-+-Oval-1664" transform="translate(90.150896, 10.625769)">
                                    <ellipse id="Oval-1647" fill="#7B6656" cx="1.2248763" cy="1.23555458" rx="0.979901041" ry="0.988443662"></ellipse>
                                    <ellipse id="Oval-1646" fill="#BF997E" cx="0.979901041" cy="0.988443662" rx="0.979901041" ry="0.988443662"></ellipse>
                                </g>
                                <g id="Oval-1647-+-Oval-1665" transform="translate(104.849411, 15.073766)">
                                    <ellipse id="Oval-1647" fill="#7B6656" cx="1.2248763" cy="1.23555458" rx="0.979901041" ry="0.988443662"></ellipse>
                                    <ellipse id="Oval-1646" fill="#BF997E" cx="0.979901041" cy="0.988443662" rx="0.979901041" ry="0.988443662"></ellipse>
                                </g>
                                <g id="Oval-1647-+-Oval-1666" transform="translate(117.588125, 22.239982)">
                                    <ellipse id="Oval-1647" fill="#7B6656" cx="1.2248763" cy="1.23555458" rx="0.979901041" ry="0.988443662"></ellipse>
                                    <ellipse id="Oval-1646" fill="#BF997E" cx="0.979901041" cy="0.988443662" rx="0.979901041" ry="0.988443662"></ellipse>
                                </g>
                                <g id="Oval-1647-+-Oval-1667" transform="translate(127.387135, 30.147532)">
                                    <ellipse id="Oval-1647" fill="#7B6656" cx="1.2248763" cy="1.23555458" rx="0.979901041" ry="0.988443662"></ellipse>
                                    <ellipse id="Oval-1646" fill="#BF997E" cx="0.979901041" cy="0.988443662" rx="0.979901041" ry="0.988443662"></ellipse>
                                </g>
                                <g id="Oval-1647-+-Oval-1668" transform="translate(137.186146, 40.773301)">
                                    <ellipse id="Oval-1647" fill="#7B6656" cx="1.2248763" cy="1.23555458" rx="0.979901041" ry="0.988443662"></ellipse>
                                    <ellipse id="Oval-1646" fill="#BF997E" cx="0.979901041" cy="0.988443662" rx="0.979901041" ry="0.988443662"></ellipse>
                                </g>
                                <g id="Oval-1647-+-Oval-1669" transform="translate(144.535404, 51.151959)">
                                    <ellipse id="Oval-1647" fill="#7B6656" cx="1.2248763" cy="1.23555458" rx="0.979901041" ry="0.988443662"></ellipse>
                                    <ellipse id="Oval-1646" fill="#BF997E" cx="0.979901041" cy="0.988443662" rx="0.979901041" ry="0.988443662"></ellipse>
                                </g>
                                <path d="M41.6457942,64.248838 L58.5490872,64.248838 L58.7940625,76.8514947 L31.4850626,76.8514947 L41.6457942,64.248838 Z" id="Rectangle-951" opacity="0.894123134" fill="#7AE0F0"></path>
                                <path d="M73.7375533,64.248838 L90.6408463,64.248838 L90.8858216,76.8514947 L63.5768216,76.8514947 L73.7375533,64.248838 Z" id="Rectangle-952" opacity="0.894123134" fill="#7AE0F0"></path>
                                <path d="M105.339362,64.248838 L122.242655,64.248838 L122.48763,76.8514947 L95.1786302,76.8514947 L105.339362,64.248838 Z" id="Rectangle-953" opacity="0.894123134" fill="#78D9E8"></path>
                            </g>
                        </g>
                        <g id="left-mountain" transform="translate(0.262516, 39.621094)">
                            <path d="M246.673206,0.303358561 C415.795296,0.303358561 492.381997,546.617742 492.381997,546.617742 L0.964416052,546.617742 C0.964416052,546.617742 77.5511163,0.303358561 246.673206,0.303358561 Z" id="Rectangle-89" fill="#80BD93"></path>
                            <path d="M242.003274,9.54055607 C406.36351,9.54055607 3.21273567,648.196603 3.21273567,648.196603 C3.21273567,648.196603 77.6430372,9.54055607 242.003274,9.54055607 Z" id="Rectangle-90" fill="#79BA8E"></path>
                        </g>
                        <g id="1st-mountain" transform="translate(43.863151, 385.598940)">
                            <path d="M326.593893,0.56120918 C550.967498,0.56120918 652.574769,240.197529 652.574769,240.197529 L0.61301663,240.197529 C0.61301663,240.197529 102.220288,0.56120918 326.593893,0.56120918 Z" id="Rectangle-93" fill="#6CB182"></path>
                            <path d="M328.842213,3.92846426 C376.745675,3.92846426 417.247713,18.3971384 417.247713,18.3971384 C396.068714,120.111209 565.027325,199.522826 496.259461,231.494402 C376.47537,287.184458 2.86133625,243.564784 2.86133625,243.564784 C2.86133625,243.564784 104.468607,3.92846426 328.842213,3.92846426 Z" id="Rectangle-94" fill="#69AD7F"></path>
                        </g>
                        <g id="right-mountain" transform="translate(1415.000000, 147.000000)">
                            <path d="M173.371802,0 C292.704127,0 346.743603,447 346.743603,447 L0,447 C0,447 54.0394757,0 173.371802,0 Z" id="Rectangle-92" fill="#6CB182"></path>
                            <path d="M184.621802,5 C295.522416,5 345.743603,452 345.743603,452 C345.743603,452 73.721187,5 184.621802,5 Z" id="Rectangle-95" fill="#68AC7E"></path>
                        </g>
                    </g>
                </g>
            </g>
        </g>
    </g>
</svg>