<?xml version="1.0" encoding="UTF-8" standalone="no"?>
<svg width="121px" height="182px" viewBox="0 0 121 182" version="1.1" xmlns="http://www.w3.org/2000/svg" xmlns:xlink="http://www.w3.org/1999/xlink" xmlns:sketch="http://www.bohemiancoding.com/sketch/ns">
    <!-- Generator: Sketch 3.2.2 (9983) - http://www.bohemiancoding.com/sketch -->
    <title>Gandalf</title>
    <desc>Created with Sketch.</desc>
    <defs>
        <filter x="-50%" y="-50%" width="200%" height="200%" filterUnits="objectBoundingBox" id="filter-1">
            <feGaussianBlur stdDeviation="8.42888327" in="SourceGraphic" result="blur"></feGaussianBlur>
        </filter>
    </defs>
    <g id="The-view" stroke="none" stroke-width="1" fill="none" fill-rule="evenodd" sketch:type="MSPage">
        <g id="DAY" sketch:type="MSArtboardGroup" transform="translate(-1313.000000, -648.000000)">
            <g id="Gandalf" sketch:type="MSLayerGroup" transform="translate(1334.000000, 648.000000)">
                <path d="M59.6735606,153.695312 C55.3491462,151.968491 26.4179689,138.789376 26.4179689,138.789376 C26.4179689,138.789376 58.8124334,181.281251 46.7734052,166.488282 C34.734377,151.695313 11.033831,133.230321 8.89062454,131.023437 C-1.1437808,120.6909 49.2489541,146.521927 38.7343764,119.160156 C26.2002694,86.5430253 88.8954642,149.028358 98.273437,174.488281 C105.999997,195.464841 80.6283115,162.062946 59.6735606,153.695312 Z" id="Rectangle-96" fill="#66A57A" sketch:type="MSShapeGroup"></path>
                <g id="Group" sketch:type="MSShapeGroup">
                    <ellipse id="Oval-2167" fill-opacity="0.2" fill="#ED9191" filter="url(#filter-1)" cx="10.86" cy="44.2341772" rx="10.43" ry="11.9945"></ellipse>
                    <path d="M35.5624019,122.919533 C40.6656748,123.039494 46.3614526,125.834132 46.3614526,125.834132 C46.3614526,125.834132 47.2139935,129.284071 43.3645539,130.406086 C39.5151143,131.5281 35.2305321,131.092695 31.9837401,130.024871 C28.736948,128.957047 27.8736387,127.473873 28.1624725,125.406335 C28.4513063,123.338797 30.4591289,122.799572 35.5624019,122.919533 L35.5624019,122.919533 Z" id="Rectangle-1260" fill="#B09978"></path>
                    <path d="M35.5624019,123.666882 C40.6656748,123.78839 46.3614526,126.619089 46.3614526,126.619089 C46.3614526,126.619089 47.2139935,130.113543 43.3645539,131.250035 C39.5151143,132.386527 35.2305321,131.945504 31.9837401,130.863902 C28.736948,129.782299 27.8736387,128.279988 28.1624725,126.185772 C28.4513063,124.091556 30.4591289,123.545373 35.5624019,123.666882 L35.5624019,123.666882 Z" id="Rectangle-1261" fill="#C3A77F"></path>
                    <path d="M48.4624019,120.157204 C53.5656748,120.278713 59.2614526,123.109411 59.2614526,123.109411 C59.2614526,123.109411 60.1139935,126.603866 56.2645539,127.740358 C52.4151143,128.876849 48.1305321,128.435827 44.8837401,127.354224 C41.636948,126.272622 40.7736387,124.77031 41.0624725,122.676094 C41.3513063,120.581878 43.3591289,120.035696 48.4624019,120.157204 L48.4624019,120.157204 Z" id="Rectangle-1262" fill="#B09978"></path>
                    <path d="M48.4624019,119.279785 C53.5656748,119.401294 59.2614526,122.231992 59.2614526,122.231992 C59.2614526,122.231992 60.1139935,125.726447 56.2645539,126.862938 C52.4151143,127.99943 48.1305321,127.558408 44.8837401,126.476805 C41.636948,125.395202 40.7736387,123.892891 41.0624725,121.798675 C41.3513063,119.704459 43.3591289,119.158276 48.4624019,119.279785 L48.4624019,119.279785 Z" id="Rectangle-1263" fill="#C3A77F"></path>
                    <path d="M49.16,89.0868875 L59.48,89.0868875 L59.48,120.074229 C59.48,120.074229 58.0959327,122.240354 55.3933203,122.656508 C52.690708,123.072661 50.88,121.795748 50.88,121.795748 L49.16,89.0868875 Z" id="Rectangle-1264" fill="#999999"></path>
                    <path d="M56.6187854,110.675024 C56.3946121,103.478978 53.3662656,89.0868875 53.3662656,89.0868875 L59.48,89.0868875 L59.48,120.074229 C59.48,120.074229 58.6600562,122.240354 57.0589851,122.656508 C55.4579139,123.072661 54.3852213,121.795748 54.3852213,121.795748 C54.3852213,121.795748 56.734264,114.381932 56.6187854,110.675024 Z" id="Rectangle-1265" fill="#818181"></path>
                    <path d="M36.26,94.2514445 L47.44,91.669166 L46.58,123.517267 C46.58,123.517267 44.3359327,126.544152 41.6333203,126.960305 C38.930708,127.376459 37.12,126.099546 37.12,126.099546 L36.26,94.2514445 Z" id="Rectangle-1266" fill="#999999"></path>
                    <path d="M47.44,91.669166 L46.58,123.517267 C46.58,123.517267 44.3359327,126.544152 41.6333203,126.960305 C38.930708,127.376459 47.44,91.669166 47.44,91.669166 Z" id="Rectangle-1267" fill="#CFCFCF"></path>
                    <g id="Rectangle-1242" transform="translate(10.460000, 48.631191) rotate(-2.000000) translate(-10.460000, -48.631191) translate(3.777001, 40.031176)">
                        <path d="M12.194342,1.64765588 L13.2415897,8.22747035 L4.75114188,16.9759737 L0.347898857,5.63680358 L4.13578518,0.0284891459 L12.194342,1.64765588 Z" id="Rectangle-1238" fill="#DD7373"></path>
                        <path d="M12.194342,1.64765588 L13.2415897,8.22747035 L0.347898857,5.63680358 L4.13578518,0.0284891459 L12.194342,1.64765588 Z" id="Rectangle-1239" fill="#ED8181"></path>
                        <path d="M12.194342,1.64765588 L13.2415897,8.22747035 L11.2546119,8.22257942 L7.15382976,1.64765588 L12.194342,1.64765588 Z" id="Rectangle-1240" fill="#E67A7A"></path>
                    </g>
                    <path d="M5.5634228,119.104553 L5.70106463,104.703611 L8.25640859,91.4981365 L7.6379362,82.5259613 L9.02480181,66.4251041 L6.35061357,59.5241565 L5.93972172,47.8735484 L9.09169614,53.5930337 L11.1598797,48.583326 L11.9261384,53.989079 L15.7267924,48.4023991 L14.7985509,58.3176348 L11.3558252,60.9546657 L10.1451968,82.7090616 L11.0603346,91.1672122 L8.92809659,104.121638 L7.55223228,119.103762 L8.7518019,127.403114 L7.23004291,128.199166 L5.5634228,119.104553 L5.5634228,119.104553 Z" id="Rectangle-1243" fill="#BFA88D"></path>
                    <path d="M9.46099725,73.8319398 C11.1537845,74.7119284 11.6800711,73.6752116 12.7582188,71.5163682 C13.8363666,69.3575247 15.0581028,66.8940647 13.3653155,66.0140761 C11.6725283,65.1340876 9.61750545,64.0657924 7.48809395,68.3296478 C5.35868246,72.5935032 7.76821,72.9519513 9.46099725,73.8319398 L9.46099725,73.8319398 Z" id="Oval-2152" fill="#EFDDB2"></path>
                    <path d="M11.1226367,68.9657937 C12.7981251,66.661749 14.4845313,67.5334362 14.4845313,67.5334362 L21.8944727,73.0132127 L34.8347846,70.4216878 L34.8347846,79.194878 L21.8944727,79.194878 L11.1226367,72.5012961 C11.1226367,72.5012961 9.44714838,71.2698384 11.1226367,68.9657937 Z" id="Rectangle-1244" fill="#999999"></path>
                    <path d="M11.1226367,71.5480722 L21.8944729,76.8925149 L34.8347846,75.1709962 L34.8347846,79.194878 L21.8944727,79.194878 L11.1226367,72.5012961 L11.1226367,71.5480722 Z" id="Rectangle-1268" fill="#919191"></path>
                    <path d="M33.68,61.5425837 C37.4797191,61.5425837 40.56,56.3400191 40.56,49.9223305 C40.56,43.5046419 37.4797191,38.3020774 33.68,38.3020774 C31.4717191,38.3020774 28.5821484,44.0617688 28.5821484,44.0617688 C28.5821484,44.0617688 26.3291622,48.2279717 26.0802539,49.5087625 C25.85847,50.6499809 28.5821484,51.3692266 28.5821484,52.6357403 C28.5821484,59.053429 29.8802809,61.5425837 33.68,61.5425837 Z" id="Oval-2153" fill="#EFDDB2"></path>
                    <path d="M29.2997316,51.7031765 C29.2997316,51.7031765 26.2156149,48.8122444 26.0802539,49.5087625 C25.9759515,50.0454643 28.5821484,52.6357403 28.5821484,52.6357403 C28.5821484,52.6357403 29.2997316,51.7031765 29.2997316,51.7031765 Z" id="Oval-2160" fill="#DDCCA1"></path>
                    <path d="M28.4746485,57.7313693 C29.7794074,53.1796093 34.8360609,53.6179457 34.2107814,49.6298068 C33.585502,45.6416679 26.950612,39.351128 28.4746484,39.351128 C33.5439453,39.351128 44,43.4666343 44,43.4666343 C44,43.4666343 52.843459,39.7718001 55.7779697,43.4666343 C58.7124805,47.1614686 57.6088291,61.0550441 57.6088291,61.0550441 L44,63.2641027 C44,63.2641027 36.3852072,75.371815 34.2107818,74.1446407 C32.0363563,72.9174663 27.1698895,62.2831293 28.4746485,57.7313693 Z" id="Rectangle-1269" fill="#E5E5E5"></path>
                    <path d="M38.3554098,49.1463824 C47.185228,53.3471926 56.2781698,51.1528496 57.4678506,46.6831887 C58.6575313,42.2135278 54.8065138,35.6750238 45.1210653,31.0671451 C35.4356169,26.4592664 26.1195038,25.9280995 24.3129443,29.8807506 C22.5063848,33.8334017 28.6699614,44.5385036 38.3554098,49.1463824 L38.3554098,49.1463824 Z" id="Oval-2161" fill="#E6E6E6"></path>
                    <path d="M36.8270718,46.4548876 C46.5125202,51.0627663 56.7204962,49.6425873 58.5270557,45.6899362 C60.3336152,41.737285 53.9465138,34.7976045 44.2610653,30.1897258 C34.5756169,25.5818471 25.2595038,25.0506801 23.4529443,29.0033312 C21.6463848,32.9559824 27.1416234,41.8470089 36.8270718,46.4548876 L36.8270718,46.4548876 Z" id="Oval-2162" fill="#A0A0A0"></path>
                    <path d="M48.4513969,40.8964138 C46.7917108,44.9040428 32.1300095,44.2202473 36.8270718,46.4548876 C46.5125202,51.0627663 56.7204962,49.6425873 58.5270557,45.6899362 C60.3336152,41.737285 53.9465138,34.7976045 44.2610653,30.1897258 C39.2726793,27.8164874 50.214021,36.6402215 48.4513969,40.8964138 L48.4513969,40.8964138 Z" id="Oval-2163" fill="#9A9A9A"></path>
                    <path d="M54.11584,42.3316134 C56.2316804,40.6632274 50.8080277,34.6078738 50.8080277,34.6078738 C50.8080277,34.6078738 46.9583465,31.6516685 44.1807102,30.3302005 C37.7237446,27.2582813 34.9530026,26.90417 33.7486295,29.5392708 C32.5442565,32.1743715 33.9646674,35.4829327 40.421633,38.5548518 C45.8148133,41.1206722 51.9999996,43.9999995 54.11584,42.3316134 Z" id="Oval-2164" fill="#8E8E8E"></path>
                    <path d="M58.7180079,3.93908497 C72.6486007,0.77059497 72.4410542,0.50993946 72.4410542,0.50993946 C72.4410542,0.50993946 68.8294215,5.12636791 58.9699611,14.4570972 C53.2043315,19.9135347 51.3878747,37.0273147 51.3878747,37.0273147 C51.3878747,37.0273147 42.9527892,38.3117146 39.8433589,36.2844629 C36.7339285,34.2572113 32.5941744,29.5060557 34.9504295,26.3106129 C37.3066846,23.11517 44.7874151,7.10757497 58.7180079,3.93908497 L58.7180079,3.93908497 Z" id="Rectangle-1270" fill="#989898"></path>
                    <path d="M57.4190425,10.8288661 C65.0000005,3.28771724 70.1410542,3.28771724 70.1410542,3.28771724 C70.1410542,3.28771724 60.4132843,10.0729849 58.2812439,12.4849166 C52.0000005,19.590753 50.5278747,35.0828702 50.5278747,35.0828702 C50.5278747,35.0828702 47.9629059,36.1424256 45.2054071,35.8392436 C43.2241094,35.6214035 41.1434162,34.2431709 39.8433589,33.3955741 C39.1274544,32.9288267 43.9997855,33.7974115 47.1766839,29.450588 C50.6986806,24.6315802 53.0199557,15.2048524 57.4190425,10.8288661 Z" id="Rectangle-1271" fill="#8E8E8E"></path>
                    <path d="M33.1408203,91.5795676 C36.0183758,76.5220936 32.8497619,64.0419706 34.2331519,60.1474688 C37.1754637,51.8643105 54.7933668,49.8760983 54.7933668,49.8760983 C54.7933668,49.8760983 54.4778215,47.0814716 60.5202597,64.0920661 C66.5626979,81.1026606 86.7267457,106.012942 86.7267457,106.012942 C86.7267457,106.012942 70.868816,101.551811 63.8561207,106.012942 C56.8434254,110.474072 56.7924602,123.646997 47.8814527,125.178527 C27.9897535,128.597302 22.8599879,119.660177 22.8599879,119.660177 C22.8599879,119.660177 30.2632648,106.637042 33.1408203,91.5795676 Z" id="Rectangle-1272" fill="#A0A0A0"></path>
                    <path d="M33.9050781,90.6249653 C36.3695743,76.4574142 34.5022071,62.2898641 34.5022071,62.2898641 C34.5022071,62.2898641 42.2967969,83.19873 37.4441797,93.7075873 C32.5915625,104.216445 30.3181911,109.150139 30.4332145,117.12723 C30.5013155,121.850159 32.3399999,121.545103 33.9050781,124.090257 C36.1593828,127.756241 23.8084766,120.506041 23.8084766,120.506041 C23.8084766,120.506041 31.440582,104.792516 33.9050781,90.6249653 Z" id="Rectangle-1273" fill="#AEAEAE"></path>
                    <path d="M66.1475543,88.6271814 C62.9918545,83.5019145 56.0755045,79.1299311 50.6875577,73.7354913 C44.3957511,67.4361026 40.0080926,59.5799803 40.8052344,57.3446999 C40.9789397,56.8576094 44.4394197,58.3454671 47.9850586,57.3446999 C51.5306975,56.3439326 53.8824414,51.9910113 53.8824414,51.9910113 C53.8824414,51.9910113 55.61,52.9080901 60.5178455,67.3977993 C65.425691,81.8875085 84.4831946,104.962679 84.4831946,104.962679 C84.4831946,104.962679 73.4614886,100.328208 66.1475535,104.962679 C62.3604942,107.362348 73.4929972,100.557136 66.1475543,88.6271814 Z" id="Rectangle-1274" fill="#919191"></path>
                </g>
            </g>
        </g>
    </g>
</svg>