<?xml version="1.0" encoding="UTF-8" standalone="no"?>
<svg width="1440px" height="948px" viewBox="0 0 1440 948" version="1.1" xmlns="http://www.w3.org/2000/svg" xmlns:xlink="http://www.w3.org/1999/xlink" xmlns:sketch="http://www.bohemiancoding.com/sketch/ns">
    <!-- Generator: Sketch 3.2.2 (9983) - http://www.bohemiancoding.com/sketch -->
    <title>background-mountains 2</title>
    <desc>Created with Sketch.</desc>
    <defs>
        <rect id="path-1" x="0" y="0" width="2050" height="968"></rect>
    </defs>
    <g id="The-view" stroke="none" stroke-width="1" fill="none" fill-rule="evenodd" sketch:type="MSPage">
        <g id="DAY" sketch:type="MSArtboardGroup" transform="translate(0.000000, -248.000000)">
            <g id="background-mountains-2" sketch:type="MSLayerGroup" transform="translate(-305.000000, 228.000000)">
                <mask id="mask-2" sketch:name="Mask" fill="white">
                    <use xlink:href="#path-1"></use>
                </mask>
                <use id="Mask" sketch:type="MSShapeGroup" xlink:href="#path-1"></use>
                <g id="background-mountains" mask="url(#mask-2)" sketch:type="MSShapeGroup">
                    <g transform="translate(65.000000, 20.000000)">
                        <path d="M1024,578.873786 L1153,468.08932 L1307.79687,251.046738 L1374.77734,134.843128 L1429.10156,92.4139563 L1502.28906,0.768037015 L1602.87109,62.3357555 L1664.95702,152.82767 L1768.84765,217.45584 L1831.86327,288.477822 L1984.83984,521.5946 L1806,638.757282 L1526,675.685437 L1222,660.714563 L1024,578.873786 Z" id="Rectangle-31" fill="#BFEADC"></path>
                        <path d="M1633.76952,107.018356 L1585.4414,99.5875 L1555.33984,88.0045661 L1523.42577,118.566201 L1479.16797,123.712439 L1419.08594,145.942627 L1374.77734,134.843128 L1429.10156,92.4139563 L1502.28906,0.768037015 L1602.87109,62.3357555 L1633.76952,107.018356 Z" id="Rectangle-33" fill="#F3FCF9"></path>
                        <path d="M525.205078,517.44525 L739.001953,418.785633 L805.982422,302.582022 L860.30664,260.15285 L933.49414,168.506931 L1034.07617,230.07465 L1096.16211,320.566564 L1200.05273,385.194735 L1263.06836,456.216716 L1416.04492,689.333494 L925.482422,778.051515 L688.205078,708.206931 L525.205078,517.44525 Z" id="Rectangle-32" fill="#BFEADC"></path>
                        <path d="M1047.64843,250.172268 L1034.07617,269.288595 L993.289062,250.172268 L954.582032,264.883104 L926.445313,245.163656 L902.222656,259.810941 L869.34375,250.172268 L885.317239,228.834397 L933.49414,168.506931 L1034.07617,230.07465 L1047.64843,250.172268 Z" id="Rectangle-34" fill="#F3FCF9"></path>
                        <path d="M0.2050778,535.682144 L214.001953,437.022526 L280.982422,320.818915 L335.30664,278.389744 L408.49414,186.743824 L509.076172,248.311543 L571.162109,338.803457 L675.052734,403.431628 L738.068359,474.453609 L891.044922,707.570387 L400.482422,796.288409 L163.205078,726.443824 L0.2050778,535.682144 Z" id="Rectangle-36" fill="#BFEADC"></path>
                        <path d="M522.648431,268.409161 L509.076165,287.525488 L468.289062,268.409161 L429.582032,283.119997 L401.445313,263.400549 L377.222656,278.047834 L344.34375,268.409161 L360.317239,247.071291 L408.49414,186.743824 L509.076172,248.311543 L522.648431,268.409161 Z" id="Rectangle-35" fill="#F3FCF9"></path>
                        <path d="M1581.1337,261.11894 C1707.53929,261.11894 1810,1027.00194 1810,1027.00194 L1357,1027.00194 C1357,1027.00194 1454.72811,261.11894 1581.1337,261.11894 Z" id="Rectangle-101" fill="#C8EBD0"></path>
                        <path d="M378.777349,311.947785 C522.000006,401.219417 519.812506,398.311013 525.000006,332.353398 C530.187506,266.395783 597.424094,138.730097 638.866299,138.730097 C794.514797,138.730097 876.000006,1026.00388 876.000006,1026.00388 L177.769543,1026.00388 C177.769543,1026.00388 216.71801,210.935123 378.777349,311.947785 Z" id="Rectangle-104" fill="#C8EBD0"></path>
                        <path d="M910.647656,312.071829 C1002.74163,281.753451 1042.17577,487.025138 1066.86718,442.751901 C1091.55858,398.478664 1101.23159,144.43591 1216.83207,227.260587 C1332.43255,310.085264 1493,1027.14247 1493,1027.14247 L776.714292,1027.14247 C776.714292,1027.14247 798.67891,348.933204 910.647656,312.071829 Z" id="Rectangle-106" fill="#C8EBD0"></path>
                        <path d="M925.845296,305.737314 C979.020893,305.737314 1015.77656,385.959323 1015.77656,385.959323 C1015.77656,385.959323 978.512382,402.872798 956.719406,380.755755 C934.92643,358.638712 909.684164,341.244932 896.965504,359.375392 C865.051439,404.868914 846.660957,423.384705 846.660957,423.384705 C846.660957,423.384705 872.669698,305.737314 925.845296,305.737314 Z" id="Rectangle-105" fill="#F3FFF7"></path>
                        <path d="M1173.4609,208.367335 C1226.6365,208.367335 1251.32735,267.993762 1251.32735,267.993762 C1251.32735,267.993762 1235.08516,276.371749 1235.08516,314.847675 C1235.08516,353.3236 1183.06664,304.357221 1161.72578,291.019034 C1133.78047,273.553014 1096.27656,328.010842 1096.27656,328.010842 C1096.27656,328.010842 1120.28531,208.367335 1173.4609,208.367335 Z" id="Rectangle-107" fill="#F3FFF7"></path>
                        <path d="M633.771929,135.735922 C697.22731,135.735922 724.000001,233.545631 724.000001,233.545631 C724.000001,233.545631 696.048371,173.611453 665.410149,196.621374 C634.771928,219.631296 644.071397,207.026911 606.000001,220.570874 C567.928605,234.114836 542.000001,268.47767 542.000001,268.47767 C542.000001,268.47767 570.316548,135.735922 633.771929,135.735922 Z" id="Rectangle-103" fill="#F3FFF7"></path>
                        <path d="M1579.35618,261.11894 C1630.8897,261.11894 1654,340.337864 1654,340.337864 C1654,340.337864 1628.8263,330.76297 1604.0826,327.494201 C1584.5349,324.911848 1585.56329,339.51802 1573.82303,337.587703 C1571.68081,337.235481 1552.36048,315.810782 1550.16322,316.646197 C1520.68131,327.855425 1496,372.275728 1496,372.275728 C1496,372.275728 1527.82266,261.11894 1579.35618,261.11894 Z" id="Rectangle-102" fill="#F3FFF7"></path>
                        <path d="M340.128143,298.617481 C393.30374,298.617481 464.171877,365.254233 464.171877,365.254233 C464.171877,365.254233 431.096675,355.965511 409.796877,357.441175 C388.49708,358.916839 378.620705,392.340556 368.953127,382.529218 C347.160151,360.412175 323.967011,334.125099 311.248351,352.255559 C279.334286,397.749081 267,417.999996 267,417.999996 C267,417.999996 286.952545,298.617481 340.128143,298.617481 Z" id="Rectangle-108" fill="#F3FFF7"></path>
                    </g>
                </g>
            </g>
        </g>
    </g>
</svg>