<?xml version="1.0" encoding="UTF-8" standalone="no"?>
<svg width="1440px" height="826px" viewBox="0 0 1440 826" version="1.1" xmlns="http://www.w3.org/2000/svg" xmlns:xlink="http://www.w3.org/1999/xlink" xmlns:sketch="http://www.bohemiancoding.com/sketch/ns">
    <!-- Generator: Sketch 3.2.2 (9983) - http://www.bohemiancoding.com/sketch -->
    <title>background-mountains</title>
    <desc>Created with Sketch.</desc>
    <defs></defs>
    <g id="The-view" stroke="none" stroke-width="1" fill="none" fill-rule="evenodd" sketch:type="MSPage">
        <g id="DAY" sketch:type="MSArtboardGroup" transform="translate(0.000000, -191.000000)">
            <g id="background-mountains" sketch:type="MSLayerGroup" transform="translate(-494.000000, 191.000000)">
                <path d="M1348.86719,522.609375 L1467.79687,251.535156 L1534.77734,135.105469 L1589.10156,92.59375 L1662.28906,0.76953125 L1762.87109,62.4570312 L1824.95702,153.125 L1928.84765,217.878906 L1991.86327,289.039062 L2144.83984,522.609375 L1654.27734,611.5 L1416.99999,541.519531 L1348.86719,522.609375 Z" id="Rectangle-31" opacity="0.1" fill="#4BC991" sketch:type="MSShapeGroup"></path>
                <path d="M1793.76952,107.226563 L1745.4414,99.78125 L1715.33984,88.1757812 L1683.42577,118.796875 L1639.16797,123.953125 L1579.08594,146.226562 L1534.77734,135.105469 L1589.10156,92.59375 L1662.28906,0.76953125 L1762.87109,62.4570312 L1793.76952,107.226563 Z" id="Rectangle-33" opacity="0.48594916" fill="#FFFFFF" sketch:type="MSShapeGroup"></path>
                <path d="M685.205078,518.451953 L899.001953,419.600391 L965.982422,303.170703 L1020.30664,260.658984 L1093.49414,168.834766 L1194.07617,230.522266 L1256.16211,321.190234 L1360.05273,385.944141 L1423.06836,457.104297 L1576.04492,690.674609 L1085.48242,779.565234 L848.205078,709.584766 L685.205078,518.451953 Z" id="Rectangle-32" opacity="0.1" fill="#4BC991" sketch:type="MSShapeGroup"></path>
                <path d="M1207.64843,250.658984 L1194.07617,269.812503 L1153.28906,250.658984 L1114.58203,265.398441 L1086.44531,245.640628 L1062.22266,260.316409 L1029.34375,250.658984 L1045.31724,229.2796 L1093.49414,168.834766 L1194.07617,230.522266 L1207.64843,250.658984 Z" id="Rectangle-34" opacity="0.48594916" fill="#FFFFFF" sketch:type="MSShapeGroup"></path>
                <path d="M0.2050778,406.451953 L214.001953,307.600391 L280.982422,191.170703 L335.30664,148.658984 L408.49414,56.8347656 L509.076172,118.522266 L571.162109,209.190234 L675.052734,273.944141 L738.068359,345.104297 L891.044922,578.674609 L400.482422,667.565234 L163.205078,597.584766 L0.2050778,406.451953 Z" id="Rectangle-36" opacity="0.1" fill="#4BC991" sketch:type="MSShapeGroup"></path>
                <path d="M522.648431,138.658984 L509.076165,157.812503 L468.289062,138.658984 L429.582032,153.398441 L401.445313,133.640628 L377.222656,148.316409 L344.34375,138.658984 L360.317239,117.2796 L408.49414,56.8347656 L509.076172,118.522266 L522.648431,138.658984 Z" id="Rectangle-35" opacity="0.48594916" fill="#FFFFFF" sketch:type="MSShapeGroup"></path>
                <path d="M1861.1337,146 C2003.36029,146 2067.7674,786.553776 2067.7674,786.553776 L1654.5,786.553776 C1654.5,786.553776 1718.90711,146 1861.1337,146 Z" id="Rectangle-101" fill="#C8EBD0" sketch:type="MSShapeGroup"></path>
                <path d="M568.777349,292.554688 C712.000006,382 709.812506,379.085938 715.000006,313 C720.187506,246.914062 787.424094,119 828.866299,119 C984.514797,119 1055,803.553776 1055,803.553776 L356.769537,803.553772 C356.769537,803.553772 406.71801,191.345503 568.777349,292.554688 Z" id="Rectangle-104" fill="#C8EBD0" sketch:type="MSShapeGroup"></path>
                <path d="M1100.64766,292.678972 C1192.74163,262.301609 1232.17577,467.972658 1256.86718,423.613286 C1281.55858,379.253914 1291.23159,124.716914 1406.83207,207.702728 C1522.43255,290.688542 1695.14286,818.859198 1695.14286,818.859198 L978.857136,826 C978.857136,826 988.67891,329.612062 1100.64766,292.678972 Z" id="Rectangle-106" fill="#C8EBD0" sketch:type="MSShapeGroup"></path>
                <path d="M1115.8453,286.332134 C1169.02089,286.332134 1205.77656,366.710216 1205.77656,366.710216 C1205.77656,366.710216 1168.51238,383.656597 1146.71941,361.496525 C1124.92643,339.336452 1099.68416,321.908833 1086.9655,340.074566 C1055.05144,385.656597 1030.66096,404.20841 1030.66096,404.20841 C1030.66096,404.20841 1062.6697,286.332134 1115.8453,286.332134 Z" id="Rectangle-105" fill="#F3FFF7" sketch:type="MSShapeGroup"></path>
                <path d="M1363.4609,188.772719 C1416.6365,188.772719 1444.32735,245.51515 1444.32735,245.51515 C1444.32735,245.51515 1425.08516,256.909437 1425.08516,295.460219 C1425.08516,334.011 1373.06664,284.949356 1351.72578,271.585219 C1323.78047,254.085219 1286.27656,308.648995 1286.27656,308.648995 C1286.27656,308.648995 1310.28531,188.772719 1363.4609,188.772719 Z" id="Rectangle-107" fill="#F3FFF7" sketch:type="MSShapeGroup"></path>
                <path d="M823.771929,116 C887.22731,116 922.768691,211.866781 922.768691,211.866781 C922.768691,211.866781 886.048371,153.949219 855.410149,177.003906 C824.771928,200.058594 834.071397,187.429688 796.000001,201 C757.928605,214.570312 732.000001,249 732.000001,249 C732.000001,249 760.316548,116 823.771929,116 Z" id="Rectangle-103" fill="#F3FFF7" sketch:type="MSShapeGroup"></path>
                <path d="M1859.1337,146 C1917.11719,146 1949.11115,236.640625 1949.11115,236.640625 C1949.11115,236.640625 1914.79553,224.513171 1886.9549,220.828125 C1864.9606,217.916911 1866.1177,234.383174 1852.90803,232.207031 C1850.49768,231.809954 1828.75921,207.656828 1826.28693,208.598633 C1793.11506,221.235352 1759.7049,271.197266 1759.7049,271.197266 C1759.7049,271.197266 1801.15022,146 1859.1337,146 Z" id="Rectangle-102" fill="#F3FFF7" sketch:type="MSShapeGroup"></path>
                <path d="M530.128143,279.198449 C583.30374,279.198449 654.171877,345.964845 654.171877,345.964845 C654.171877,345.964845 621.096675,336.658051 599.796877,338.136586 C578.49708,339.615121 568.620705,373.103864 558.953127,363.273438 C537.160151,341.113366 513.967011,314.775148 501.248351,332.940881 C469.334286,378.522912 444.943804,397.074726 444.943804,397.074726 C444.943804,397.074726 476.952545,279.198449 530.128143,279.198449 Z" id="Rectangle-108" fill="#F3FFF7" sketch:type="MSShapeGroup"></path>
            </g>
        </g>
    </g>
</svg>