<?xml version="1.0" encoding="UTF-8" standalone="no"?>
<svg width="1440px" height="826px" viewBox="0 0 1440 826" version="1.1" xmlns="http://www.w3.org/2000/svg" xmlns:xlink="http://www.w3.org/1999/xlink" xmlns:sketch="http://www.bohemiancoding.com/sketch/ns">
    <!-- Generator: Sketch 3.2.2 (9983) - http://www.bohemiancoding.com/sketch -->
    <title>background-mountains</title>
    <desc>Created with Sketch.</desc>
    <defs></defs>
    <g id="The-view" stroke="none" stroke-width="1" fill="none" fill-rule="evenodd" sketch:type="MSPage">
        <g id="DAY" sketch:type="MSArtboardGroup" transform="translate(0.000000, -191.000000)">
            <g id="background-mountains" sketch:type="MSLayerGroup" transform="translate(-454.000000, 191.000000)">
                <path d="M1308.86719,522.609375 L1427.79687,251.535156 L1494.77734,135.105469 L1549.10156,92.59375 L1622.28906,0.76953125 L1722.87109,62.4570312 L1784.95702,153.125 L1888.84765,217.878906 L1951.86327,289.039062 L2104.83984,522.609375 L1614.27734,611.5 L1376.99999,541.519531 L1308.86719,522.609375 Z" id="Rectangle-31" opacity="0.1" fill="#4BC991" sketch:type="MSShapeGroup"></path>
                <path d="M1753.76952,107.226563 L1705.4414,99.78125 L1675.33984,88.1757812 L1643.42577,118.796875 L1599.16797,123.953125 L1539.08594,146.226562 L1494.77734,135.105469 L1549.10156,92.59375 L1622.28906,0.76953125 L1722.87109,62.4570312 L1753.76952,107.226563 Z" id="Rectangle-33" opacity="0.48594916" fill="#FFFFFF" sketch:type="MSShapeGroup"></path>
                <path d="M645.205078,518.451953 L859.001953,419.600391 L925.982422,303.170703 L980.30664,260.658984 L1053.49414,168.834766 L1154.07617,230.522266 L1216.16211,321.190234 L1320.05273,385.944141 L1383.06836,457.104297 L1536.04492,690.674609 L1045.48242,779.565234 L808.205078,709.584766 L645.205078,518.451953 Z" id="Rectangle-32" opacity="0.1" fill="#4BC991" sketch:type="MSShapeGroup"></path>
                <path d="M1167.64843,250.658984 L1154.07617,269.812503 L1113.28906,250.658984 L1074.58203,265.398441 L1046.44531,245.640628 L1022.22266,260.316409 L989.34375,250.658984 L1005.31724,229.2796 L1053.49414,168.834766 L1154.07617,230.522266 L1167.64843,250.658984 Z" id="Rectangle-34" opacity="0.48594916" fill="#FFFFFF" sketch:type="MSShapeGroup"></path>
                <path d="M0.2050778,406.451953 L214.001953,307.600391 L280.982422,191.170703 L335.30664,148.658984 L408.49414,56.8347656 L509.076172,118.522266 L571.162109,209.190234 L675.052734,273.944141 L738.068359,345.104297 L891.044922,578.674609 L400.482422,667.565234 L163.205078,597.584766 L0.2050778,406.451953 Z" id="Rectangle-36" opacity="0.1" fill="#4BC991" sketch:type="MSShapeGroup"></path>
                <path d="M522.648431,138.658984 L509.076165,157.812503 L468.289062,138.658984 L429.582032,153.398441 L401.445313,133.640628 L377.222656,148.316409 L344.34375,138.658984 L360.317239,117.2796 L408.49414,56.8347656 L509.076172,118.522266 L522.648431,138.658984 Z" id="Rectangle-35" opacity="0.48594916" fill="#FFFFFF" sketch:type="MSShapeGroup"></path>
                <path d="M1821.1337,146 C1963.36029,146 2027.7674,786.553776 2027.7674,786.553776 L1614.5,786.553776 C1614.5,786.553776 1678.90711,146 1821.1337,146 Z" id="Rectangle-101" fill="#C8EBD0" sketch:type="MSShapeGroup"></path>
                <path d="M528.777349,292.554688 C672.000006,382 669.812506,379.085938 675.000006,313 C680.187506,246.914062 747.424094,119 788.866299,119 C944.514797,119 1015,803.553776 1015,803.553776 L316.769537,803.553772 C316.769537,803.553772 366.71801,191.345503 528.777349,292.554688 Z" id="Rectangle-104" fill="#C8EBD0" sketch:type="MSShapeGroup"></path>
                <path d="M1060.64766,292.678972 C1152.74163,262.301609 1192.17577,467.972658 1216.86718,423.613286 C1241.55858,379.253914 1251.23159,124.716914 1366.83207,207.702728 C1482.43255,290.688542 1655.14286,818.859198 1655.14286,818.859198 L938.857136,826 C938.857136,826 948.67891,329.612062 1060.64766,292.678972 Z" id="Rectangle-106" fill="#C8EBD0" sketch:type="MSShapeGroup"></path>
                <path d="M1075.8453,286.332134 C1129.02089,286.332134 1165.77656,366.710216 1165.77656,366.710216 C1165.77656,366.710216 1128.51238,383.656597 1106.71941,361.496525 C1084.92643,339.336452 1059.68416,321.908833 1046.9655,340.074566 C1015.05144,385.656597 990.660957,404.20841 990.660957,404.20841 C990.660957,404.20841 1022.6697,286.332134 1075.8453,286.332134 Z" id="Rectangle-105" fill="#F3FFF7" sketch:type="MSShapeGroup"></path>
                <path d="M1323.4609,188.772719 C1376.6365,188.772719 1404.32735,245.51515 1404.32735,245.51515 C1404.32735,245.51515 1385.08516,256.909437 1385.08516,295.460219 C1385.08516,334.011 1333.06664,284.949356 1311.72578,271.585219 C1283.78047,254.085219 1246.27656,308.648995 1246.27656,308.648995 C1246.27656,308.648995 1270.28531,188.772719 1323.4609,188.772719 Z" id="Rectangle-107" fill="#F3FFF7" sketch:type="MSShapeGroup"></path>
                <path d="M783.771929,116 C847.22731,116 882.768691,211.866781 882.768691,211.866781 C882.768691,211.866781 846.048371,153.949219 815.410149,177.003906 C784.771928,200.058594 794.071397,187.429688 756.000001,201 C717.928605,214.570312 692.000001,249 692.000001,249 C692.000001,249 720.316548,116 783.771929,116 Z" id="Rectangle-103" fill="#F3FFF7" sketch:type="MSShapeGroup"></path>
                <path d="M1819.1337,146 C1877.11719,146 1909.11115,236.640625 1909.11115,236.640625 C1909.11115,236.640625 1874.79553,224.513171 1846.9549,220.828125 C1824.9606,217.916911 1826.1177,234.383174 1812.90803,232.207031 C1810.49768,231.809954 1788.75921,207.656828 1786.28693,208.598633 C1753.11506,221.235352 1719.7049,271.197266 1719.7049,271.197266 C1719.7049,271.197266 1761.15022,146 1819.1337,146 Z" id="Rectangle-102" fill="#F3FFF7" sketch:type="MSShapeGroup"></path>
                <path d="M490.128143,279.198449 C543.30374,279.198449 614.171877,345.964845 614.171877,345.964845 C614.171877,345.964845 581.096675,336.658051 559.796877,338.136586 C538.49708,339.615121 528.620705,373.103864 518.953127,363.273438 C497.160151,341.113366 473.967011,314.775148 461.248351,332.940881 C429.334286,378.522912 404.943804,397.074726 404.943804,397.074726 C404.943804,397.074726 436.952545,279.198449 490.128143,279.198449 Z" id="Rectangle-108" fill="#F3FFF7" sketch:type="MSShapeGroup"></path>
            </g>
        </g>
    </g>
</svg>