<?xml version="1.0" encoding="UTF-8" standalone="no"?>
<svg width="1440px" height="1024px" viewBox="0 0 1440 1024" version="1.1" xmlns="http://www.w3.org/2000/svg" xmlns:xlink="http://www.w3.org/1999/xlink" xmlns:sketch="http://www.bohemiancoding.com/sketch/ns">
    <!-- Generator: Sketch 3.2.2 (9983) - http://www.bohemiancoding.com/sketch -->
    <title>background-mountains</title>
    <desc>Created with Sketch.</desc>
    <defs>
        <rect id="path-1" x="0" y="0" width="2105" height="1038"></rect>
    </defs>
    <g id="The-view" stroke="none" stroke-width="1" fill="none" fill-rule="evenodd" sketch:type="MSPage">
        <g id="DAY" sketch:type="MSArtboardGroup" transform="translate(0.000000, -171.000000)">
            <g id="background-mountains" sketch:type="MSLayerGroup" transform="translate(-307.000000, 157.000000)">
                <mask id="mask-2" sketch:name="Mask" fill="white">
                    <use xlink:href="#path-1"></use>
                </mask>
                <use id="Mask" sketch:type="MSShapeGroup" xlink:href="#path-1"></use>
                <g mask="url(#mask-2)" sketch:type="MSShapeGroup">
                    <g transform="translate(-57.000000, 14.000000)">
                        <path d="M1084,580 L1213,469 L1367.79687,251.535156 L1434.77734,135.105469 L1489.10156,92.59375 L1562.28906,0.76953125 L1662.87109,62.4570312 L1724.95702,153.125 L1828.84765,217.878906 L1891.86327,289.039062 L2044.83984,522.609375 L1866,640 L1586,677 L1282,662 L1084,580 Z" id="Rectangle-31" opacity="0.1" fill="#4BC991"></path>
                        <path d="M1693.76952,107.226563 L1645.4414,99.78125 L1615.33984,88.1757812 L1583.42577,118.796875 L1539.16797,123.953125 L1479.08594,146.226562 L1434.77734,135.105469 L1489.10156,92.59375 L1562.28906,0.76953125 L1662.87109,62.4570312 L1693.76952,107.226563 Z" id="Rectangle-33" opacity="0.48594916" fill="#FFFFFF"></path>
                        <path d="M585.205078,518.451953 L799.001953,419.600391 L865.982422,303.170703 L920.30664,260.658984 L993.49414,168.834766 L1094.07617,230.522266 L1156.16211,321.190234 L1260.05273,385.944141 L1323.06836,457.104297 L1476.04492,690.674609 L985.482422,779.565234 L748.205078,709.584766 L585.205078,518.451953 Z" id="Rectangle-32" opacity="0.1" fill="#4BC991"></path>
                        <path d="M1107.64843,250.658984 L1094.07617,269.812503 L1053.28906,250.658984 L1014.58203,265.398441 L986.445313,245.640628 L962.222656,260.316409 L929.34375,250.658984 L945.317239,229.2796 L993.49414,168.834766 L1094.07617,230.522266 L1107.64843,250.658984 Z" id="Rectangle-34" opacity="0.48594916" fill="#FFFFFF"></path>
                        <path d="M0.2050778,396.451953 L214.001953,297.600391 L280.982422,181.170703 L335.30664,138.658984 L408.49414,46.8347656 L509.076172,108.522266 L571.162109,199.190234 L675.052734,263.944141 L738.068359,335.104297 L891.044922,568.674609 L400.482422,657.565234 L163.205078,587.584766 L0.2050778,396.451953 Z" id="Rectangle-36" opacity="0.1" fill="#4BC991"></path>
                        <path d="M522.648431,128.658984 L509.076165,147.812503 L468.289062,128.658984 L429.582032,143.398441 L401.445313,123.640628 L377.222656,138.316409 L344.34375,128.658984 L360.317239,107.2796 L408.49414,46.8347656 L509.076172,108.522266 L522.648431,128.658984 Z" id="Rectangle-35" opacity="0.48594916" fill="#FFFFFF"></path>
                        <path d="M1641.1337,261.626953 C1767.53929,261.626953 1870,1029 1870,1029 L1417,1029 C1417,1029 1514.72811,261.626953 1641.1337,261.626953 Z" id="Rectangle-101" fill="#C8EBD0"></path>
                        <path d="M438.777349,312.554688 C582.000006,402 579.812506,399.085938 585.000006,333 C590.187506,266.914062 657.424094,139 698.866299,139 C854.514797,139 936.000006,1028 936.000006,1028 L237.769543,1028 C237.769543,1028 276.71801,211.345503 438.777349,312.554688 Z" id="Rectangle-104" fill="#C8EBD0"></path>
                        <path d="M970.647656,312.678972 C1062.74163,282.301609 1102.17577,487.972658 1126.86718,443.613286 C1151.55858,399.253914 1161.23159,144.716914 1276.83207,227.702728 C1392.43255,310.688542 1553,1029.1408 1553,1029.1408 L836.714292,1029.1408 C836.714292,1029.1408 858.67891,349.612062 970.647656,312.678972 Z" id="Rectangle-106" fill="#C8EBD0"></path>
                        <path d="M985.845296,306.332134 C1039.02089,306.332134 1075.77656,386.710216 1075.77656,386.710216 C1075.77656,386.710216 1038.51238,403.656597 1016.71941,381.496525 C994.92643,359.336452 969.684164,341.908833 956.965504,360.074566 C925.051439,405.656597 900.660957,424.20841 900.660957,424.20841 C900.660957,424.20841 932.669698,306.332134 985.845296,306.332134 Z" id="Rectangle-105" fill="#F3FFF7"></path>
                        <path d="M1233.4609,208.772719 C1286.6365,208.772719 1311.32735,268.51515 1311.32735,268.51515 C1311.32735,268.51515 1295.08516,276.909437 1295.08516,315.460219 C1295.08516,354.011 1243.06664,304.949356 1221.72578,291.585219 C1193.78047,274.085219 1156.27656,328.648995 1156.27656,328.648995 C1156.27656,328.648995 1180.28531,208.772719 1233.4609,208.772719 Z" id="Rectangle-107" fill="#F3FFF7"></path>
                        <path d="M693.771929,136 C757.22731,136 784.000001,234 784.000001,234 C784.000001,234 756.048371,173.949219 725.410149,197.003906 C694.771928,220.058594 704.071397,207.429688 666.000001,221 C627.928605,234.570312 602.000001,269 602.000001,269 C602.000001,269 630.316548,136 693.771929,136 Z" id="Rectangle-103" fill="#F3FFF7"></path>
                        <path d="M1639.35618,261.626953 C1690.8897,261.626953 1714,341 1714,341 C1714,341 1688.8263,331.406478 1664.0826,328.131349 C1644.5349,325.543973 1645.56329,340.178561 1633.82303,338.244489 C1631.68081,337.891582 1612.36048,316.4252 1610.16322,317.262241 C1580.68131,328.493276 1550.98764,372.897528 1550.98764,372.897528 C1550.98764,372.897528 1587.82266,261.626953 1639.35618,261.626953 Z" id="Rectangle-102" fill="#F3FFF7"></path>
                        <path d="M400.128143,299.198449 C453.30374,299.198449 524.171877,365.964845 524.171877,365.964845 C524.171877,365.964845 491.096675,356.658051 469.796877,358.136586 C448.49708,359.615121 438.620705,393.103864 428.953127,383.273438 C407.160151,361.113366 383.967011,334.775148 371.248351,352.940881 C339.334286,398.522912 314.943804,417.074726 314.943804,417.074726 C314.943804,417.074726 346.952545,299.198449 400.128143,299.198449 Z" id="Rectangle-108" fill="#F3FFF7"></path>
                    </g>
                </g>
            </g>
        </g>
    </g>
</svg>