<?xml version="1.0" encoding="UTF-8" standalone="no"?>
<svg width="1440px" height="1028px" viewBox="0 0 1440 1028" version="1.1" xmlns="http://www.w3.org/2000/svg" xmlns:xlink="http://www.w3.org/1999/xlink" xmlns:sketch="http://www.bohemiancoding.com/sketch/ns">
    <!-- Generator: Sketch 3.2.2 (9983) - http://www.bohemiancoding.com/sketch -->
    <title>background-mountains 2</title>
    <desc>Created with Sketch.</desc>
    <defs>
        <rect id="path-1" x="0" y="0" width="2050" height="1038"></rect>
    </defs>
    <g id="The-view" stroke="none" stroke-width="1" fill="none" fill-rule="evenodd" sketch:type="MSPage">
        <g id="DAY" sketch:type="MSArtboardGroup" transform="translate(0.000000, -198.000000)">
            <g id="background-mountains-2" sketch:type="MSLayerGroup" transform="translate(-305.000000, 188.000000)">
                <mask id="mask-2" sketch:name="Mask" fill="white">
                    <use xlink:href="#path-1"></use>
                </mask>
                <use id="Mask" sketch:type="MSShapeGroup" xlink:href="#path-1"></use>
                <g id="background-mountains" mask="url(#mask-2)" sketch:type="MSShapeGroup">
                    <g transform="translate(5.000000, 10.000000)">
                        <path d="M1084,578.873786 L1213,468.08932 L1367.79687,251.046738 L1434.77734,134.843128 L1489.10156,92.4139563 L1562.28906,0.768037015 L1662.87109,62.3357555 L1724.95702,152.82767 L1828.84765,217.45584 L1891.86327,288.477822 L2044.83984,521.5946 L1866,638.757282 L1586,675.685437 L1282,660.714563 L1084,578.873786 Z" id="Rectangle-31" opacity="0.1" fill="#4BC991"></path>
                        <path d="M1693.76952,107.018356 L1645.4414,99.5875 L1615.33984,88.0045661 L1583.42577,118.566201 L1539.16797,123.712439 L1479.08594,145.942627 L1434.77734,134.843128 L1489.10156,92.4139563 L1562.28906,0.768037015 L1662.87109,62.3357555 L1693.76952,107.018356 Z" id="Rectangle-33" opacity="0.48594916" fill="#FFFFFF"></path>
                        <path d="M585.205078,517.44525 L799.001953,418.785633 L865.982422,302.582022 L920.30664,260.15285 L993.49414,168.506931 L1094.07617,230.07465 L1156.16211,320.566564 L1260.05273,385.194735 L1323.06836,456.216716 L1476.04492,689.333494 L985.482422,778.051515 L748.205078,708.206931 L585.205078,517.44525 Z" id="Rectangle-32" opacity="0.1" fill="#4BC991"></path>
                        <path d="M1107.64843,250.172268 L1094.07617,269.288595 L1053.28906,250.172268 L1014.58203,264.883104 L986.445313,245.163656 L962.222656,259.810941 L929.34375,250.172268 L945.317239,228.834397 L993.49414,168.506931 L1094.07617,230.07465 L1107.64843,250.172268 Z" id="Rectangle-34" opacity="0.48594916" fill="#FFFFFF"></path>
                        <path d="M0.2050778,395.682144 L214.001953,297.022526 L280.982422,180.818915 L335.30664,138.389744 L408.49414,46.7438243 L509.076172,108.311543 L571.162109,198.803457 L675.052734,263.431628 L738.068359,334.453609 L891.044922,567.570387 L400.482422,656.288409 L163.205078,586.443824 L0.2050778,395.682144 Z" id="Rectangle-36" opacity="0.1" fill="#4BC991"></path>
                        <path d="M522.648431,128.409161 L509.076165,147.525488 L468.289062,128.409161 L429.582032,143.119997 L401.445313,123.400549 L377.222656,138.047834 L344.34375,128.409161 L360.317239,107.071291 L408.49414,46.7438243 L509.076172,108.311543 L522.648431,128.409161 Z" id="Rectangle-35" opacity="0.48594916" fill="#FFFFFF"></path>
                        <path d="M1641.1337,261.11894 C1767.53929,261.11894 1870,1027.00194 1870,1027.00194 L1417,1027.00194 C1417,1027.00194 1514.72811,261.11894 1641.1337,261.11894 Z" id="Rectangle-101" fill="#C8EBD0"></path>
                        <path d="M438.777349,311.947785 C582.000006,401.219417 579.812506,398.311013 585.000006,332.353398 C590.187506,266.395783 657.424094,138.730097 698.866299,138.730097 C854.514797,138.730097 936.000006,1026.00388 936.000006,1026.00388 L237.769543,1026.00388 C237.769543,1026.00388 276.71801,210.935123 438.777349,311.947785 Z" id="Rectangle-104" fill="#C8EBD0"></path>
                        <path d="M970.647656,312.071829 C1062.74163,281.753451 1102.17577,487.025138 1126.86718,442.751901 C1151.55858,398.478664 1161.23159,144.43591 1276.83207,227.260587 C1392.43255,310.085264 1553,1027.14247 1553,1027.14247 L836.714292,1027.14247 C836.714292,1027.14247 858.67891,348.933204 970.647656,312.071829 Z" id="Rectangle-106" fill="#C8EBD0"></path>
                        <path d="M985.845296,305.737314 C1039.02089,305.737314 1075.77656,385.959323 1075.77656,385.959323 C1075.77656,385.959323 1038.51238,402.872798 1016.71941,380.755755 C994.92643,358.638712 969.684164,341.244932 956.965504,359.375392 C925.051439,404.868914 906.660957,423.384705 906.660957,423.384705 C906.660957,423.384705 932.669698,305.737314 985.845296,305.737314 Z" id="Rectangle-105" fill="#F3FFF7"></path>
                        <path d="M1233.4609,208.367335 C1286.6365,208.367335 1311.32735,267.993762 1311.32735,267.993762 C1311.32735,267.993762 1295.08516,276.371749 1295.08516,314.847675 C1295.08516,353.3236 1243.06664,304.357221 1221.72578,291.019034 C1193.78047,273.553014 1156.27656,328.010842 1156.27656,328.010842 C1156.27656,328.010842 1180.28531,208.367335 1233.4609,208.367335 Z" id="Rectangle-107" fill="#F3FFF7"></path>
                        <path d="M693.771929,135.735922 C757.22731,135.735922 784.000001,233.545631 784.000001,233.545631 C784.000001,233.545631 756.048371,173.611453 725.410149,196.621374 C694.771928,219.631296 704.071397,207.026911 666.000001,220.570874 C627.928605,234.114836 602.000001,268.47767 602.000001,268.47767 C602.000001,268.47767 630.316548,135.735922 693.771929,135.735922 Z" id="Rectangle-103" fill="#F3FFF7"></path>
                        <path d="M1639.35618,261.11894 C1690.8897,261.11894 1714,340.337864 1714,340.337864 C1714,340.337864 1688.8263,330.76297 1664.0826,327.494201 C1644.5349,324.911848 1645.56329,339.51802 1633.82303,337.587703 C1631.68081,337.235481 1612.36048,315.810782 1610.16322,316.646197 C1580.68131,327.855425 1556,372.275728 1556,372.275728 C1556,372.275728 1587.82266,261.11894 1639.35618,261.11894 Z" id="Rectangle-102" fill="#F3FFF7"></path>
                        <path d="M400.128143,298.617481 C453.30374,298.617481 524.171877,365.254233 524.171877,365.254233 C524.171877,365.254233 491.096675,355.965511 469.796877,357.441175 C448.49708,358.916839 438.620705,392.340556 428.953127,382.529218 C407.160151,360.412175 383.967011,334.125099 371.248351,352.255559 C339.334286,397.749081 314.943804,416.264872 314.943804,416.264872 C314.943804,416.264872 346.952545,298.617481 400.128143,298.617481 Z" id="Rectangle-108" fill="#F3FFF7"></path>
                    </g>
                </g>
            </g>
        </g>
    </g>
</svg>