<?xml version="1.0" encoding="UTF-8" standalone="no"?>
<svg width="757px" height="130px" viewBox="0 0 757 130" version="1.1" xmlns="http://www.w3.org/2000/svg" xmlns:xlink="http://www.w3.org/1999/xlink" xmlns:sketch="http://www.bohemiancoding.com/sketch/ns">
    <!-- Generator: Sketch 3.2.2 (9983) - http://www.bohemiancoding.com/sketch -->
    <title>Group</title>
    <desc>Created with Sketch.</desc>
    <defs></defs>
    <g id="Teaser" stroke="none" stroke-width="1" fill="none" fill-rule="evenodd" sketch:type="MSPage">
        <g id="Artboard-17" sketch:type="MSArtboardGroup" transform="translate(-160.000000, -489.000000)">
            <g id="Group" sketch:type="MSLayerGroup" transform="translate(160.000000, 489.000000)">
                <g sketch:type="MSShapeGroup">
                    <path d="M338.251721,46.4079374 C355.222819,24.9480536 373.930236,0.857959502 436.611996,0.857959502 C499.293756,0.857959502 528.982812,30.6826896 542.948197,51.085501 C556.913582,71.4883124 561.975513,101.313042 561.975513,101.313042 L311.248476,101.313042 C311.248476,101.313042 321.280623,67.8678213 338.251721,46.4079374 Z" id="Rectangle-50" fill="#EEFAF5"></path>
                    <path d="M623.682471,86.8914048 C643.170041,67.760732 665.204411,56.388235 683.603561,56.388235 C701.63219,56.388235 722.510264,69.828145 739.891852,86.8914048 C757.27344,103.954665 756.747822,128.192925 756.747822,128.192925 L610.459299,128.192925 C610.459299,128.192925 604.1949,106.022078 623.682471,86.8914048 Z" id="Rectangle-49" fill="#FFFFFF"></path>
                    <path d="M699.611992,29.0855006 C773.612,40.0855007 754.612,128.192924 754.612,128.192924 L609.5,128.192925 C609.5,128.192925 625.611984,18.0855006 699.611992,29.0855006 Z" id="Rectangle-50" fill="#EEFAF5"></path>
                    <path d="M253.079673,71.5036186 C275.707258,49.2904378 301.292007,36.0855006 322.655795,36.0855006 C343.589361,36.0855006 367.831499,51.6909711 388.013767,71.5036186 C408.196035,91.316266 407.585725,119.460015 407.585725,119.460015 L237.725864,119.460015 C237.725864,119.460015 230.452089,93.7167994 253.079673,71.5036186 Z" id="Rectangle-49" fill="#EEFAF5"></path>
                    <path d="M184.979179,68.3556202 C196.552105,50.5446011 209.309062,30.5505914 252.052991,30.5505914 C294.796921,30.5505914 315.042474,55.3041661 324.565746,72.2378488 C334.089018,89.1715315 337.540848,113.925105 337.540848,113.925105 L166.565132,113.925105 C166.565132,113.925105 173.406252,86.1666394 184.979179,68.3556202 Z" id="Rectangle-50" fill="#EEFAF5"></path>
                    <path d="M108.165388,75.9341429 C124.040449,60.3498201 141.990196,51.0855006 156.978601,51.0855006 C171.665172,51.0855006 188.672971,62.0339862 202.832446,75.9341429 C216.991921,89.8342996 216.56374,109.57939 216.56374,109.57939 L97.3934631,109.57939 C97.3934631,109.57939 92.2903277,91.5184658 108.165388,75.9341429 Z" id="Rectangle-49" fill="#FFFFFF"></path>
                    <path d="M109.53092,77.6087518 C117.650254,65.1128974 126.600279,51.0855006 156.588564,51.0855006 C186.576849,51.0855006 200.780724,68.4521129 207.462061,80.3324456 C214.143398,92.2127783 216.565132,109.57939 216.565132,109.57939 L96.6119941,109.57939 C96.6119941,109.57939 101.411586,90.1046061 109.53092,77.6087518 Z" id="Rectangle-50" fill="#EEFAF5"></path>
                    <path d="M436.611994,96.7363968 C436.611994,74.6460351 451.731457,47.1591219 471.162005,36.6569465 C471.162005,36.6569465 499.29376,12.0855006 561.975518,12.0855006 C624.657275,12.0855006 652.789024,36.6569465 652.789024,36.6569465 C671.870466,47.747549 687.339031,74.6439376 687.339031,96.7363968 L687.339031,112.540583 L436.611994,112.540583 L436.611994,96.7363968 Z" id="Rectangle-51" fill="#EEFAF5"></path>
                    <path d="M452.760993,62.7595719 C485.943176,35.9956749 523.461885,20.0855006 554.790774,20.0855006 C585.488765,20.0855006 621.038606,38.8879949 650.634857,62.7595719 C680.231108,86.6311488 679.33612,120.540583 679.33612,120.540583 L430.245427,120.540583 C430.245427,120.540583 419.578811,89.5234688 452.760993,62.7595719 Z" id="Rectangle-49" fill="#FFFFFF"></path>
                    <g id="Rectangle-51-+-Rectangle-49-+-Rectangle-75" transform="translate(474.565132, 40.493344)" fill="#FFFFFF">
                        <path d="M0.436045435,87.2596912 C0.436045435,78.7670825 6.28186263,68.2563709 13.8371947,64.4102519 C13.8371947,64.4102519 19.6699323,58.2174663 38.9038169,58.2174663 C58.1377015,58.2174663 63.9704378,64.4102519 63.9704378,64.4102519 C71.3716873,68.53704 77.3715854,78.7545462 77.3715854,87.2596912 L77.3715854,88.9595392 L0.436045435,88.9595392 L0.436045435,87.2596912 Z" id="Rectangle-51"></path>
                        <path d="M56.4030306,38.1352247 C74.5498589,14.5936374 95.0682677,0.599010263 112.201558,0.599010263 C128.989821,0.599010263 148.431486,17.1377289 164.617223,38.1352247 C180.80296,59.1327205 180.313505,88.9595392 180.313505,88.9595392 L44.0896114,88.9595392 C44.0896114,88.9595392 38.2562023,61.6768121 56.4030306,38.1352247 Z" id="Rectangle-49"></path>
                        <path d="M151.80724,56.5467709 C158.408395,43.8781083 165.684917,29.6567231 190.065898,29.6567231 C214.446879,29.6567231 225.994869,47.2635026 231.426909,59.3081314 C236.858948,71.3527602 238.82786,88.9595392 238.82786,88.9595392 L141.303936,88.9595392 C141.303936,88.9595392 145.206085,69.2154336 151.80724,56.5467709 Z" id="Rectangle-50"></path>
                    </g>
                    <g id="Rectangle-51-+-Rectangle-49-+-Rectangle-52" transform="translate(603.643133, 72.237848)" fill="#FFFFFF">
                        <path d="M0,55.014656 C0,49.6603173 4.24695771,44.422153 9.49889224,43.4023872 C9.49889224,43.4023872 37.8479529,36.7043917 75.6959013,36.7043917 C113.54385,36.7043917 141.892906,43.4023872 141.892906,43.4023872 C147.138999,44.4613274 151.391797,49.6679188 151.391797,55.014656 L151.391797,56.08636 L0,56.08636 L0,55.014656 Z" id="Rectangle-51"></path>
                        <path d="M14.5814366,24.043132 C34.6172103,9.20085699 57.2714277,0.377658265 76.1881622,0.377658265 C94.7239538,0.377658265 116.189346,10.8048315 134.059895,24.043132 C151.930443,37.2814324 151.390039,56.08636 151.390039,56.08636 L0.986285121,56.08636 C0.986285121,56.08636 -5.45433699,38.8854069 14.5814366,24.043132 Z" id="Rectangle-49"></path>
                        <path d="M16.3048624,35.6510676 C26.5522018,27.6638503 37.8479497,18.6976873 75.6958994,18.6976873 C113.543849,18.6976873 131.470434,29.7982414 139.90289,37.3920238 C148.335347,44.9858062 151.391797,56.08636 151.391797,56.08636 L-1.36415407e-15,56.08636 C-1.36415407e-15,56.08636 6.05752299,43.638285 16.3048624,35.6510676 Z" id="Rectangle-50"></path>
                    </g>
                    <g id="Rectangle-51-+-Rectangle-49-+-Rectangle-74" transform="translate(344.611994, 39.085501)" fill="#FFFFFF">
                        <path d="M0,87.2596912 C0,78.7670825 6.73261414,70.4555335 15.0684279,68.8327792 C15.0684279,68.8327792 59.8587228,58.2174663 119.717438,58.2174663 C179.576154,58.2174663 224.377793,68.8349031 224.377793,68.8349031 C232.693585,70.5180239 239.434868,78.7545462 239.434868,87.2596912 L239.434868,88.9595392 L0,88.9595392 L0,87.2596912 Z" id="Rectangle-51"></path>
                        <path d="M23.0613839,38.1352247 C54.7491167,14.5936374 90.5780695,0.599010263 120.495977,0.599010263 C149.811402,0.599010263 183.76016,17.1377289 212.023464,38.1352247 C240.286768,59.1327205 239.432088,88.9595392 239.432088,88.9595392 L1.55986686,88.9595392 C1.55986686,88.9595392 -8.62634887,61.6768121 23.0613839,38.1352247 Z" id="Rectangle-49"></path>
                        <path d="M25.7870813,56.5467709 C41.9938402,43.8781083 59.8587176,29.6567231 119.717435,29.6567231 C179.576153,29.6567231 207.928083,47.2635026 221.264499,59.3081314 C234.600915,71.3527602 239.434868,88.9595392 239.434868,88.9595392 L-2.15748842e-15,88.9595392 C-2.15748842e-15,88.9595392 9.58032234,69.2154336 25.7870813,56.5467709 Z" id="Rectangle-50"></path>
                    </g>
                    <g id="Rectangle-51-+-Rectangle-49-+-Rectangle-76" transform="translate(77.611994, 77.085501)" fill="#FFFFFF">
                        <path d="M11.0330557,22.2057219 C26.1931399,8.49771452 43.3344717,0.348797088 57.6478341,0.348797088 C71.6729557,0.348797088 87.9147623,9.97911105 101.436527,22.2057219 C114.958292,34.4323328 114.549395,51.8001612 114.549395,51.8001612 L0.746273429,51.8001612 C0.746273429,51.8001612 -4.12702846,35.9137293 11.0330557,22.2057219 Z" id="Rectangle-49"></path>
                        <path d="M12.3370872,32.9265628 C20.0907448,25.5497399 28.6376815,17.2687837 57.275363,17.2687837 C85.9130445,17.2687837 99.4772097,27.5210177 105.857634,34.5344726 C112.238059,41.5479274 114.550725,51.8001612 114.550725,51.8001612 L-1.03218827e-15,51.8001612 C-1.03218827e-15,51.8001612 4.58342963,40.3033857 12.3370872,32.9265628 Z" id="Rectangle-50"></path>
                    </g>
                    <g id="Rectangle-51-+-Rectangle-49-+-Rectangle-77" transform="translate(0.111994, 58.680895)" fill="#FFFFFF">
                        <path d="M64.7753601,0.404605492 C120.05072,0.404605492 129.549221,70.5832036 129.549221,70.5832036 L0.843995215,70.5832036 C0.843995215,70.5832036 9.50000012,0.404605492 64.7753601,0.404605492 Z" id="Rectangle-49"></path>
                    </g>
                    <g id="Rectangle-51-+-Rectangle-49-+-Rectangle-79" transform="translate(186.611994, 55.085501)" fill="#FFFFFF">
                        <path d="M15.7260129,31.4860603 C37.3345034,11.7389481 61.7669735,1.14162771e-15 82.1685853,0 C102.159352,-1.11863775e-15 125.30968,13.8729784 144.582985,31.4860603 C163.85629,49.0991423 163.273467,74.1184211 163.273467,74.1184211 L1.063704,74.1184211 C1.063704,74.1184211 -5.88247756,51.2331726 15.7260129,31.4860603 Z" id="Rectangle-49"></path>
                        <path d="M17.5847197,33.6079805 C28.6364286,17.7743096 40.8188411,2.2692222e-15 81.6376821,0 C122.456523,-2.2692222e-15 141.790264,22.005476 150.884629,37.0592108 C159.978995,52.1129456 163.275362,74.1184211 163.275362,74.1184211 L-1.47123394e-15,74.1184211 C-1.47123394e-15,74.1184211 6.53301091,49.4416514 17.5847197,33.6079805 Z" id="Rectangle-50"></path>
                    </g>
                    <g id="Rectangle-51-+-Rectangle-49-+-Rectangle-87" transform="translate(294.611994, 51.085501)" fill="#FFFFFF">
                        <path d="M11.5533941,24.8486423 C27.4284545,9.2643195 45.3782017,9.00966916e-16 60.3666073,0 C75.0531784,-8.82823355e-16 92.0609772,10.9484856 106.220452,24.8486423 C120.379927,38.748799 119.951746,58.4938895 119.951746,58.4938895 L0.781468996,58.4938895 C0.781468996,58.4938895 -4.32166639,40.4329651 11.5533941,24.8486423 Z" id="Rectangle-49"></path>
                        <path d="M12.918926,26.5232512 C21.0382597,14.0273968 29.9882849,1.79085889e-15 59.9765699,0 C89.9648548,-1.79085889e-15 104.16873,17.3666123 110.850067,29.246945 C117.531403,41.1272776 119.953138,58.4938895 119.953138,58.4938895 L-1.08086808e-15,58.4938895 C-1.08086808e-15,58.4938895 4.79959223,39.0191055 12.918926,26.5232512 Z" id="Rectangle-50"></path>
                    </g>
                </g>
            </g>
        </g>
    </g>
</svg>