<?xml version="1.0" encoding="UTF-8" standalone="no"?>
<svg width="1440px" height="77px" viewBox="0 0 1440 77" version="1.1" xmlns="http://www.w3.org/2000/svg" xmlns:xlink="http://www.w3.org/1999/xlink" xmlns:sketch="http://www.bohemiancoding.com/sketch/ns">
    <!-- Generator: Sketch 3.2.2 (9983) - http://www.bohemiancoding.com/sketch -->
    <title>Group</title>
    <desc>Created with Sketch.</desc>
    <defs>
        <rect id="path-1" x="0" y="0" width="1603" height="126"></rect>
    </defs>
    <g id="The-view" stroke="none" stroke-width="1" fill="none" fill-rule="evenodd" sketch:type="MSPage">
        <g id="DAY" sketch:type="MSArtboardGroup" transform="translate(0.000000, -4897.000000)">
            <g id="Group" sketch:type="MSLayerGroup" transform="translate(-61.000000, 4897.000000)">
                <g id="New-Mask-Group">
                    <mask id="mask-2" sketch:name="Mask" fill="white">
                        <use xlink:href="#path-1"></use>
                    </mask>
                    <use id="Mask" sketch:type="MSShapeGroup" xlink:href="#path-1"></use>
                    <g id="Rectangle-54-+-Rectangle-52-+-Rectangle-93" mask="url(#mask-2)" fill="#FFFFFF" sketch:type="MSShapeGroup">
                        <g transform="translate(80.500000, 7.500000) rotate(-180.000000) translate(-80.500000, -7.500000) translate(-42.000000, -39.000000)" id="Rectangle-52">
                            <path d="M57.6768573,39.5070965 C76.4696844,14.7294311 97.7185165,1.432456e-15 115.461725,0 C132.847624,-1.40360938e-15 152.981382,17.4071031 169.743306,39.5070965 C186.50523,61.6070899 185.998351,93 185.998351,93 L44.9250996,93 C44.9250996,93 38.8840303,64.2847619 57.6768573,39.5070965 Z"></path>
                        </g>
                    </g>
                    <g id="Rectangle-54-+-Rectangle-52-+-Rectangle-94" mask="url(#mask-2)" fill="#FFFFFF" sketch:type="MSShapeGroup">
                        <g transform="translate(177.500000, 7.500000) rotate(-180.000000) translate(-177.500000, -7.500000) translate(55.000000, -39.000000)">
                            <path d="M57.6768573,39.5070965 C76.4696844,14.7294311 97.7185165,1.432456e-15 115.461725,0 C132.847624,-1.40360938e-15 152.981382,17.4071031 169.743306,39.5070965 C186.50523,61.6070899 185.998351,93 185.998351,93 L44.9250996,93 C44.9250996,93 38.8840303,64.2847619 57.6768573,39.5070965 Z" id="Rectangle-52"></path>
                            <path d="M157.554578,55.75274 C164.187958,43.148767 171.5,29 196.000001,29 C220.500001,29 232.104364,46.5168746 237.562921,58.5000002 C243.021477,70.4831259 245,88 245,88 L147,88 C147,88 150.921198,68.3567131 157.554578,55.75274 Z" id="Rectangle-53"></path>
                        </g>
                    </g>
                    <g id="Rectangle-54-+-Rectangle-52-+-Rectangle-96" mask="url(#mask-2)" fill="#FFFFFF" sketch:type="MSShapeGroup">
                        <g transform="translate(334.500000, 21.500000) rotate(-180.000000) translate(-334.500000, -21.500000) translate(212.000000, -25.000000)">
                            <path d="M0,91.3964779 C0,83.3851231 5.60956811,73.6377849 12.8364162,70.1621579 C12.8364162,70.1621579 19.5000019,64 39.0000015,64 C58.5000011,64 65.1854142,70.1715915 65.1854142,70.1715915 C72.2627145,73.8824178 78,83.3732972 78,91.3964779 L78,93 L0,93 L0,91.3964779 Z" id="Rectangle-54"></path>
                            <path d="M57.6768573,39.5070965 C76.4696844,14.7294311 97.7185165,1.432456e-15 115.461725,0 C132.847624,-1.40360938e-15 152.981382,17.4071031 169.743306,39.5070965 C186.50523,61.6070899 185.998351,93 185.998351,93 L44.9250996,93 C44.9250996,93 38.8840303,64.2847619 57.6768573,39.5070965 Z" id="Rectangle-52"></path>
                            <path d="M157.554578,55.75274 C164.187958,43.148767 171.5,29 196.000001,29 C220.500001,29 232.104364,46.5168746 237.562921,58.5000002 C243.021477,70.4831259 245,88 245,88 L147,88 C147,88 150.921198,68.3567131 157.554578,55.75274 Z" id="Rectangle-53"></path>
                        </g>
                    </g>
                    <g id="Rectangle-54-+-Rectangle-52-+-Rectangle-95" mask="url(#mask-2)" fill="#FFFFFF" sketch:type="MSShapeGroup">
                        <g transform="translate(456.500000, 15.500000) rotate(-180.000000) translate(-456.500000, -15.500000) translate(334.000000, -31.000000)">
                            <path d="M57.6768573,39.5070965 C76.4696844,14.7294311 97.7185165,1.432456e-15 115.461725,0 C132.847624,-1.40360938e-15 152.981382,17.4071031 169.743306,39.5070965 C186.50523,61.6070899 185.998351,93 185.998351,93 L44.9250996,93 C44.9250996,93 38.8840303,64.2847619 57.6768573,39.5070965 Z" id="Rectangle-52"></path>
                            <path d="M157.554578,55.75274 C164.187958,43.148767 171.5,29 196.000001,29 C220.500001,29 232.104364,46.5168746 237.562921,58.5000002 C243.021477,70.4831259 245,88 245,88 L147,88 C147,88 150.921198,68.3567131 157.554578,55.75274 Z" id="Rectangle-53"></path>
                        </g>
                    </g>
                    <g id="Rectangle-54-+-Rectangle-52-+-Rectangle-100" mask="url(#mask-2)" fill="#FFFFFF" sketch:type="MSShapeGroup">
                        <g transform="translate(688.500000, 11.500000) rotate(-180.000000) translate(-688.500000, -11.500000) translate(566.000000, -35.000000)">
                            <path d="M57.6768573,39.5070965 C76.4696844,14.7294311 97.7185165,1.432456e-15 115.461725,0 C132.847624,-1.40360938e-15 152.981382,17.4071031 169.743306,39.5070965 C186.50523,61.6070899 185.998351,93 185.998351,93 L44.9250996,93 C44.9250996,93 38.8840303,64.2847619 57.6768573,39.5070965 Z" id="Rectangle-52"></path>
                            <path d="M157.554578,55.75274 C164.187958,43.148767 171.5,29 196.000001,29 C220.500001,29 232.104364,46.5168746 237.562921,58.5000002 C243.021477,70.4831259 245,88 245,88 L147,88 C147,88 150.921198,68.3567131 157.554578,55.75274 Z" id="Rectangle-53"></path>
                        </g>
                    </g>
                    <g id="Rectangle-54-+-Rectangle-52-+-Rectangle-97" mask="url(#mask-2)" fill="#FFFFFF" sketch:type="MSShapeGroup">
                        <g transform="translate(875.500000, 29.500000) rotate(-180.000000) translate(-875.500000, -29.500000) translate(753.000000, -17.000000)">
                            <path d="M0,91.3964779 C0,83.3851231 5.60956811,73.6377849 12.8364162,70.1621579 C12.8364162,70.1621579 19.5000019,64 39.0000015,64 C58.5000011,64 65.1854142,70.1715915 65.1854142,70.1715915 C72.2627145,73.8824178 78,83.3732972 78,91.3964779 L78,93 L0,93 L0,91.3964779 Z" id="Rectangle-54"></path>
                            <path d="M57.6768573,39.5070965 C76.4696844,14.7294311 97.7185165,1.432456e-15 115.461725,0 C132.847624,-1.40360938e-15 152.981382,17.4071031 169.743306,39.5070965 C186.50523,61.6070899 185.998351,93 185.998351,93 L44.9250996,93 C44.9250996,93 38.8840303,64.2847619 57.6768573,39.5070965 Z" id="Rectangle-52"></path>
                            <path d="M157.554578,55.75274 C164.187958,43.148767 171.5,29 196.000001,29 C220.500001,29 232.104364,46.5168746 237.562921,58.5000002 C243.021477,70.4831259 245,88 245,88 L147,88 C147,88 150.921198,68.3567131 157.554578,55.75274 Z" id="Rectangle-53"></path>
                        </g>
                    </g>
                    <g id="Rectangle-54-+-Rectangle-52-+-Rectangle-98" mask="url(#mask-2)" fill="#FFFFFF" sketch:type="MSShapeGroup">
                        <g transform="translate(967.500000, 1.500000) rotate(-180.000000) translate(-967.500000, -1.500000) translate(845.000000, -45.000000)">
                            <path d="M57.6768573,39.5070965 C76.4696844,14.7294311 97.7185165,1.432456e-15 115.461725,0 C132.847624,-1.40360938e-15 152.981382,17.4071031 169.743306,39.5070965 C186.50523,61.6070899 185.998351,93 185.998351,93 L44.9250996,93 C44.9250996,93 38.8840303,64.2847619 57.6768573,39.5070965 Z" id="Rectangle-52"></path>
                            <path d="M157.554578,55.75274 C164.187958,43.148767 171.5,29 196.000001,29 C220.500001,29 232.104364,46.5168746 237.562921,58.5000002 C243.021477,70.4831259 245,88 245,88 L147,88 C147,88 150.921198,68.3567131 157.554578,55.75274 Z" id="Rectangle-53"></path>
                        </g>
                    </g>
                    <g id="Rectangle-54-+-Rectangle-52-+-Rectangle-99" mask="url(#mask-2)" fill="#FFFFFF" sketch:type="MSShapeGroup">
                        <g transform="translate(1064.500000, 19.500000) rotate(-180.000000) translate(-1064.500000, -19.500000) translate(942.000000, -27.000000)">
                            <path d="M0,91.3964779 C0,83.3851231 5.60956811,73.6377849 12.8364162,70.1621579 C12.8364162,70.1621579 19.5000019,64 39.0000015,64 C58.5000011,64 65.1854142,70.1715915 65.1854142,70.1715915 C72.2627145,73.8824178 78,83.3732972 78,91.3964779 L78,93 L0,93 L0,91.3964779 Z" id="Rectangle-54"></path>
                            <path d="M57.6768573,39.5070965 C76.4696844,14.7294311 97.7185165,1.432456e-15 115.461725,0 C132.847624,-1.40360938e-15 152.981382,17.4071031 169.743306,39.5070965 C186.50523,61.6070899 185.998351,93 185.998351,93 L44.9250996,93 C44.9250996,93 38.8840303,64.2847619 57.6768573,39.5070965 Z" id="Rectangle-52"></path>
                            <path d="M157.554578,55.75274 C164.187958,43.148767 171.5,29 196.000001,29 C220.500001,29 232.104364,46.5168746 237.562921,58.5000002 C243.021477,70.4831259 245,88 245,88 L147,88 C147,88 150.921198,68.3567131 157.554578,55.75274 Z" id="Rectangle-53"></path>
                        </g>
                    </g>
                    <g id="Rectangle-54-+-Rectangle-52-+-Rectangle-104" mask="url(#mask-2)" fill="#FFFFFF" sketch:type="MSShapeGroup">
                        <g transform="translate(1266.000000, 3.500000) rotate(-180.000000) translate(-1266.000000, -3.500000) translate(1143.500000, -43.000000)">
                            <path d="M57.6768573,39.5070965 C76.4696844,14.7294311 97.7185165,1.432456e-15 115.461725,0 C132.847624,-1.40360938e-15 152.981382,17.4071031 169.743306,39.5070965 C186.50523,61.6070899 185.998351,93 185.998351,93 L44.9250996,93 C44.9250996,93 38.8840303,64.2847619 57.6768573,39.5070965 Z" id="Rectangle-52"></path>
                            <path d="M157.554578,55.75274 C164.187958,43.148767 171.5,29 196.000001,29 C220.500001,29 232.104364,46.5168746 237.562921,58.5000002 C243.021477,70.4831259 245,88 245,88 L147,88 C147,88 150.921198,68.3567131 157.554578,55.75274 Z" id="Rectangle-53"></path>
                        </g>
                    </g>
                    <g id="Rectangle-54-+-Rectangle-52-+-Rectangle-101" mask="url(#mask-2)" fill="#FFFFFF" sketch:type="MSShapeGroup">
                        <g transform="translate(1363.000000, 21.500000) rotate(-180.000000) translate(-1363.000000, -21.500000) translate(1240.500000, -25.000000)">
                            <path d="M0,91.3964779 C0,83.3851231 5.60956811,73.6377849 12.8364162,70.1621579 C12.8364162,70.1621579 19.5000019,64 39.0000015,64 C58.5000011,64 65.1854142,70.1715915 65.1854142,70.1715915 C72.2627145,73.8824178 78,83.3732972 78,91.3964779 L78,93 L0,93 L0,91.3964779 Z" id="Rectangle-54"></path>
                            <path d="M57.6768573,39.5070965 C76.4696844,14.7294311 97.7185165,1.432456e-15 115.461725,0 C132.847624,-1.40360938e-15 152.981382,17.4071031 169.743306,39.5070965 C186.50523,61.6070899 185.998351,93 185.998351,93 L44.9250996,93 C44.9250996,93 38.8840303,64.2847619 57.6768573,39.5070965 Z" id="Rectangle-52"></path>
                            <path d="M157.554578,55.75274 C164.187958,43.148767 171.5,29 196.000001,29 C220.500001,29 232.104364,46.5168746 237.562921,58.5000002 C243.021477,70.4831259 245,88 245,88 L147,88 C147,88 150.921198,68.3567131 157.554578,55.75274 Z" id="Rectangle-53"></path>
                        </g>
                    </g>
                    <g id="Rectangle-54-+-Rectangle-52-+-Rectangle-102" mask="url(#mask-2)" fill="#FFFFFF" sketch:type="MSShapeGroup">
                        <g transform="translate(1525.000000, 44.000000) rotate(-180.000000) translate(-1525.000000, -44.000000) translate(1402.500000, -2.500000)">
                            <path d="M57.6768573,39.5070965 C76.4696844,14.7294311 97.7185165,1.432456e-15 115.461725,0 C132.847624,-1.40360938e-15 152.981382,17.4071031 169.743306,39.5070965 C186.50523,61.6070899 185.998351,93 185.998351,93 L44.9250996,93 C44.9250996,93 38.8840303,64.2847619 57.6768573,39.5070965 Z" id="Rectangle-52"></path>
                            <path d="M157.554578,55.75274 C164.187958,43.148767 171.5,29 196.000001,29 C220.500001,29 232.104364,46.5168746 237.562921,58.5000002 C243.021477,70.4831259 245,88 245,88 L147,88 C147,88 150.921198,68.3567131 157.554578,55.75274 Z" id="Rectangle-53"></path>
                        </g>
                    </g>
                </g>
            </g>
        </g>
    </g>
</svg>