<svg width="1410" height="515" viewBox="0 0 1410 515" xmlns="http://www.w3.org/2000/svg"><title>Stars</title><defs><filter x="-50%" y="-50%" width="200%" height="200%" filterUnits="objectBoundingBox" id="a"><feGaussianBlur stdDeviation="1.114" in="SourceGraphic" result="blur"/></filter><filter x="-50%" y="-50%" width="200%" height="200%" filterUnits="objectBoundingBox" id="b"><feGaussianBlur stdDeviation="1.114" in="SourceGraphic" result="blur"/></filter><filter x="-50%" y="-50%" width="200%" height="200%" filterUnits="objectBoundingBox" id="c"><feGaussianBlur stdDeviation="1.114" in="SourceGraphic" result="blur"/></filter><filter x="-50%" y="-50%" width="200%" height="200%" filterUnits="objectBoundingBox" id="d"><feGaussianBlur stdDeviation="1.114" in="SourceGraphic" result="blur"/></filter></defs><g transform="translate(-487 0)" fill="none" fill-rule="evenodd"><circle fill="#FFFBE4" cx="1631" cy="22" r="3"/><circle fill="#FFFBE4" cx="1811" cy="102" r="3"/><circle fill="#FFFBE4" cx="1858.5" cy="51.5" r=".5"/><circle fill="#FFFBE4" cx="1759.5" cy="32.5" r="1.5"/><circle fill="#FFFBE4" cx="1668.5" cy="141.5" r=".5"/><circle fill="#FFFBE4" cx="1718.5" cy="91.5" r="1.5"/><circle fill="#FFFBE4" cx="1568.5" cy="51.5" r="1.5"/><circle fill="#FFFBE4" cx="1311" cy="142" r="3"/><circle fill="#FFFBE4" cx="1439.5" cy="152.5" r="1.5"/><circle fill="#FFFBE4" cx="1397.5" cy="210.5" r=".5"/><circle fill="#FFFBE4" cx="1248.5" cy="171.5" r="1.5"/><circle fill="#FFFBE4" cx="1429.5" cy="22.5" r="1.5"/><circle fill="#FFFBE4" cx="1388.5" cy="81.5" r="1.5"/><circle fill="#FFFBE4" cx="1267.5" cy="20.5" r=".5"/><circle fill="#FFFBE4" cx="1227.5" cy="60.5" r=".5"/><circle fill="#FFFBE4" cx="1297.5" cy="210.5" r=".5"/><circle fill="#FFFBE4" cx="1587.5" cy="210.5" r=".5"/><circle fill="#FFFBE4" cx="1507.5" cy="80.5" r=".5"/><circle fill="#FFFBE4" cx="1027.5" cy="30.5" r=".5"/><circle fill="#FFFBE4" cx="977.5" cy="80.5" r=".5"/><circle fill="#FFFBE4" cx="667.5" cy="220.5" r=".5"/><circle fill="#FFFBE4" cx="1211" cy="232" r="3"/><circle fill="#FFFBE4" cx="901" cy="182" r="3"/><circle fill="#FFFBE4" cx="1081" cy="262" r="3"/><circle fill="#FFFBE4" cx="1451" cy="322" r="3"/><circle fill="#FFFBE4" cx="1141" cy="272" r="3"/><circle fill="#FFFBE4" cx="1321" cy="352" r="3"/><circle fill="#FFFBE4" cx="1368.5" cy="301.5" r=".5"/><circle fill="#FFFBE4" cx="1269.5" cy="282.5" r="1.5"/><circle fill="#FFFBE4" cx="1178.5" cy="391.5" r=".5"/><circle fill="#FFFBE4" cx="1228.5" cy="341.5" r="1.5"/><circle fill="#FFFBE4" cx="1078.5" cy="301.5" r="1.5"/><circle fill="#FFFBE4" cx="821" cy="392" r="3"/><circle fill="#FFFBE4" cx="949.5" cy="402.5" r="1.5"/><circle fill="#FFFBE4" cx="907.5" cy="460.5" r=".5"/><circle fill="#FFFBE4" cx="758.5" cy="421.5" r="1.5"/><circle fill="#FFFBE4" cx="939.5" cy="272.5" r="1.5"/><circle fill="#FFFBE4" cx="898.5" cy="331.5" r="1.5"/><circle fill="#FFFBE4" cx="777.5" cy="270.5" r=".5"/><circle fill="#FFFBE4" cx="737.5" cy="310.5" r=".5"/><circle fill="#FFFBE4" cx="807.5" cy="460.5" r=".5"/><circle fill="#FFFBE4" cx="1097.5" cy="460.5" r=".5"/><circle fill="#FFFBE4" cx="1017.5" cy="330.5" r=".5"/><circle fill="#FFFBE4" cx="537.5" cy="280.5" r=".5"/><circle fill="#FFFBE4" cx="487.5" cy="330.5" r=".5"/><circle fill="#FFFBE4" cx="721" cy="482" r="3"/><circle fill="#FFFBE4" cx="591" cy="512" r="3"/><circle fill="#FFFBE4" cx="1129.5" cy="212.5" r="1.5"/><circle fill="#FFFBE4" cx="1028.5" cy="191.5" r=".5"/><circle fill="#FFFBE4" cx="544" cy="344" r="3"/><circle fill="#FFFBE4" cx="952.5" cy="74.5" r="1.5"/><circle fill="#FFFBE4" cx="851.5" cy="53.5" r=".5"/><circle fill="#FFFBE4" cx="1139.5" cy="362.5" r="1.5"/><circle fill="#FFFBE4" cx="1038.5" cy="341.5" r=".5"/><circle fill="#FFFBE4" cx="988.5" cy="251.5" r="1.5"/><circle fill="#FFFBE4" cx="838.5" cy="211.5" r="1.5"/><circle fill="#FFFBE4" cx="1531" cy="172" r="3"/><circle fill="#FFFBE4" cx="1569.5" cy="292.5" r="1.5"/><circle fill="#FFFBE4" cx="1828.5" cy="311.5" r=".5"/><circle fill="#FFFBE4" cx="1778.5" cy="221.5" r="1.5"/><circle fill="#FFFBE4" cx="1628.5" cy="181.5" r="1.5"/><circle fill="#FFFBE4" cx="1618.5" cy="241.5" r="1.5"/><circle fill="#FFFBE4" cx="1468.5" cy="201.5" r="1.5"/><circle fill="#FFFBE4" cx="1437.5" cy="370.5" r=".5"/><circle fill="#FFFBE4" cx="1337.5" cy="370.5" r=".5"/><circle fill="#FFFBE4" cx="1508.5" cy="361.5" r="1.5"/><circle fill="#FFFBE4" cx="1287.5" cy="280.5" r=".5"/><circle fill="#FFFBE4" cx="1187.5" cy="280.5" r=".5"/><circle fill="#FFFBE4" cx="1368.5" cy="221.5" r="1.5"/><circle fill="#FFFBE4" cx="1181" cy="32" r="3"/><circle fill="#FFFBE4" cx="1219.5" cy="152.5" r="1.5"/><circle fill="#FFFBE4" cx="1268.5" cy="101.5" r="1.5"/><circle fill="#FFFBE4" cx="1118.5" cy="61.5" r="1.5"/><circle fill="#FFFBE4" cx="1488.5" cy="1.5" r="1.5"/><circle fill="#FFFBE4" cx="1888.5" cy="231.5" r="1.5"/><path fill="#FFF" filter="url(#a)" d="M1890 167.866l-4.243 2.377 2.377-4.243-2.377-4.243 4.243 2.377 4.243-2.377-2.377 4.243 2.377 4.243"/><path opacity=".606" fill="#FFF" filter="url(#b)" d="M968 136.866l-4.243 2.377 2.377-4.243-2.377-4.243 4.243 2.377 4.243-2.377-2.377 4.243 2.377 4.243"/><path opacity=".606" fill="#FFF" filter="url(#c)" d="M1360 10.866l-4.243 2.377L1358.134 9l-2.377-4.243L1360 7.134l4.243-2.377L1361.866 9l2.377 4.243"/><path opacity=".606" fill="#FFF" filter="url(#d)" d="M1040 290.866l-4.243 2.377 2.377-4.243-2.377-4.243 4.243 2.377 4.243-2.377-2.377 4.243 2.377 4.243"/></g></svg>